<svg width="115" height="80" viewBox="0 0 115 80" fill="none" xmlns="http://www.w3.org/2000/svg">
<path d="M105.912 79.9688C105.912 79.9688 119.984 64.2139 113.107 47.9944C108.624 37.4222 91.8086 31.6291 82.3188 37.4222C78.277 39.8895 65.3096 37.5054 58.3858 27.2903C44.9313 7.44019 -2.02541 19.4954 6.52351 49.9725C10.6598 64.7214 -6.06717 65.2572 2.45634 80L105.912 79.9688Z" fill="#95E5FF" fill-opacity="0.24"/>
<path d="M47.3947 41.814L49.3354 42.2678L57.5665 37.7297C59.3741 38.3191 66.7811 40.7628 68.4062 41.4082C68.4062 41.4082 65.5268 66.0791 65.1908 68.372C64.8547 70.6648 64.7765 79.8388 64.7765 79.8388H34.1367C34.1367 79.8388 34.2178 55.1118 34.1367 51.2783C34.0237 46.3166 33.3893 41.4082 33.3893 41.4082L38.7311 39.3876L45.3202 36.1738L47.3947 41.814Z" fill="#0B7F9D"/>
<g opacity="0.3">
<path opacity="0.3" d="M52.3733 43.6562C54.8723 52.6516 57.5065 61.6124 60.2759 70.5386C60.6032 71.591 60.9248 72.7444 60.4845 73.7575C60.2665 74.2017 59.9349 74.5844 59.5211 74.8693C59.1074 75.1542 58.6253 75.3318 58.1206 75.3852C57.1068 75.4785 56.0887 75.2553 55.2151 74.7482C53.1439 73.6256 51.7997 71.518 51.1393 69.3122C50.4788 67.1064 50.418 64.7799 50.3658 62.4843L49.9313 44.1109L52.3733 43.6562Z" fill="black"/>
</g>
<path d="M68.4044 41.4082C68.4044 41.4082 72.8974 43.3362 72.5469 51.0706C72.3783 54.4456 72.0244 57.8096 71.4867 61.1483L58.8536 57.6291L62.0662 44.1977L68.4044 41.4082Z" fill="#0B7F9D"/>
<path d="M38.4422 53.856L39.1172 62.7831L26.4175 58.798C26.4175 58.798 29.1405 43.043 33.4539 41.3984L38.1033 49.0963L38.4422 53.856Z" fill="#0B7F9D"/>
<path d="M37.0006 51.2793C36.9886 51.3386 36.9809 51.3986 36.9774 51.4589C36.9774 51.5936 36.9542 51.7676 36.9397 51.9837C36.9137 52.4552 36.876 53.1063 36.8296 53.9033C36.7485 55.5282 36.6587 57.7705 36.5747 60.2485C36.4907 62.7265 36.4212 64.9548 36.3662 66.5966C36.3401 67.3936 36.3198 68.0474 36.3053 68.5189C36.3053 68.735 36.3053 68.909 36.3053 69.0437C36.301 69.1045 36.301 69.1654 36.3053 69.2261C36.3214 69.1665 36.3301 69.1053 36.3314 69.0437C36.3314 68.909 36.3517 68.735 36.3691 68.5217C36.3951 68.0503 36.4328 67.3992 36.4791 66.5994C36.5602 64.9773 36.65 62.7322 36.7312 60.2541C36.8123 57.7761 36.8876 55.5478 36.9426 53.9089C36.9687 53.1091 36.989 52.458 37.0035 51.9837C37.0035 51.7704 37.0035 51.5964 37.0035 51.4617C37.0101 51.401 37.0091 51.3398 37.0006 51.2793Z" fill="#263238"/>
<path d="M62.1193 47.5263C62.1838 47.4382 62.2391 47.3442 62.2845 47.2456C62.3945 47.0295 62.5336 46.7657 62.6929 46.4514C63.1261 45.5762 63.6575 44.7499 64.2775 43.9874C64.9046 43.2341 65.7107 42.639 66.6268 42.2531C67.0146 42.1127 67.4139 42.0038 67.8203 41.9275C67.7089 41.9122 67.5957 41.9122 67.4843 41.9275C67.1784 41.9666 66.8782 42.0391 66.5892 42.1436C65.6383 42.512 64.8013 43.1112 64.1587 43.8836C63.5301 44.6582 63.0055 45.5068 62.5973 46.4093C62.4351 46.7517 62.3076 47.0295 62.2323 47.2232C62.18 47.3185 62.142 47.4205 62.1193 47.5263Z" fill="#263238"/>
<path d="M35.5167 41.0332C35.8264 41.7053 36.0935 42.395 36.3162 43.0987C36.4885 43.8163 36.6142 44.5437 36.6928 45.2765C36.7334 45.0608 36.7412 44.8405 36.716 44.6226C36.6885 44.0952 36.603 43.5721 36.4611 43.0622C36.3234 42.5523 36.1292 42.0583 35.8817 41.5889C35.7872 41.3881 35.6644 41.2011 35.5167 41.0332Z" fill="#263238"/>
<path d="M45.3198 36.1737L45.4774 34.1311C45.4774 34.1311 40.5528 32.7925 41.0974 27.929C41.3581 25.5801 42.3024 20.784 43.2063 16.4565C43.6757 14.2109 45.0007 12.2188 46.9175 10.8766C48.8344 9.53442 51.2026 8.94059 53.5508 9.21326L54.0346 9.26939C59.2142 10.173 61.3173 14.9383 60.2425 19.9336L57.3254 39.466C57.0838 41.0426 55.2027 40.9885 53.8854 41.9435C52.5682 42.8985 50.8306 42.4877 49.2011 42.2677C48.2642 42.0083 47.9296 41.9435 47.3943 41.8138C46.792 40.3228 46.7251 40.1931 46.1228 38.3779L45.3198 36.1737Z" fill="#FFBE9D"/>
<path d="M45.4731 34.1126C47.7833 34.4253 50.1373 34.0638 52.2344 33.0742C52.2344 33.0742 50.339 36.4183 45.3883 35.3968L45.4731 34.1126Z" fill="#EB996E"/>
<path d="M44.7505 19.3937C44.7211 19.5769 44.7672 19.764 44.8788 19.9147C44.9904 20.0653 45.1587 20.1675 45.3473 20.1991C45.4393 20.2156 45.5337 20.2141 45.6251 20.1946C45.7165 20.1752 45.8029 20.1382 45.8793 20.0859C45.9557 20.0336 46.0205 19.967 46.07 19.8901C46.1194 19.8131 46.1524 19.7273 46.1671 19.6378C46.1965 19.4543 46.1505 19.2668 46.039 19.1157C45.9274 18.9646 45.7592 18.8619 45.5703 18.8296C45.4781 18.8131 45.3835 18.8148 45.2919 18.8344C45.2004 18.854 45.1138 18.8912 45.0374 18.9438C44.9609 18.9964 44.8962 19.0633 44.8469 19.1406C44.7976 19.2179 44.7649 19.3039 44.7505 19.3937Z" fill="#263238"/>
<path d="M43.9892 19.2665C44.0674 19.3647 44.6555 19.0391 45.4377 19.1318C46.2198 19.2244 46.7267 19.6622 46.8223 19.5808C46.8687 19.5443 46.7992 19.3703 46.5732 19.1682C46.2678 18.9062 45.8865 18.7416 45.4811 18.6968C45.0807 18.6504 44.6754 18.727 44.3224 18.9157C44.0501 19.0644 43.9487 19.2187 43.9892 19.2665Z" fill="#263238"/>
<path d="M52.0786 19.9912C52.0481 20.1762 52.0935 20.3655 52.2049 20.5185C52.3164 20.6716 52.4852 20.7764 52.6753 20.8107C52.7687 20.8267 52.8645 20.8243 52.9569 20.8037C53.0493 20.783 53.1365 20.7446 53.2132 20.6907C53.29 20.6367 53.3548 20.5684 53.4037 20.4897C53.4526 20.411 53.4847 20.3235 53.498 20.2326C53.5294 20.0476 53.4848 19.858 53.3739 19.7044C53.2629 19.5507 53.0943 19.4452 52.9042 19.4103C52.8104 19.3948 52.7145 19.3975 52.6219 19.4184C52.5292 19.4394 52.4419 19.478 52.365 19.5322C52.288 19.5863 52.2231 19.6548 52.1739 19.7337C52.1247 19.8125 52.0923 19.9001 52.0786 19.9912Z" fill="#263238"/>
<path d="M51.3877 19.8483C51.4659 19.9493 52.0568 19.6237 52.8361 19.7136C53.6153 19.8034 54.1252 20.244 54.2208 20.1626C54.2671 20.1289 54.1976 19.9549 53.9717 19.7528C53.6669 19.4897 53.2853 19.3249 52.8795 19.2814C52.4791 19.2337 52.0734 19.3103 51.7208 19.5003C51.4514 19.649 51.3471 19.8034 51.3877 19.8483Z" fill="#263238"/>
<path d="M48.0645 25.1708C48.0645 25.1287 47.6039 24.994 46.8391 24.806C46.645 24.7639 46.4654 24.705 46.4481 24.5703C46.4559 24.3724 46.5256 24.1816 46.6479 24.023L47.3953 22.6395C48.4614 20.675 49.2551 19.0361 49.174 18.9912C49.0929 18.9463 48.163 20.515 47.097 22.4879L46.3583 23.8911C46.2068 24.1077 46.1381 24.3688 46.1642 24.6292C46.185 24.6993 46.2218 24.764 46.272 24.8184C46.3221 24.8728 46.3843 24.9156 46.4539 24.9435C46.5587 24.9854 46.6687 25.0137 46.7812 25.0277C47.572 25.154 48.0558 25.2129 48.0645 25.1708Z" fill="#263238"/>
<path d="M47.8439 28.2094C47.7489 28.2899 47.4567 28.1066 46.5354 27.9293C46.0748 27.8407 45.8723 27.8206 45.661 27.8317C45.7786 27.6612 45.7609 27.7238 45.9077 27.6955C46.3126 27.7358 46.2481 27.7186 46.4417 27.77C46.7121 27.8418 47.0403 27.8617 47.5566 27.9987C47.6857 28.033 47.8916 28.1774 47.8439 28.2094Z" fill="#263238"/>
<path d="M51.7728 16.4329C51.822 16.6462 52.6042 16.6405 53.4935 16.851C54.3828 17.0615 55.0868 17.3842 55.2316 17.2159C55.2953 17.1345 55.1939 16.9352 54.9216 16.6995C54.5583 16.4129 54.1322 16.2104 53.676 16.1073C53.2197 16.0042 52.7451 16.0033 52.2884 16.1045C51.9379 16.1943 51.738 16.3346 51.7728 16.4329Z" fill="#263238"/>
<path d="M44.5391 16.8141C44.655 16.9994 45.2054 16.8871 45.8456 16.9517C46.4858 17.0162 47.0043 17.2042 47.1549 17.0415C47.2216 16.9601 47.1549 16.7805 46.9406 16.5924C46.6472 16.3631 46.2902 16.2234 45.9147 16.1909C45.5393 16.1584 45.1623 16.2347 44.8317 16.41C44.5854 16.5588 44.4956 16.7243 44.5391 16.8141Z" fill="#263238"/>
<path d="M59.3842 23.4651C59.474 23.4398 62.9502 22.8785 62.4317 26.1873C61.9131 29.496 58.5876 28.3061 58.5992 28.2079C58.6107 28.1096 59.3842 23.4651 59.3842 23.4651Z" fill="#FFBE9D"/>
<path d="M59.8474 27.1101C59.8618 27.1101 59.8995 27.1578 59.9922 27.2195C60.1249 27.2978 60.2835 27.3239 60.4354 27.2925C60.8178 27.2167 61.2089 26.7087 61.319 26.1138C61.37 25.8339 61.3571 25.5465 61.2813 25.2719C61.2658 25.1639 61.2235 25.0613 61.1579 24.9728C61.0922 24.8843 61.0053 24.8126 60.9047 24.7639C60.839 24.7363 60.7653 24.7319 60.6965 24.7514C60.6278 24.7709 60.5682 24.813 60.5281 24.8706C60.4673 24.9576 60.4789 25.0249 60.4615 25.0277C60.4441 25.0305 60.3949 24.9632 60.4441 24.8285C60.4776 24.7505 60.5366 24.6854 60.6121 24.6432C60.7167 24.5882 60.8395 24.5751 60.954 24.6068C61.0903 24.6544 61.2117 24.7351 61.3066 24.8413C61.4014 24.9474 61.4665 25.0754 61.4957 25.2129C61.5954 25.5206 61.6163 25.8471 61.5565 26.1643C61.429 26.8266 60.9771 27.3991 60.4644 27.4637C60.3686 27.4768 60.271 27.4684 60.1791 27.4393C60.0872 27.4101 60.0034 27.3608 59.9343 27.2953C59.8329 27.1914 59.8242 27.1129 59.8474 27.1101Z" fill="#EB996E"/>
<path d="M51.5644 23.785C51.5833 23.7915 51.6037 23.7922 51.623 23.7871C51.6423 23.7819 51.6595 23.7712 51.6723 23.7563C51.6852 23.7415 51.6931 23.7231 51.6949 23.7038C51.6967 23.6845 51.6925 23.6651 51.6826 23.6481C51.6728 23.6312 51.6579 23.6176 51.6399 23.6092C51.6219 23.6007 51.6017 23.5978 51.5819 23.6007C51.5622 23.6037 51.5438 23.6125 51.5293 23.6259C51.5148 23.6392 51.5049 23.6566 51.5008 23.6756C51.4946 23.6983 51.4977 23.7224 51.5096 23.7429C51.5215 23.7634 51.5412 23.7785 51.5644 23.785Z" fill="#EB996E"/>
<path d="M61.0778 79.9987L58.1983 79.7433L55.4492 73.3813C55.8925 73.3083 65.1681 71.9781 65.7156 72.1268L67.9375 79.7826C67.9375 79.7826 61.2748 79.9987 61.0778 79.9987Z" fill="#FFBE9D"/>
<path d="M59.2993 72.8907C59.2993 72.8907 65.6115 70.1713 66.0055 70.5642C66.3995 70.9571 67.0078 72.22 67.0078 72.22L59.2993 72.8907Z" fill="#FFBE9D"/>
<path d="M56.972 40.9176C56.972 40.9176 56.9894 40.8643 57.0184 40.7605C57.0474 40.6566 57.0879 40.4939 57.1372 40.2946C57.2414 39.8793 57.3921 39.2815 57.5804 38.5154C57.9599 36.9662 58.4987 34.752 59.1562 32.0607V32.0438V32.027C58.8289 31.1626 58.4842 30.2449 58.1221 29.2824L57.563 27.8062C57.4854 27.5323 57.3237 27.2876 57.0995 27.1046C56.8623 26.9221 56.5681 26.8232 56.2652 26.824L55.512 26.6921L55.5613 26.7257C55.4228 26.5016 55.2348 26.3099 55.0109 26.1645C54.7772 26.0091 54.5032 25.9206 54.22 25.9091C53.9271 25.8889 53.6372 25.9771 53.4089 26.1561C53.2877 26.2434 53.1885 26.3561 53.1188 26.4859C53.0491 26.6157 53.0106 26.7591 53.0063 26.9054L53.0961 26.8296L52.5544 26.7257C52.4592 26.7027 52.3624 26.6868 52.2647 26.678C52.1614 26.6724 52.058 26.6868 51.9605 26.7201C51.8656 26.7548 51.7782 26.8062 51.7027 26.8717L51.4825 27.0457C51.3377 27.1635 51.1929 27.2842 51.0509 27.4077C50.7639 27.6549 50.4921 27.9182 50.2369 28.1963C49.9586 28.4753 49.7478 28.8108 49.6199 29.1785C49.5867 29.2952 49.5867 29.4183 49.6199 29.5349C49.6695 29.6417 49.7415 29.7373 49.8313 29.8156C49.9182 29.8956 50.0212 29.9573 50.1338 29.9969C50.2465 30.0366 50.3664 30.0531 50.486 30.0457C50.9365 29.9989 51.3618 29.8208 51.7056 29.5349L51.5926 29.5209C52.0098 30.1355 52.4182 30.7445 52.8209 31.3422L52.9165 31.2384L51.6911 30.6322C51.2769 30.4807 50.8684 30.3291 50.4571 30.2029C50.2514 30.1345 50.0415 30.0792 49.8284 30.0373C49.768 30.0279 49.7064 30.0279 49.6459 30.0373C49.5781 30.0578 49.5203 30.1017 49.4837 30.1608C49.4226 30.2484 49.372 30.3426 49.3331 30.4414C49.0723 31.191 48.8784 31.9609 48.7537 32.7426V32.7735L48.7769 32.7988C49.2809 33.3151 49.7637 33.8128 50.2253 34.2918L50.2717 34.3367L50.318 34.2918L51.1088 33.5032L51.0075 33.447C50.4513 35.3329 49.9646 36.969 49.559 38.3189V38.3329C49.6894 39.7165 49.7908 40.811 49.8487 41.5659L49.9356 42.4247C49.9356 42.5145 49.953 42.5874 49.9588 42.6436C49.9595 42.6685 49.9644 42.6931 49.9733 42.7165C49.9733 42.7165 49.9733 42.6913 49.9733 42.6436C49.9733 42.5958 49.9733 42.5145 49.9733 42.4218C49.9588 42.2198 49.9385 41.9335 49.9096 41.5631C49.8487 40.8054 49.7618 39.7109 49.6488 38.3273V38.3414C50.0573 36.9943 50.5498 35.361 51.1204 33.4779L51.19 33.2534L51.019 33.4218L50.2224 34.2048H50.3151L48.8667 32.7062L48.8841 32.7623C49.0103 31.99 49.2041 31.2295 49.4634 30.4891C49.4985 30.3997 49.5431 30.3141 49.5967 30.2337C49.6151 30.2034 49.6423 30.179 49.6749 30.1636C49.7182 30.159 49.7619 30.159 49.8053 30.1636C50.0108 30.2077 50.2138 30.262 50.4136 30.3263C50.8221 30.4526 51.2276 30.607 51.639 30.7557L52.8643 31.3619L53.1106 31.4854L52.9599 31.2609L51.7346 29.4367L51.6911 29.3722L51.6245 29.4227C51.3033 29.684 50.9109 29.8497 50.4947 29.8998C50.3456 29.9076 50.1975 29.8716 50.0698 29.7964C49.9421 29.7213 49.8408 29.6106 49.7792 29.4788C49.7503 29.3874 49.7503 29.2896 49.7792 29.1982C49.9012 28.8543 50.0989 28.5402 50.3586 28.2777C50.6088 27.9988 50.8768 27.7354 51.161 27.4891C51.3 27.3684 51.4507 27.2477 51.5868 27.1327C51.7155 27.0122 51.8619 26.911 52.0213 26.8324C52.1859 26.7793 52.3638 26.7793 52.5283 26.8324L53.07 26.9362L53.1598 26.9559V26.8633C53.1653 26.7399 53.1994 26.6194 53.2596 26.5105C53.3198 26.4017 53.4045 26.3074 53.5074 26.2346C53.7078 26.0771 53.9627 25.9998 54.22 26.0185C54.4726 26.0346 54.7169 26.1118 54.9305 26.2433C55.1441 26.3747 55.3202 26.5561 55.4425 26.7707L55.4599 26.8015H55.4918L56.2478 26.9334C56.5196 26.934 56.7832 27.0241 56.9952 27.1888C57.1999 27.3568 57.3473 27.5808 57.4182 27.8315C57.6113 28.3347 57.7986 28.8268 57.9801 29.3076C58.349 30.2674 58.6976 31.1804 59.0259 32.0466V32.0158C58.3886 34.7183 57.8672 36.9354 57.5022 38.4873L57.0908 40.275C57.0445 40.4742 57.0097 40.6286 56.9865 40.7436C56.9784 40.8013 56.9736 40.8594 56.972 40.9176Z" fill="#EB996E"/>
<path d="M62.7 57.1641C62.7236 57.276 62.7596 57.3851 62.8072 57.4896L63.1403 58.3596C63.43 59.0949 63.8182 60.1108 64.2324 61.2361C64.6467 62.3615 65.003 63.3914 65.2579 64.1351C65.3796 64.4859 65.4838 64.7806 65.565 65.0163C65.5972 65.126 65.6409 65.2323 65.6953 65.3335C65.6843 65.2198 65.66 65.1078 65.6229 64.9995C65.565 64.7862 65.4752 64.4803 65.3622 64.1043C65.1304 63.3521 64.7828 62.3166 64.3744 61.1884C63.9659 60.0602 63.5517 59.0471 63.2417 58.3231C63.0853 57.9611 62.952 57.6692 62.8593 57.4672C62.8178 57.3608 62.7644 57.2592 62.7 57.1641Z" fill="#EB996E"/>
<path d="M53.0191 65.4659C53.014 65.4928 53.014 65.5204 53.0191 65.5473C53.0191 65.6119 53.0394 65.6904 53.051 65.7887C53.0857 66.0132 53.1321 66.3219 53.19 66.7176C53.2479 67.1133 53.329 67.6128 53.4478 68.1797C53.5746 68.8256 53.7568 69.4602 53.9924 70.0768C54.2793 70.83 54.713 71.5226 55.2699 72.1171C55.9122 72.7925 56.6541 73.3722 57.4715 73.8374C58.3799 74.3476 59.354 74.7392 60.3684 75.002C60.9056 75.1444 61.4597 75.2189 62.0167 75.2237C62.5912 75.2262 63.1618 75.1312 63.7026 74.9431C64.7638 74.5506 65.6943 73.885 66.3938 73.0179C67.0433 72.221 67.5684 71.336 67.9523 70.3911C68.3289 69.4959 68.5548 68.6007 68.8213 67.7868C69.0878 66.973 69.3254 66.2096 69.5455 65.5136C69.9945 64.1245 70.3364 62.9879 70.5507 62.2077C70.6579 61.812 70.7361 61.5061 70.7854 61.2984L70.8404 61.0599C70.8449 61.0329 70.8449 61.0055 70.8404 60.9785C70.8271 61.0033 70.8173 61.0297 70.8114 61.0571C70.7941 61.116 70.7709 61.1946 70.7448 61.29C70.6811 61.5061 70.5942 61.8092 70.4812 62.1909C70.2524 62.9739 69.9018 64.0992 69.4326 65.4828C69.2066 66.1788 68.9575 66.9365 68.691 67.7531C68.4245 68.5698 68.1956 69.4566 67.8219 70.3406C67.4405 71.2716 66.9203 72.1433 66.2779 72.9281C65.5952 73.7731 64.6879 74.4222 63.6534 74.8056C63.1286 74.9897 62.5748 75.0847 62.0167 75.0862C61.4723 75.0827 60.9308 75.01 60.406 74.8701C59.4075 74.6131 58.4481 74.23 57.5526 73.7307C56.7461 73.2746 56.0123 72.7074 55.3742 72.0469C54.8248 71.465 54.3933 70.7881 54.1025 70.0516C53.865 69.4409 53.677 68.8131 53.5405 68.1741C53.416 67.6128 53.3319 67.1189 53.2508 66.7204C53.1697 66.3219 53.1234 66.0188 53.0857 65.7971L53.0365 65.5557C53.0324 65.5255 53.0266 65.4955 53.0191 65.4659Z" fill="#EB996E"/>
<path d="M48.1965 44.4052C48.3103 44.2587 48.5132 44.1307 48.598 43.9543C48.8029 43.5842 48.7904 43.7342 49.0935 43.1763L49.0664 43.0467C49.2415 43.9249 49.367 44.4633 49.6018 45.6398L49.6687 45.964L49.9299 45.7695C50.6942 45.2171 51.5054 44.4438 52.3764 43.7313C54.0544 42.3614 55.5317 41.0413 56.5778 40.0526C57.1029 39.5554 57.5213 39.1467 57.8074 38.8539C57.9625 38.7159 58.1057 38.5567 58.2344 38.3789C58.0637 38.486 57.902 38.6156 57.7519 38.7656L56.471 39.8703C55.3993 40.8204 53.9092 42.1129 52.2398 43.4772C51.3859 44.1898 50.532 44.8526 49.7805 45.4436L49.9299 45.5209L49.2511 42.4388L49.2084 42.2344L49.1187 42.4111L48.4142 43.8528C48.3261 44.0259 48.253 44.2112 48.1965 44.4052Z" fill="#263238"/>
<path d="M56.9698 40.918L63.4993 58.9237L70.8398 60.9724C70.8398 60.9724 68.1777 71.8836 65.4604 73.8453C64.5363 74.5104 63.0271 75.2316 61.4802 75.1278C58.5457 74.9285 55.2549 72.9248 54.0005 70.124C52.8968 67.6375 49.9073 41.9142 49.9073 41.9142L56.9698 40.918Z" fill="#FFBE9D"/>
<path d="M50.0006 42.6885L49.6182 38.3021L50.6698 34.7801L51.0753 33.433L50.2816 34.2216L48.8332 32.7258C48.8332 32.7258 49.3025 30.0682 49.7022 30.0682C50.2056 30.1572 50.6979 30.2974 51.1709 30.4863C51.4606 30.5902 51.6894 30.6744 51.6894 30.6744L52.8974 31.2833L51.6692 29.4592C51.6692 29.4592 50.4062 30.4779 49.7602 29.5939C49.2677 28.9176 51.1072 27.4021 51.7879 26.8661C51.8668 26.8063 51.9582 26.7637 52.0557 26.7414C52.1533 26.7191 52.2546 26.7176 52.3528 26.737L53.0683 26.8745C53.0903 26.6212 53.2102 26.3853 53.4042 26.214C53.5981 26.0428 53.8517 25.9489 54.1141 25.9512C54.3989 25.9548 54.6777 26.0315 54.922 26.1734C55.1663 26.3154 55.3673 26.5176 55.5046 26.7595L56.2578 26.8914C56.5145 26.8913 56.7651 26.9674 56.9758 27.1093C57.1866 27.2513 57.3474 27.4524 57.4368 27.6856L59.0938 32.0523L56.9675 40.9289" fill="#FFBE9D"/>
<path d="M51.7383 32.8653C51.3363 32.6088 50.9117 32.3872 50.4695 32.203L49.9973 31.9785L50.3884 32.3209C50.5273 32.4426 50.6359 32.5931 50.7062 32.7613C50.7764 32.9295 50.8064 33.1109 50.7939 33.2919C50.7798 33.4773 50.7213 33.657 50.623 33.8167C50.5194 33.9601 50.4041 34.0952 50.2783 34.2208C50.2783 34.2348 50.5013 34.1563 50.7128 33.87C50.8332 33.7035 50.9088 33.5106 50.933 33.3087C50.9597 33.0564 50.9072 32.8021 50.7823 32.5791C50.7084 32.4429 50.6103 32.3204 50.4926 32.2171L50.4144 32.3349C50.8391 32.5483 51.2821 32.7258 51.7383 32.8653Z" fill="#EB996E"/>
<path d="M55.2109 30.4955C55.1176 30.2633 54.9991 30.0413 54.8575 29.8332C54.6229 29.4319 54.2782 28.8875 53.9103 28.2897C53.7191 27.9895 53.5424 27.706 53.3685 27.4478C53.2204 27.2076 53.0147 27.0054 52.7689 26.8585C52.5976 26.7636 52.4006 26.7215 52.204 26.7378C52.1317 26.7392 52.0617 26.7628 52.0041 26.8052C52.0041 26.8052 52.0795 26.8052 52.2069 26.8052C52.3872 26.8114 52.5624 26.8647 52.7139 26.9595C53.1136 27.1868 53.3946 27.7874 53.7799 28.3767C54.1652 28.9661 54.507 29.4993 54.7648 29.8978C54.8951 30.1094 55.0444 30.3094 55.2109 30.4955Z" fill="#EB996E"/>
<path d="M57.4531 30.4784C57.4088 30.2719 57.3367 30.0719 57.2388 29.8835C57.0852 29.5214 56.8593 29.0415 56.587 28.4971C56.3147 27.9527 56.0482 27.4924 55.8454 27.1585C55.7464 26.9694 55.6249 26.7924 55.4833 26.6309C55.5528 26.826 55.642 27.014 55.7498 27.1921C55.9555 27.5906 56.193 28.034 56.4508 28.5476L57.1432 29.9115C57.224 30.1113 57.328 30.3014 57.4531 30.4784Z" fill="#EB996E"/>
<path d="M41.7922 38.3789C41.7331 38.9305 41.8055 39.4835 42.008 40.0273C42.2547 41.0383 42.6402 42.4303 43.1181 43.9688C43.1901 44.2179 43.2672 44.4621 43.3494 44.7014L43.519 45.2509L44.0895 44.7673C45.0815 43.9284 46.1942 43.1231 47.4198 42.357L46.8802 42.2691C46.8754 42.929 47.0201 43.5873 47.3119 44.2325C47.5215 43.5806 47.5784 42.9196 47.4815 42.2618V41.8735L46.9419 42.1739C45.6026 42.9224 44.4152 43.7294 43.3957 44.5842L44.1357 44.6501L43.9199 43.9175C43.4419 42.3863 42.9639 40.987 42.5785 39.9907C42.447 39.4409 42.1832 38.9001 41.7922 38.3789Z" fill="#263238"/>
<path d="M45.5266 72.069C45.5526 71.9809 45.5709 71.8907 45.5812 71.7996C45.606 71.5879 45.6408 71.3186 45.6855 71.0107C45.7699 70.3228 45.8842 69.3271 46.0133 68.1004C46.2766 65.6423 46.5895 62.2413 46.8677 58.4796C47.1459 54.7178 47.3297 51.3121 47.434 48.8588C47.4836 47.6273 47.5184 46.6267 47.5333 45.9389C47.5333 45.6117 47.5333 45.352 47.5333 45.1403C47.5462 45.0478 47.5462 44.9539 47.5333 44.8613C47.5134 44.9532 47.5018 45.0465 47.4985 45.1403C47.4985 45.3488 47.4787 45.6134 47.4389 45.934C47.3942 46.6556 47.3296 47.6466 47.2551 48.854C47.1061 51.3169 46.8925 54.7227 46.6144 58.4748C46.3362 62.2269 46.0531 65.6327 45.8395 68.0956C45.7352 69.2982 45.6507 70.2843 45.5911 71.0107C45.5663 71.333 45.5464 71.5928 45.5315 71.8044C45.5178 71.892 45.5161 71.981 45.5266 72.069Z" fill="#263238"/>
<path d="M36.6774 61.4658L36.4196 68.7147C36.4196 68.7147 58.1139 72.8766 60.9065 74.2686C63.699 75.6605 64.8346 75.8766 64.6724 79.8813L30.0176 79.8252C30.0176 79.8252 25.7476 78.2761 25.8316 73.7718C25.9156 69.2676 27.0773 58.4434 27.0773 58.4434L36.6774 61.4658Z" fill="#FFBE9D"/>
<path d="M67.4163 79.9036C67.368 79.9246 67.3158 79.936 67.2628 79.9373C66.4951 80.0187 62.9581 79.8082 62.9581 79.8082C62.7959 79.3676 63.103 78.0374 63.5375 77.9588C63.972 77.8802 67.7408 78.1272 67.7408 78.1272C67.7408 78.1272 68.3201 78.203 68.4824 79.1683C68.5809 79.7633 67.4163 79.9036 67.4163 79.9036Z" fill="#FFBE9D"/>
<path d="M68.6117 77.9564C68.5637 77.9783 68.5113 77.9898 68.4582 77.99C67.6934 78.0714 64.3476 78.0349 64.2057 77.6392C64.0434 77.1986 64.2984 76.0901 64.7387 76.0115C65.179 75.933 68.9449 76.1799 68.9449 76.1799C68.9449 76.1799 69.5242 76.2557 69.6865 77.2211C69.7763 77.816 68.6117 77.9564 68.6117 77.9564Z" fill="#FFBE9D"/>
<path d="M69.2042 76.054C69.1561 76.0759 69.1037 76.0874 69.0506 76.0877C68.283 76.1691 64.94 76.1326 64.7952 75.7369C64.633 75.2963 64.8908 74.1878 65.3311 74.1092C65.7714 74.0306 69.5373 74.2776 69.5373 74.2776C69.5373 74.2776 70.1167 74.3533 70.276 75.3187C70.3687 75.9137 69.2042 76.054 69.2042 76.054Z" fill="#FFBE9D"/>
<path d="M69.7628 74.1597C69.7628 74.1737 69.7019 74.185 69.6092 74.1934C68.8445 74.2748 65.4986 74.2383 65.3538 73.8454C65.1944 73.402 65.4494 72.2935 65.8897 72.2177C66.33 72.1419 70.0959 72.3861 70.0959 72.3861C70.0959 72.3861 70.6753 72.4591 70.8346 73.4244C70.9273 74.0222 69.7628 74.1597 69.7628 74.1597Z" fill="#FFBE9D"/>
<path d="M64.523 77.9417C64.523 77.995 65.2588 78.0624 66.151 78.0876C67.0433 78.1129 67.7675 78.0876 67.7617 78.0315C67.7559 77.9754 67.0288 77.908 66.1337 77.8856C65.2385 77.8631 64.5201 77.8856 64.523 77.9417Z" fill="#EB996E"/>
<path d="M64.5057 76.0317C64.5057 76.0878 65.5399 76.1664 66.8232 76.2057C68.1065 76.245 69.1406 76.231 69.1406 76.1748C69.1406 76.1187 68.1036 76.0401 66.8232 76.0008C65.5428 75.9615 64.5086 75.9756 64.5057 76.0317Z" fill="#EB996E"/>
<g opacity="0.78">
<path opacity="0.78" d="M64.6619 74.0892C64.6619 74.1453 65.6961 74.2239 66.9794 74.2632C68.2627 74.3025 69.2969 74.2885 69.2969 74.2323C69.2969 74.1762 68.2627 74.0976 66.9794 74.0611C65.6961 74.0246 64.6619 74.033 64.6619 74.0892Z" fill="#EB996E"/>
</g>
<path d="M31.581 75.0292C31.6071 75.0292 31.7346 74.5914 32.0358 73.9067C32.2122 73.5075 32.4124 73.1186 32.6355 72.742C32.9086 72.282 33.2134 71.8404 33.548 71.4202C33.8891 71.0116 34.2558 70.6236 34.6459 70.2584C34.9701 69.9592 35.3115 69.6782 35.6685 69.4164C36.2768 68.9674 36.691 68.7373 36.6795 68.7148C36.5776 68.7517 36.4804 68.7998 36.3898 68.858C36.1233 69.001 35.866 69.1593 35.6192 69.3323C35.2488 69.5899 34.8966 69.8712 34.5648 70.1742C34.1609 70.544 33.7853 70.9416 33.4408 71.3641C33.1029 71.7914 32.797 72.2416 32.5254 72.7111C32.3039 73.0942 32.1104 73.4919 31.946 73.9011C31.8315 74.1756 31.7348 74.4568 31.6563 74.743C31.6196 74.8352 31.5944 74.9313 31.581 75.0292Z" fill="#EB996E"/>
<path d="M46.5021 11.1854C45.9873 10.8119 47.917 9.29275 49.3728 8.87721C51.5792 8.25164 54.8208 8.12168 56.6562 8.90692C58.8624 9.85061 60.6116 11.2218 61.4719 13.4073C62.2832 15.6233 62.4704 18.0085 62.0144 20.3177C61.9422 21.0301 61.0791 22.6309 60.6413 23.2078C60.0594 23.8826 59.6129 23.4528 59.5037 24.4769C59.4902 24.6627 59.4561 25.0511 59.3699 25.2175C59.2836 25.3839 59.0472 25.6147 58.9014 25.7361C58.1732 26.2975 57.6345 25.1325 57.3639 24.4769C56.7997 23.0662 56.9404 21.4936 57.0927 19.99C57.1416 18.9133 57.3717 17.8515 57.774 16.8467C58.0237 16.3132 58.3977 15.8278 58.5894 15.2781C58.7167 15.0118 58.7828 14.7218 58.783 14.4283C58.7832 14.1348 58.7175 13.8447 58.5904 13.5782C58.5192 13.4672 58.4382 13.3624 58.3483 13.2649C57.9271 12.7935 57.3838 12.4393 56.7743 12.2388C56.1648 12.0383 55.5111 11.9988 54.8806 12.1243C52.832 12.5209 49.3853 13.0634 48.6118 12.307C48.051 11.8267 47.601 11.2375 47.291 10.5777L46.5021 11.1854Z" fill="#263238"/>
<path d="M49.2711 20.6573C49.2959 20.6573 49.2711 20.3783 49.4151 19.8972C49.6031 19.2246 50.013 18.63 50.5824 18.204C50.998 17.8879 51.4914 17.6822 52.014 17.6072C52.5366 17.5321 53.0704 17.5902 53.5628 17.7758C54.1628 18.0024 54.6783 18.3992 55.0417 18.9141C55.4051 19.4291 55.5996 20.0383 55.5996 20.6621C55.5996 21.2858 55.4051 21.895 55.0417 22.41C54.6783 22.925 54.1628 23.3217 53.5628 23.5483C53.0376 23.7434 52.4671 23.795 51.9137 23.6974C51.4324 23.6087 50.9796 23.4109 50.5924 23.1202C50.0219 22.6952 49.6117 22.1001 49.4251 21.4269C49.2959 20.9459 49.3059 20.6669 49.281 20.6669C49.2697 20.7338 49.2697 20.802 49.281 20.8689C49.281 21.0649 49.3043 21.2602 49.3506 21.451C49.4458 21.8952 49.6389 22.3142 49.9168 22.6794C50.1947 23.0446 50.5507 23.3475 50.9606 23.5672C51.3704 23.7868 51.8244 23.9182 52.2915 23.9523C52.7586 23.9865 53.2279 23.9225 53.6671 23.7648C54.2934 23.54 54.8352 23.1377 55.2218 22.6103C55.6367 22.0419 55.8594 21.3629 55.8594 20.6669C55.8594 19.9708 55.6367 19.2919 55.2218 18.7235C54.8352 18.1961 54.2934 17.7938 53.6671 17.569C53.1002 17.3664 52.4864 17.3198 51.8938 17.4343C51.2695 17.5594 50.6964 17.8582 50.2447 18.2939C49.7929 18.7296 49.4822 19.2835 49.3506 19.8876C49.3041 20.0767 49.2808 20.2705 49.281 20.4649C49.267 20.528 49.2636 20.593 49.2711 20.6573Z" fill="#263238"/>
<path d="M41.1042 20.6581C41.134 20.6581 41.1042 20.3791 41.2532 19.8981C41.4388 19.2256 41.8472 18.6308 42.4155 18.2048C42.8313 17.8892 43.3247 17.6838 43.8472 17.6087C44.3697 17.5337 44.9034 17.5915 45.3959 17.7767C45.9959 18.0033 46.5114 18.4 46.8748 18.915C47.2382 19.43 47.4326 20.0392 47.4326 20.6629C47.4326 21.2867 47.2382 21.8959 46.8748 22.4108C46.5114 22.9258 45.9959 23.3226 45.3959 23.5492C44.8725 23.7446 44.3035 23.7962 43.7517 23.6983C43.2686 23.6104 42.814 23.4126 42.4255 23.121C41.856 22.696 41.4474 22.1008 41.2631 21.4278C41.134 20.9467 41.1439 20.6677 41.1141 20.6677C41.1016 20.7345 41.1016 20.803 41.1141 20.8698C41.1118 21.0656 41.1335 21.2609 41.1787 21.4518C41.3363 22.1641 41.7413 22.8025 42.3261 23.2605C42.7634 23.6043 43.2857 23.8317 43.8415 23.9203C44.3972 24.0089 44.9672 23.9556 45.4952 23.7656C46.1222 23.5422 46.6644 23.1396 47.05 22.6111C47.4648 22.0427 47.6875 21.3638 47.6875 20.6677C47.6875 19.9717 47.4648 19.2927 47.05 18.7243C46.6644 18.1959 46.1222 17.7933 45.4952 17.5698C45.0555 17.4138 44.5864 17.3513 44.1195 17.3865C43.6527 17.4216 43.1992 17.5537 42.7897 17.7736C42.3802 17.9936 42.0244 18.2963 41.7464 18.6612C41.4685 19.0261 41.2748 19.4446 41.1787 19.8884C41.1332 20.0776 41.1115 20.2714 41.1141 20.4657C41.1075 20.594 41.1042 20.6581 41.1042 20.6581Z" fill="#263238"/>
<path d="M47.518 20.6972C47.5627 20.7549 47.9204 20.5625 48.3972 20.5865C48.8741 20.6106 49.2168 20.8078 49.2615 20.7501C49.3062 20.6924 48.9834 20.3508 48.4072 20.3364C47.831 20.322 47.4684 20.6539 47.518 20.6972Z" fill="#263238"/>
<path d="M85.6758 19.4957L86.527 16.7296C85.2181 14.6893 84.7448 12.2486 85.2 9.88748C85.6553 7.52634 87.0061 5.41554 88.987 3.97009C90.9679 2.52464 93.4355 1.84913 95.9046 2.07637C98.3738 2.30361 100.666 3.41716 102.33 5.19808C103.994 6.97899 104.91 9.29843 104.898 11.7003C104.886 14.1023 103.947 16.4129 102.264 18.1779C100.582 19.9429 98.2789 21.0346 95.8075 21.2384C93.3362 21.4421 90.8756 20.7432 88.9094 19.279L85.6758 19.4957Z" fill="#FAFAFA"/>
<path d="M92.3208 9.96383H93.7231C93.7219 9.81489 93.7527 9.66723 93.8138 9.52962C93.8749 9.392 93.965 9.26722 94.0788 9.16268C94.1925 9.05813 94.3276 8.97595 94.4761 8.92101C94.6245 8.86607 94.7833 8.83947 94.9429 8.84281C95.1785 8.83401 95.4112 8.89411 95.6084 9.01472C95.8055 9.13532 95.9574 9.31038 96.0426 9.51542C96.1169 9.68642 96.1471 9.87129 96.1309 10.0552C96.1147 10.2391 96.0524 10.4168 95.9491 10.5742C95.7131 10.9395 95.1923 11.2758 94.244 11.1222V14.0701H95.6285V12.3429C96.2002 12.1842 96.6998 11.854 97.0499 11.4037C97.4 10.9533 97.5811 10.4078 97.5651 9.85173C97.5651 7.93769 95.7131 7.50174 94.9296 7.50589C94.333 7.51419 92.2852 7.65536 92.3208 9.96383Z" fill="#263238"/>
<path d="M94.2769 14.7334L95.6445 14.7383L95.6399 15.9752L94.2722 15.9703L94.2769 14.7334Z" fill="#263238"/>
<path d="M85.679 19.4954H85.8808L86.4907 19.4614L88.9171 19.3424C88.9231 19.3426 88.929 19.3414 88.9345 19.339C88.94 19.3365 88.9448 19.3329 88.9486 19.3284C88.9524 19.3239 88.9551 19.3186 88.9565 19.3129C88.9579 19.3073 88.9579 19.3014 88.9565 19.2957L88.8951 19.3552C90.1976 20.3435 91.7345 21.0008 93.3661 21.2673C94.4221 21.4376 95.4999 21.4376 96.5559 21.2673C97.7539 21.0906 98.9081 20.7017 99.9607 20.12C101.605 19.2097 102.949 17.866 103.836 16.2451C104.723 14.6243 105.116 12.7929 104.97 10.964C104.825 9.13514 104.146 7.38388 103.013 5.91395C101.88 4.44401 100.339 3.3158 98.5698 2.66053C97.1139 2.116 95.5479 1.90372 93.9935 2.04017C91.429 2.29325 89.0643 3.49484 87.392 5.39458C85.7196 7.29432 84.8687 9.74569 85.0165 12.238C85.1134 13.8313 85.6218 15.3756 86.4951 16.7292V16.6995C86.2318 17.5961 86.0256 18.2929 85.8808 18.773C85.815 18.9983 85.7668 19.1725 85.7273 19.2999C85.7093 19.3572 85.6947 19.4153 85.6834 19.4741L85.7448 19.2872C85.7887 19.1597 85.8457 18.9855 85.9203 18.7561C86.0724 18.283 86.2903 17.6046 86.5741 16.7207C86.5772 16.7156 86.5788 16.7097 86.5788 16.7037C86.5788 16.6978 86.5772 16.6919 86.5741 16.6868C85.5584 15.0694 85.0616 13.1963 85.1467 11.305C85.2319 9.41382 85.8951 7.5897 87.0523 6.06405C87.8429 5.03565 88.8361 4.16914 89.9745 3.5146C91.2104 2.80814 92.5913 2.37299 94.0199 2.23987C95.5365 2.10202 97.0656 2.30111 98.4908 2.822C100.691 3.63954 102.515 5.19526 103.631 7.20582C104.746 9.21639 105.078 11.548 104.568 13.7761C104.141 15.638 103.146 17.3326 101.711 18.6397C100.277 19.9468 98.4701 20.806 96.5252 21.1058C95.4835 21.2715 94.4209 21.2715 93.3793 21.1058C91.7643 20.8515 90.2391 20.2151 88.939 19.2532C88.9308 19.2454 88.9198 19.2411 88.9083 19.2411C88.8968 19.2411 88.8858 19.2454 88.8776 19.2532C88.8711 19.2602 88.8675 19.2693 88.8675 19.2787C88.8675 19.2881 88.8711 19.2972 88.8776 19.3042L88.9083 19.2362L86.517 19.4062L85.8896 19.4529L85.679 19.4954Z" fill="#263238"/>
</svg>
