<svg width="312" height="185" viewBox="0 0 312 185" fill="none" xmlns="http://www.w3.org/2000/svg">
<g clip-path="url(#clip0_1_42947)">
<path d="M93.6544 135.69C93.6544 135.69 90.8318 136.921 94.2712 142.916C97.7111 148.911 100.032 151.847 100.032 151.847C100.032 151.847 100.66 153.248 99.4732 153.531C98.2863 153.814 95.6267 153.526 95.1674 155.025C94.6911 156.58 95.8689 157.963 98.1718 159.112C100.475 160.261 105.43 162.964 105.877 163.21C106.316 163.452 106.776 164.095 105.999 164.418C105.221 164.741 99.3184 165.665 99.9233 168.451C100.528 171.236 107.468 173.378 108.223 173.627C108.977 173.876 109.17 174.181 109.13 174.592C109.09 175.003 107.077 175.125 105.41 175.458C103.741 175.79 101.865 176.468 102.348 178.046C102.832 179.624 107.038 182.775 116.888 183.239L121.467 183.154L123.757 179.15C128.14 170.283 127.44 165.06 126.301 163.87C125.163 162.679 123.66 163.996 122.561 165.298C121.461 166.6 120.376 168.306 119.999 168.142C119.622 167.977 119.45 167.659 119.599 166.876C119.749 166.094 121.257 158.963 119.126 157.079C116.995 155.195 113.322 159.924 112.663 160.45C112.004 160.975 111.668 160.259 111.671 159.757C111.674 159.244 111.728 153.584 111.847 151.005C111.966 148.426 111.334 146.72 109.748 146.383C108.22 146.057 107.179 148.531 106.355 149.434C105.532 150.338 104.618 149.107 104.618 149.107C104.618 149.107 103.19 145.644 99.6417 139.712C96.0937 133.781 93.599 135.719 93.599 135.719" fill="#E7E8E5"/>
<path d="M121.758 184.222C119.17 179.855 114.699 172.017 110.825 165.308C106.954 158.601 103.443 152.533 100.877 148.154C99.5935 145.969 98.5541 144.2 97.8324 142.971C97.4757 142.363 97.1977 141.889 97.0058 141.561C96.9147 141.403 96.8442 141.28 96.7934 141.193C96.7466 141.109 96.7256 141.065 96.7256 141.065C96.7256 141.065 96.7549 141.104 96.8062 141.185C96.8598 141.271 96.9339 141.392 97.0301 141.546C97.2275 141.871 97.5137 142.34 97.88 142.943C98.6163 144.156 99.67 145.918 100.963 148.102C103.552 152.468 107.077 158.53 110.949 165.237C114.822 171.946 119.278 179.791 121.844 184.17" fill="#DADBD8"/>
<path d="M98.8721 155.578C98.8749 155.569 98.9898 155.595 99.1954 155.651C99.4015 155.706 99.6964 155.794 100.06 155.906C100.786 156.133 101.782 156.471 102.874 156.864C103.95 157.256 104.923 157.61 105.667 157.881C106.003 158.001 106.286 158.102 106.514 158.184C106.715 158.254 106.824 158.298 106.822 158.307C106.819 158.317 106.704 158.291 106.498 158.237C106.292 158.181 105.996 158.093 105.634 157.977C104.909 157.743 103.918 157.392 102.827 156.999C101.749 156.615 100.774 156.268 100.028 156.003C99.6914 155.884 99.4075 155.784 99.1785 155.704C98.9784 155.632 98.8689 155.588 98.8721 155.578Z" fill="#DADBD8"/>
<path d="M107.119 157.998C107.081 157.986 107.685 155.895 108.468 153.327C109.251 150.758 109.916 148.685 109.954 148.696C109.991 148.708 109.387 150.799 108.604 153.368C107.821 155.936 107.156 158.01 107.119 157.998Z" fill="#DADBD8"/>
<path d="M112.602 168.569C112.594 168.563 112.656 168.458 112.773 168.275C112.909 168.069 113.077 167.811 113.278 167.504C113.702 166.852 114.284 165.949 114.89 164.93C115.499 163.911 116.017 162.97 116.388 162.286C116.562 161.965 116.709 161.693 116.827 161.476C116.932 161.285 116.994 161.181 117.003 161.186C117.012 161.19 116.966 161.302 116.876 161.501C116.786 161.699 116.652 161.984 116.477 162.333C116.129 163.031 115.623 163.982 115.012 165.004C114.405 166.026 113.807 166.923 113.361 167.561C113.136 167.879 112.952 168.135 112.819 168.308C112.687 168.481 112.61 168.574 112.602 168.569Z" fill="#DADBD8"/>
<path d="M104.663 168.028C104.664 168.019 104.775 168.016 104.975 168.018C105.206 168.025 105.49 168.033 105.825 168.042C106.541 168.069 107.531 168.115 108.624 168.175C109.717 168.236 110.706 168.298 111.421 168.351C111.755 168.378 112.037 168.401 112.268 168.42C112.468 168.439 112.578 168.455 112.577 168.465C112.577 168.474 112.466 168.478 112.265 168.475C112.034 168.469 111.75 168.461 111.416 168.451C110.699 168.424 109.709 168.378 108.616 168.318C107.523 168.257 106.535 168.195 105.819 168.143C105.486 168.115 105.203 168.093 104.973 168.074C104.773 168.054 104.662 168.038 104.663 168.028Z" fill="#DADBD8"/>
<path d="M108.323 177.978C108.324 177.968 108.466 177.965 108.723 177.968C109.007 177.976 109.373 177.984 109.812 177.995C110.731 178.024 111.999 178.074 113.401 178.138C114.802 178.201 116.07 178.267 116.988 178.322C117.427 178.351 117.792 178.375 118.075 178.394C118.331 178.414 118.473 178.43 118.472 178.439C118.472 178.45 118.329 178.452 118.072 178.449C117.788 178.442 117.423 178.433 116.984 178.422C116.065 178.394 114.796 178.344 113.394 178.28C111.993 178.216 110.725 178.151 109.807 178.096C109.369 178.067 109.004 178.043 108.721 178.024C108.465 178.004 108.323 177.988 108.323 177.978Z" fill="#DADBD8"/>
<path d="M118.233 178.36C118.225 178.355 118.299 178.221 118.44 177.984C118.597 177.725 118.799 177.388 119.044 176.982C119.553 176.137 120.251 174.965 120.986 173.651C121.722 172.337 122.357 171.131 122.811 170.254C123.029 169.833 123.211 169.483 123.349 169.216C123.478 168.971 123.553 168.838 123.561 168.842C123.571 168.846 123.512 168.988 123.399 169.24C123.286 169.493 123.117 169.855 122.901 170.299C122.47 171.189 121.847 172.405 121.109 173.721C120.374 175.038 119.661 176.203 119.13 177.036C118.863 177.452 118.644 177.786 118.487 178.014C118.331 178.242 118.241 178.365 118.233 178.36Z" fill="#DADBD8"/>
<path fill-rule="evenodd" clip-rule="evenodd" d="M231.14 17.0827C229.96 13.8349 226.381 12.1629 223.146 13.3471C219.911 14.5318 218.245 18.1244 219.426 21.3723C220.605 24.6196 224.184 26.292 227.419 25.1074C230.654 23.9227 232.32 20.3301 231.14 17.0827ZM239.455 17.6895C239.571 18.973 239.512 20.2501 239.292 21.4895L242.071 23.6473L239.618 28.9367L236.185 28.192C235.382 29.1592 234.446 30.0272 233.393 30.7645L233.838 34.2615L228.378 36.2603L226.476 33.298C225.197 33.4143 223.925 33.3541 222.69 33.1334L220.541 35.9225L215.272 33.4603L216.014 30.0134C215.051 29.207 214.186 28.2683 213.451 27.2114L209.969 27.6578L207.977 22.1767L210.928 20.2671C210.812 18.9836 210.872 17.7061 211.092 16.4663L208.313 14.3088L210.766 9.01945L214.2 9.76465C215.003 8.79742 215.938 7.92949 216.991 7.19212L216.546 3.69513L222.006 1.69587L223.908 4.65868C225.187 4.54237 226.459 4.60214 227.694 4.82326L229.843 2.0342L235.112 4.49594L234.37 7.94374C235.333 8.74915 236.198 9.68833 236.932 10.7447L240.416 10.2984L242.408 15.7795L239.455 17.6895Z" fill="#DADBD8"/>
<path fill-rule="evenodd" clip-rule="evenodd" d="M262.358 35.5455C261.423 32.9725 258.588 31.6481 256.025 32.5859C253.463 33.5246 252.143 36.3707 253.077 38.9437C254.012 41.5162 256.848 42.841 259.41 41.9028C261.973 40.9645 263.293 38.118 262.358 35.5455ZM268.946 36.0263C269.038 37.0432 268.991 38.0546 268.816 39.037L271.018 40.7462L269.075 44.9369L266.354 44.3466C265.719 45.1129 264.978 45.8006 264.144 46.3849L264.496 49.1551L260.17 50.7388L258.664 48.3916C257.65 48.484 256.642 48.4366 255.664 48.261L253.961 50.4708L249.787 48.5203L250.375 45.7896C249.612 45.1506 248.927 44.4073 248.345 43.5697L245.585 43.9232L244.008 39.5813L246.346 38.0679C246.254 37.051 246.301 36.0392 246.476 35.0573L244.275 33.3481L246.218 29.1574L248.938 29.7477C249.574 28.9818 250.315 28.2941 251.149 27.7098L250.796 24.9396L255.122 23.3554L256.629 25.7027C257.642 25.6108 258.65 25.6581 259.628 25.8333L261.331 23.6234L265.505 25.574L264.917 28.3051C265.681 28.9436 266.365 29.687 266.947 30.5246L269.707 30.1706L271.285 34.513L268.946 36.0263Z" fill="#E7E8E5"/>
<path fill-rule="evenodd" clip-rule="evenodd" d="M233.562 53.4543C232.768 51.2665 230.357 50.1403 228.177 50.9379C225.998 51.7359 224.876 54.1563 225.671 56.344C226.466 58.5313 228.877 59.6581 231.056 58.8605C233.235 58.0619 234.357 55.642 233.562 53.4543ZM239.164 53.8634C239.242 54.7281 239.202 55.5883 239.054 56.4231L240.926 57.8767L239.274 61.4399L236.961 60.9383C236.42 61.5897 235.79 62.1745 235.081 62.671L235.38 65.027L231.702 66.3735L230.421 64.3779C229.559 64.456 228.702 64.4156 227.87 64.2666L226.422 66.1454L222.873 64.4873L223.373 62.1648C222.724 61.6219 222.142 60.9898 221.647 60.2777L219.301 60.5784L217.959 56.886L219.947 55.5997C219.869 54.735 219.909 53.8745 220.058 53.0396L218.186 51.5861L219.838 48.0229L222.151 48.5244C222.692 47.873 223.322 47.2882 224.031 46.7918L223.732 44.4358L227.41 43.0893L228.691 45.0849C229.552 45.0067 230.409 45.0472 231.241 45.1961L232.689 43.3168L236.238 44.9755L235.739 47.2979C236.388 47.8408 236.97 48.4734 237.465 49.185L239.811 48.8843L241.153 52.5767L239.164 53.8634Z" fill="#F3F2F1"/>
<path d="M85.2246 110.013H99.9037V107.995H85.2246V110.013Z" fill="#DADBD8"/>
<path d="M85.2246 106.6H99.9037V104.582H85.2246V106.6Z" fill="#DADBD8"/>
<path d="M93.5518 113.666H99.9036V111.648H93.5518V113.666Z" fill="#DADBD8"/>
<path d="M308.277 184.666C308.277 184.732 239.262 184.785 154.146 184.785C69.0011 184.785 0 184.732 0 184.666C0 184.6 69.0011 184.547 154.146 184.547C239.262 184.547 308.277 184.6 308.277 184.666Z" fill="#04242D"/>
<path d="M218.166 162.59C217.074 162.812 216.144 163.583 215.557 164.533C214.97 165.484 214.7 166.601 214.593 167.714C214.386 169.867 215.127 172.243 216.053 174.196C218.143 173.027 219.119 170.418 219.531 169.063C220.183 166.921 220.065 162.654 218.166 162.59Z" fill="#4ABD88"/>
<path d="M213.27 177.23C213.804 176.101 213.587 174.693 212.85 173.687C212.113 172.68 210.916 172.066 209.683 171.901C209.113 171.824 208.471 171.859 208.052 172.254C207.66 172.624 207.566 173.237 207.711 173.756C207.855 174.276 208.203 174.716 208.589 175.092C209.914 176.38 211.432 177.383 213.27 177.23Z" fill="#4ABD88"/>
<path d="M214.169 184.159C214.18 184.159 214.188 184.001 214.197 183.714C214.206 183.399 214.217 182.991 214.23 182.501C214.242 181.484 214.287 180.033 213.819 178.515C213.36 177.003 212.527 175.784 211.754 175.102C211.371 174.756 211.021 174.524 210.769 174.388C210.644 174.314 210.54 174.274 210.472 174.241C210.403 174.21 210.366 174.197 210.364 174.202C210.344 174.233 210.944 174.479 211.678 175.183C212.418 175.873 213.218 177.075 213.67 178.561C214.129 180.048 214.104 181.483 214.12 182.5C214.124 183.013 214.127 183.427 214.136 183.714C214.146 184.001 214.158 184.16 214.169 184.159Z" fill="#04242D"/>
<path d="M217.971 165.847C217.966 165.846 217.945 165.909 217.909 166.031C217.871 166.169 217.823 166.347 217.762 166.566C217.638 167.032 217.467 167.708 217.261 168.544C216.851 170.217 216.316 172.537 215.783 175.111C215.25 177.687 214.821 180.029 214.533 181.728C214.39 182.577 214.279 183.266 214.208 183.743C214.177 183.968 214.151 184.15 214.131 184.292C214.115 184.417 214.109 184.484 214.114 184.485C214.12 184.486 214.136 184.421 214.162 184.297C214.189 184.156 214.225 183.976 214.268 183.752C214.36 183.26 214.487 182.58 214.642 181.748C214.957 180.054 215.404 177.717 215.936 175.143C216.468 172.571 216.986 170.248 217.369 168.57C217.557 167.744 217.71 167.07 217.821 166.581C217.87 166.358 217.909 166.179 217.94 166.039C217.965 165.914 217.976 165.849 217.971 165.847Z" fill="#04242D"/>
<path d="M216.051 179.16C216.99 176.701 219.184 174.766 221.734 174.146C222.383 173.988 223.192 173.966 223.583 174.51C223.975 175.054 223.699 175.822 223.332 176.384C221.806 178.721 218.772 179.954 216.056 179.342" fill="#4ABD88"/>
<path d="M221.025 176.079C221.023 176.069 220.878 176.099 220.617 176.163C220.486 176.195 220.326 176.234 220.146 176.299C219.967 176.365 219.754 176.421 219.536 176.523C219.315 176.619 219.069 176.718 218.822 176.858C218.566 176.983 218.309 177.145 218.04 177.316C217.51 177.673 216.959 178.116 216.455 178.657C215.954 179.203 215.552 179.786 215.24 180.345C215.092 180.63 214.951 180.899 214.85 181.166C214.732 181.426 214.656 181.68 214.582 181.91C214.5 182.138 214.465 182.356 214.418 182.541C214.37 182.728 214.347 182.892 214.33 183.026C214.294 183.294 214.279 183.441 214.289 183.443C214.324 183.449 214.387 182.852 214.687 181.944C214.766 181.719 214.848 181.471 214.969 181.217C215.073 180.956 215.217 180.693 215.366 180.416C215.68 179.871 216.078 179.301 216.569 178.764C217.064 178.233 217.603 177.794 218.119 177.436C218.383 177.264 218.633 177.1 218.882 176.973C219.124 176.83 219.363 176.727 219.579 176.625C220.452 176.242 221.035 176.112 221.025 176.079Z" fill="#04242D"/>
<path fill-rule="evenodd" clip-rule="evenodd" d="M121.136 75.7363C120.711 77.7039 121.956 79.6452 123.916 80.0713C125.876 80.498 127.809 79.2485 128.234 77.2805C128.659 75.3125 127.414 73.372 125.454 72.9454C123.494 72.5193 121.56 73.7683 121.136 75.7363ZM117.228 72.8415C117.568 72.1731 117.994 71.5626 118.485 71.0206L117.786 69.0908L120.632 67.251L122.092 68.6899C122.787 68.4642 123.517 68.3286 124.263 68.2941L125.128 66.4328L128.436 67.1527L128.455 69.2057C129.121 69.5477 129.73 69.9743 130.269 70.469L132.191 69.7661L134.024 72.6232L132.591 74.0896C132.816 74.7875 132.951 75.5193 132.985 76.2691L134.839 77.137L134.122 80.4584L132.077 80.4773C131.736 81.1457 131.311 81.7562 130.819 82.2982L131.519 84.228L128.672 86.0678L127.212 84.6289C126.517 84.8546 125.788 84.9902 125.041 85.0247L124.176 86.8856L120.868 86.1657L120.849 84.1126C120.183 83.7711 119.575 83.3445 119.035 82.8498L117.113 83.5527L115.28 80.6952L116.714 79.2292C116.489 78.5313 116.354 77.7995 116.319 77.0497L114.466 76.1818L115.182 72.8604L117.228 72.8415Z" fill="#4ABD88"/>
<path fill-rule="evenodd" clip-rule="evenodd" d="M113.769 59.117C113.563 60.0722 114.167 61.0142 115.118 61.2211C116.069 61.4279 117.008 60.8216 117.214 59.8663C117.42 58.9115 116.816 57.9691 115.865 57.7622C114.914 57.5554 113.975 58.1617 113.769 59.117ZM111.872 57.7117C112.037 57.3876 112.243 57.091 112.482 56.8281L112.143 55.8912L113.524 54.9985L114.233 55.6968C114.571 55.5873 114.925 55.5216 115.287 55.5046L115.707 54.6013L117.312 54.9507L117.321 55.9473C117.645 56.1132 117.94 56.3201 118.202 56.5601L119.135 56.219L120.024 57.6059L119.329 58.3175C119.438 58.6564 119.503 59.0117 119.52 59.3758L120.42 59.7969L120.072 61.4091L119.079 61.4183C118.914 61.7428 118.708 62.0389 118.469 62.3018L118.809 63.2387L117.427 64.1319L116.718 63.4332C116.381 63.5426 116.027 63.6083 115.664 63.6253L115.245 64.5286L113.639 64.1793L113.63 63.1826C113.306 63.0167 113.011 62.8098 112.749 62.5698L111.816 62.9109L110.927 61.524L111.622 60.8124C111.513 60.4736 111.448 60.1182 111.431 59.7546L110.531 59.3335L110.879 57.7213L111.872 57.7117Z" fill="#4ABD88"/>
<path d="M102.228 70.3738C102.22 70.372 102.226 70.3219 102.243 70.2272C102.259 70.1325 102.298 69.995 102.373 69.8272C102.516 69.4958 102.841 69.0237 103.444 68.7258C104.03 68.4242 104.927 68.3631 105.694 68.8435C106.459 69.2954 106.99 70.3302 106.758 71.3585C106.545 72.3915 105.635 73.1132 104.752 73.207C103.856 73.3256 103.064 72.8972 102.656 72.3786C102.229 71.8568 102.129 71.2923 102.134 70.931C102.135 70.7471 102.156 70.6055 102.181 70.5127C102.205 70.4194 102.221 70.372 102.228 70.3738C102.252 70.3775 102.205 70.5752 102.227 70.9278C102.249 71.2744 102.372 71.7985 102.784 72.2688C103.179 72.7367 103.913 73.1077 104.723 72.9882C105.522 72.8907 106.333 72.2361 106.525 71.308C106.733 70.384 106.264 69.4507 105.577 69.0301C104.888 68.5851 104.068 68.6178 103.516 68.8793C102.946 69.1358 102.618 69.5625 102.455 69.8686C102.29 70.1808 102.251 70.3798 102.228 70.3738Z" fill="#04242D"/>
<path d="M99.799 68.5741C99.8022 68.5796 99.6959 68.5865 99.4826 68.5948C99.2495 68.6021 98.9326 68.6118 98.5273 68.6242L98.5644 68.5939C98.4545 69.1312 98.3121 69.8259 98.1408 70.6635L98.107 70.5959C98.4582 70.7568 98.8479 70.9356 99.2637 71.1264L99.3017 71.1438L99.304 71.1866C99.3264 71.6127 99.4043 72.0651 99.554 72.5211L99.5687 72.5657L99.5352 72.6002C99.2586 72.8861 98.9596 73.1951 98.6491 73.5164L98.6597 73.4107C99.021 73.9688 99.4043 74.5608 99.8063 75.1819L99.695 75.1447C100.065 75.0077 100.472 74.8574 100.889 74.7034L100.945 74.6827L100.989 74.7231C101.299 75.0054 101.677 75.2757 102.097 75.4895L102.152 75.5175L102.153 75.5805C102.158 75.9758 102.163 76.4121 102.168 76.8566L102.084 76.7532C102.731 76.8925 103.428 77.0423 104.142 77.1963L104.018 77.258C104.185 76.8975 104.368 76.5013 104.553 76.1L104.582 76.0379L104.651 76.0347C105.071 76.0149 105.528 75.9367 105.97 75.7919L106.037 75.7703L106.087 75.8195C106.372 76.099 106.682 76.4043 106.996 76.7127L106.851 76.698C107.411 76.3353 108.011 75.9469 108.619 75.5529L108.572 75.6936C108.434 75.3148 108.286 74.9056 108.136 74.4942L108.112 74.4257L108.16 74.3724C108.448 74.0566 108.714 73.6791 108.924 73.2677L108.924 73.2668C109.134 73.1362 108.983 73.2305 109.029 73.2015H109.03H109.03H109.033H109.038H109.048L109.068 73.201L109.108 73.2006L109.188 73.2001L109.348 73.1983L109.667 73.1955C109.879 73.1937 110.09 73.1918 110.3 73.1895L110.185 73.2838C110.336 72.5864 110.485 71.8978 110.632 71.2192L110.697 71.3516C110.31 71.1701 109.925 70.9898 109.545 70.8115L109.481 70.7811L109.478 70.7103C109.458 70.2552 109.376 69.8089 109.24 69.3855L109.218 69.3184L109.267 69.2687C109.569 68.9607 109.866 68.6577 110.159 68.3585L110.145 68.5001C109.757 67.8928 109.379 67.2998 109.01 66.7215L109.139 66.7656C108.733 66.9127 108.335 67.0575 107.943 67.1996L107.882 67.2216L107.834 67.178C107.496 66.8663 107.123 66.6079 106.732 66.4056L106.676 66.3771L106.676 66.3146C106.673 65.877 106.671 65.4527 106.668 65.0385L106.746 65.1346C106.024 64.9746 105.341 64.8233 104.691 64.6794L104.793 64.6284C104.602 65.0343 104.423 65.4154 104.25 65.7832L104.228 65.8305L104.177 65.8328C103.695 65.8531 103.253 65.939 102.847 66.0678L102.801 66.0825L102.768 66.0494C102.44 65.7225 102.145 65.4274 101.866 65.1488L101.953 65.158C101.266 65.5943 100.68 65.9666 100.174 66.287L100.196 66.2236C100.363 66.7017 100.501 67.0961 100.617 67.4289L100.625 67.451L100.609 67.468C99.9886 68.1544 99.821 68.5897 99.799 68.5741C99.7971 68.5709 99.8077 68.5428 99.8292 68.4936C99.853 68.4426 99.8906 68.3654 99.9469 68.2652C100.06 68.0652 100.242 67.7678 100.552 67.4161L100.545 67.4552C100.421 67.1255 100.273 66.7348 100.095 66.2604L100.08 66.2208L100.117 66.1969C100.616 65.8682 101.197 65.4862 101.877 65.0389L101.924 65.0081L101.964 65.0481C102.247 65.323 102.547 65.614 102.878 65.9367L102.799 65.9179C103.216 65.7804 103.672 65.6867 104.169 65.6609L104.096 65.7106C104.265 65.3414 104.44 64.9585 104.627 64.5512L104.658 64.485L104.729 64.5002C105.381 64.6394 106.064 64.7852 106.788 64.9401L106.865 64.9566L106.866 65.0366C106.872 65.4508 106.877 65.8751 106.882 66.3128L106.826 66.2218C107.234 66.4295 107.624 66.6966 107.978 67.0194L107.87 66.9977C108.261 66.8539 108.659 66.7077 109.064 66.5583L109.146 66.5279L109.194 66.6024C109.566 67.1793 109.947 67.771 110.336 68.3764L110.386 68.4532L110.322 68.5185C110.029 68.8182 109.733 69.1225 109.432 69.431L109.46 69.3142C109.603 69.7564 109.69 70.2235 109.712 70.6998L109.644 70.5986C110.025 70.7761 110.409 70.9558 110.797 71.1369L110.883 71.1769L110.863 71.2693C110.717 71.9483 110.568 72.637 110.418 73.3343L110.398 73.4277L110.303 73.4286C110.093 73.4309 109.881 73.4327 109.669 73.4346L109.35 73.4378L109.19 73.4396L109.11 73.4401L109.07 73.4405H109.05L109.04 73.441H109.035H109.033H109.032H109.032C109.078 73.412 108.927 73.5058 109.136 73.3757L109.136 73.3766C108.917 73.8079 108.637 74.2032 108.336 74.5337L108.36 74.4119C108.509 74.8243 108.657 75.2334 108.795 75.6122L108.827 75.7018L108.748 75.7529C108.139 76.1459 107.538 76.5334 106.977 76.8952L106.899 76.9458L106.832 76.8805C106.519 76.5712 106.209 76.2654 105.925 75.9846L106.041 76.0121C105.578 76.1625 105.1 76.2425 104.661 76.2618L104.759 76.196C104.572 76.5964 104.387 76.9922 104.219 77.3522L104.182 77.4331L104.095 77.4143C103.382 77.257 102.685 77.104 102.04 76.9619L101.956 76.9435L101.956 76.8585C101.953 76.4144 101.95 75.9781 101.947 75.5823L102.003 75.6733C101.567 75.4485 101.176 75.1649 100.856 74.8693L100.956 74.8891C100.538 75.0403 100.13 75.1874 99.7596 75.3217L99.6886 75.3474L99.6483 75.284C99.2513 74.6592 98.8735 74.0644 98.5168 73.5026L98.4797 73.4451L98.5273 73.3969C98.8415 73.0788 99.1437 72.7731 99.423 72.4899L99.4047 72.5694C99.2559 72.0977 99.1817 71.6311 99.1643 71.193L99.2046 71.2537C98.7915 71.0565 98.4046 70.8722 98.0561 70.7057L98.0117 70.6846L98.0223 70.6377C98.2114 69.8038 98.3689 69.1124 98.4898 68.5778L98.4967 68.5474L98.5269 68.5479C98.9257 68.5525 99.2371 68.5562 99.467 68.5589C99.565 68.5617 99.6451 68.564 99.712 68.5663C99.7678 68.5686 99.7971 68.5709 99.799 68.5741Z" fill="#04242D"/>
<path d="M124.176 86.8856L120.868 86.1657L120.849 84.1126C120.183 83.7711 119.575 83.3445 119.035 82.8498L117.113 83.5527L115.28 80.6952L116.714 79.2292C116.489 78.5313 116.354 77.7995 116.319 77.0497L114.466 76.1818L115.182 72.8604L117.228 72.8415C117.568 72.1731 117.994 71.5626 118.485 71.0206L117.786 69.0908L120.632 67.251L122.092 68.6899C122.787 68.4642 123.517 68.3286 124.263 68.2941L125.128 66.4328L128.436 67.1527L128.455 69.2057C129.121 69.5477 129.73 69.9743 130.269 70.469L132.191 69.7661L134.024 72.6232L132.591 74.0896C132.816 74.7875 132.951 75.5193 132.985 76.2691L134.839 77.137L134.122 80.4584L132.077 80.4773C131.736 81.1457 131.311 81.7562 130.819 82.2982L131.519 84.228L128.672 86.0678L127.212 84.6289C126.517 84.8546 125.788 84.9902 125.041 85.0247L124.176 86.8856ZM121.053 76.5155C121.054 78.193 122.216 79.7017 123.916 80.0713C124.175 80.1279 124.434 80.1546 124.688 80.1546C126.361 80.155 127.866 78.9883 128.234 77.2805C128.29 77.0194 128.317 76.7582 128.317 76.5013C128.316 74.8238 127.154 73.315 125.454 72.9454C125.195 72.8889 124.936 72.8622 124.682 72.8622C123.009 72.8622 121.505 74.0285 121.136 75.7363C121.08 75.9979 121.053 76.2585 121.053 76.5155Z" fill="#F0F0F0"/>
<path d="M200.59 69.3786C199.77 60.1219 196.558 50.8661 190.301 44.017C184.044 37.1678 174.499 33.0566 165.37 34.5994C156.242 36.1426 148.162 43.9779 147.546 53.2507C147.219 58.1723 148.856 63.0608 148.584 67.9856C148.114 76.4976 142.042 83.7007 135.234 88.7966C129.368 93.1873 123.048 94.7613 118.841 100.772C111.301 111.545 112.556 123.96 117.013 131.386C118.545 133.938 121.055 136.336 124.064 138.384C132.706 144.266 143.516 145.784 153.633 143.194C169.339 139.173 183.513 129.228 191.682 116.325C201.174 101.333 201.938 84.5848 200.59 69.3786Z" fill="#4ABD88"/>
<path d="M144.041 144.411C136.977 144.411 130.007 142.43 124.064 138.384C121.055 136.336 118.545 133.938 117.013 131.386C114.837 127.76 113.424 122.945 113.426 117.711C113.428 112.227 114.983 106.285 118.841 100.772C123.048 94.7613 129.368 93.1873 135.234 88.7966C142.042 83.7007 148.114 76.4976 148.584 67.9857C148.605 67.6009 148.615 67.2166 148.614 66.8323C148.612 62.7482 147.503 58.6858 147.502 54.605C147.502 54.154 147.516 53.7021 147.546 53.2507C148.161 43.9779 156.241 36.1427 165.37 34.5994C166.663 34.3811 167.963 34.2758 169.263 34.2758C177.136 34.2758 184.93 38.1378 190.301 44.017C196.558 50.8662 199.77 60.1219 200.59 69.3786C200.905 72.9275 201.104 76.561 201.105 80.2359C201.106 92.3074 198.958 104.832 191.682 116.325C183.513 129.228 169.339 139.173 153.633 143.194C150.474 144.003 147.248 144.411 144.041 144.411ZM139.323 93.9214C138.634 95.05 138.235 96.3717 138.235 97.9195C138.235 110.601 142.379 134.306 159.035 134.308C159.122 134.308 159.207 134.307 159.294 134.306C176.169 134.058 179.268 100.565 179.458 99.072C179.458 99.072 179.556 97.8625 178.892 96.2181C178.934 96.1892 178.953 96.1726 178.952 96.1699C178.952 96.1694 178.951 96.1689 178.95 96.1689C178.945 96.1689 178.922 96.1795 178.885 96.1993C177.561 92.9459 173.247 88.0091 159.294 87.3609C159.294 87.3609 159.294 87.3609 159.294 87.3609C159.291 87.3609 159.277 87.3605 159.255 87.36C159.251 87.36 159.247 87.36 159.242 87.3596H159.242H159.241C159.22 87.3591 159.193 87.3586 159.16 87.3577C159.044 87.3559 158.856 87.3531 158.605 87.3531C158.602 87.3531 158.598 87.3531 158.594 87.3531C158.585 87.3531 158.575 87.3531 158.565 87.3531C155.453 87.3563 143.259 87.7613 139.408 93.7853C139.377 93.8322 139.348 93.8777 139.323 93.9214Z" fill="#F0F0F0"/>
<path fill-rule="evenodd" clip-rule="evenodd" d="M135.168 134.731C135.168 135.091 134.876 135.384 134.517 135.384C134.157 135.384 133.866 135.091 133.866 134.731C133.866 134.37 134.157 134.078 134.517 134.078C134.876 134.078 135.168 134.37 135.168 134.731Z" fill="#4ABD88"/>
<path fill-rule="evenodd" clip-rule="evenodd" d="M144.623 146.195C144.489 146.059 144.489 145.84 144.623 145.705C144.758 145.57 144.976 145.57 145.111 145.705C145.246 145.84 145.246 146.059 145.111 146.195C144.976 146.33 144.758 146.33 144.623 146.195Z" fill="#4ABD88"/>
<path d="M167.513 147.961C165.17 148.925 162.488 152.298 162.298 154.95C162.109 157.601 163.505 160.24 165.634 161.82C167.765 163.4 170.537 163.975 173.17 163.689C175.051 163.484 176.96 162.811 178.235 161.409C179.644 159.86 180.091 157.616 179.883 155.529C179.598 152.655 178.099 149.865 175.692 148.284C173.285 146.703 169.981 146.478 167.513 147.961Z" fill="#4ABD88"/>
<path d="M171.867 163.76C169.645 163.759 167.415 163.141 165.634 161.82C163.633 160.336 162.28 157.917 162.281 155.431C162.281 155.271 162.287 155.11 162.298 154.95C162.488 152.298 165.17 148.925 167.513 147.961C168.636 147.286 169.934 146.964 171.241 146.964C172.804 146.964 174.381 147.424 175.691 148.284C178.098 149.865 179.598 152.655 179.882 155.529C179.914 155.847 179.93 156.168 179.931 156.491C179.932 158.284 179.429 160.096 178.235 161.409C176.96 162.811 175.051 163.484 173.17 163.689C172.738 163.736 172.303 163.76 171.867 163.76Z" fill="#F0F0F0"/>
<path fill-rule="evenodd" clip-rule="evenodd" d="M185.746 97.0254C185.746 97.6763 185.221 98.2031 184.573 98.2031C183.925 98.2031 183.399 97.6763 183.399 97.0254C183.399 96.3749 183.925 95.8476 184.573 95.8476C185.221 95.8476 185.746 96.3749 185.746 97.0254Z" fill="#4ABD88"/>
<path fill-rule="evenodd" clip-rule="evenodd" d="M167.574 52.8006C167.574 53.161 167.283 53.4534 166.923 53.4534C166.564 53.4534 166.272 53.161 166.272 52.8006C166.272 52.4397 166.564 52.1474 166.923 52.1474C167.283 52.1474 167.574 52.4397 167.574 52.8006Z" fill="#4ABD88"/>
<path d="M182.683 172.579C182.683 173.347 171.355 173.97 157.381 173.97C143.408 173.97 132.08 173.347 132.08 172.579C132.08 171.811 143.408 171.189 157.381 171.189C171.355 171.189 182.683 171.811 182.683 172.579Z" fill="#FAFAF9"/>
<path d="M119.017 184.663L124.796 172.695H188.544L196.141 184.633C196.141 184.633 119.017 185.439 119.017 184.663Z" fill="#074F62"/>
<path d="M158.61 184.858C158.557 184.858 158.514 182.536 158.514 179.671C158.514 176.806 158.557 174.483 158.61 174.483C158.663 174.483 158.706 176.806 158.706 179.671C158.706 182.536 158.663 184.858 158.61 184.858Z" fill="#074F62"/>
<path d="M191.007 177.404C191.007 177.41 190.924 177.423 190.763 177.443C190.587 177.463 190.353 177.49 190.057 177.524C189.422 177.589 188.528 177.681 187.415 177.794C185.144 178.012 181.982 178.315 178.342 178.664L178.413 178.62C177.806 179.602 177.169 180.634 176.514 181.696L176.486 181.741L176.434 181.742C176.198 181.747 175.944 181.752 175.688 181.757C170.979 181.845 166.717 181.924 163.613 181.981C162.08 182 160.834 182.015 159.953 182.026C159.534 182.027 159.201 182.028 158.957 182.029C158.854 182.027 158.768 182.026 158.699 182.024C158.641 182.023 158.61 182.02 158.61 182.017C158.61 182.013 158.64 182.009 158.698 182.005C158.768 182.001 158.853 181.996 158.957 181.99C159.2 181.981 159.532 181.967 159.951 181.951C160.832 181.925 162.078 181.889 163.609 181.845C166.715 181.772 170.976 181.674 175.684 181.565C175.94 181.56 176.194 181.554 176.43 181.55L176.351 181.595C177.008 180.533 177.647 179.502 178.255 178.522L178.279 178.482L178.325 178.478C181.968 178.156 185.132 177.877 187.404 177.676C188.52 177.585 189.416 177.512 190.051 177.461C190.348 177.44 190.584 177.423 190.761 177.411C190.922 177.402 191.006 177.399 191.007 177.404Z" fill="#074F62"/>
<path d="M185.246 177.935C185.194 177.943 184.999 176.965 184.811 175.751C184.622 174.536 184.513 173.545 184.565 173.537C184.617 173.529 184.812 174.507 185 175.721C185.188 176.935 185.299 177.926 185.246 177.935Z" fill="#074F62"/>
<path d="M134.145 185C134.138 185.002 134.103 184.935 134.045 184.809C133.981 184.662 133.902 184.478 133.806 184.256C133.6 183.752 133.322 183.074 132.991 182.265L133.06 182.309C131.797 182.214 130.298 182.101 128.69 181.98C126.467 181.806 124.456 181.64 123.002 181.514C122.299 181.449 121.718 181.395 121.28 181.355C120.874 181.314 120.65 181.287 120.651 181.277C120.653 181.267 120.879 181.274 121.288 181.297C121.727 181.326 122.31 181.363 123.015 181.408C124.473 181.509 126.486 181.657 128.709 181.831C130.317 181.961 131.814 182.082 133.077 182.184L133.131 182.189L133.146 182.228C133.45 183.043 133.705 183.727 133.895 184.235C133.974 184.461 134.039 184.647 134.092 184.798C134.135 184.928 134.154 184.998 134.145 185Z" fill="#074F62"/>
<path d="M158.61 177.404C158.61 177.407 158.585 177.41 158.535 177.413C158.475 177.416 158.403 177.418 158.314 177.422C158.105 177.426 157.821 177.431 157.461 177.438C156.7 177.445 155.624 177.455 154.288 177.467C151.577 177.475 147.815 177.487 143.542 177.5L143.575 177.493C142.636 177.848 141.657 178.218 140.658 178.595C140.116 178.8 139.58 179.001 139.076 179.191L139.054 179.2L139.031 179.197C134.44 178.627 130.353 178.119 127.395 177.751C125.936 177.561 124.757 177.407 123.925 177.299C123.53 177.244 123.217 177.2 122.988 177.168C122.891 177.153 122.811 177.14 122.746 177.13C122.691 177.12 122.664 177.114 122.664 177.11C122.665 177.107 122.693 177.108 122.748 177.111C122.814 177.117 122.894 177.123 122.993 177.132C123.222 177.156 123.536 177.188 123.933 177.229C124.767 177.323 125.949 177.457 127.411 177.622C130.37 177.974 134.46 178.46 139.054 179.006L139.009 179.012C139.512 178.822 140.048 178.619 140.59 178.415C141.589 178.038 142.569 177.669 143.509 177.316L143.525 177.309L143.542 177.31C147.815 177.322 151.577 177.334 154.288 177.342C155.624 177.354 156.7 177.364 157.461 177.371C157.821 177.378 158.105 177.383 158.314 177.387C158.403 177.39 158.475 177.393 158.535 177.395C158.585 177.399 158.61 177.402 158.61 177.404Z" fill="#074F62"/>
<path d="M206.118 82.6733H191.438V80.6556H206.118V82.6733Z" fill="#4ABD88"/>
<path d="M197.79 86.3266H191.438V84.3089H197.79V86.3266Z" fill="#4ABD88"/>
<path d="M282.708 85.0036C282.706 85.0003 282.737 84.9709 282.801 84.9162C282.877 84.8532 282.973 84.7746 283.091 84.6767C283.157 84.6243 283.23 84.5668 283.308 84.5038C283.396 84.4505 283.492 84.3926 283.595 84.3305C283.699 84.2676 283.811 84.2004 283.93 84.1292C284.058 84.0726 284.194 84.012 284.337 83.9485C285.47 83.424 287.401 83.1482 289.555 83.8584C290.618 84.2193 291.747 84.7999 292.707 85.729C293.675 86.6488 294.448 87.8905 294.923 89.311C295.886 92.1575 295.638 95.6499 294.251 98.7994C292.846 101.962 290.649 104.469 288.571 106.563C286.471 108.657 284.449 110.394 282.844 111.948C281.227 113.491 280.008 114.83 279.225 115.804C278.829 116.288 278.536 116.675 278.342 116.941C278.25 117.064 278.176 117.162 278.117 117.241C278.065 117.308 278.037 117.341 278.034 117.338C278.03 117.336 278.051 117.298 278.097 117.227C278.151 117.144 278.219 117.041 278.303 116.913C278.485 116.637 278.767 116.241 279.153 115.746C279.916 114.751 281.121 113.389 282.726 111.826C284.321 110.253 286.333 108.501 288.415 106.407C290.478 104.313 292.648 101.821 294.033 98.7024C295.398 95.6026 295.645 92.1681 294.715 89.3813C294.255 87.9898 293.506 86.773 292.571 85.8729C291.641 84.9608 290.54 84.3829 289.501 84.0189C287.396 83.3022 285.498 83.5444 284.372 84.0349C283.223 84.513 282.735 85.0435 282.708 85.0036Z" fill="#04242D"/>
<path d="M244.828 160.594V145.96C244.828 140.773 248.287 137.256 252.59 137.202L297.047 136.646C300.025 136.608 302.459 139.021 302.459 142.011V160.323L244.828 160.594Z" fill="#4ABD88"/>
<path d="M297.012 149.649H279.002V141.197H297.012V149.649Z" fill="#FAFAF9"/>
<path d="M273.354 160.24C273.288 160.24 273.235 155.062 273.235 148.677C273.235 142.29 273.288 137.113 273.354 137.113C273.42 137.113 273.473 142.29 273.473 148.677C273.473 155.062 273.42 160.24 273.354 160.24Z" fill="#04242D"/>
<path d="M273.535 130.104C273.529 130.092 273.68 130.004 273.973 129.891C274.265 129.776 274.708 129.655 275.269 129.603C276.373 129.486 278.044 129.757 279.374 130.912C280.696 132.079 281.191 133.703 281.226 134.817C281.251 135.383 281.192 135.84 281.119 136.146C281.046 136.452 280.981 136.614 280.968 136.609C280.917 136.601 281.149 135.929 281.058 134.828C280.981 133.75 280.477 132.204 279.218 131.092C277.951 129.992 276.356 129.701 275.281 129.771C274.182 129.831 273.55 130.153 273.535 130.104Z" fill="#04242D"/>
<path d="M251.474 137.305L273.354 78.199L289.171 85.7368L270.611 141.197L251.474 137.305Z" fill="#4ABD88"/>
<path d="M256.419 159.043C255.237 159.043 254.035 158.801 252.883 158.292C248.445 156.328 246.433 151.125 248.389 146.669C249.837 143.371 253.055 141.407 256.429 141.407C257.612 141.407 258.814 141.648 259.966 142.158C264.404 144.121 266.415 149.325 264.46 153.78C263.011 157.079 259.794 159.043 256.419 159.043Z" fill="#187B4E"/>
<path d="M265.771 150.443C263.759 155.026 258.427 157.103 253.861 155.084C249.296 153.064 247.226 147.711 249.238 143.127C251.25 138.544 256.583 136.467 261.148 138.486C265.713 140.507 267.783 145.86 265.771 150.443Z" fill="#04242D"/>
<path d="M260.647 148.176C259.882 149.918 257.855 150.709 256.119 149.941C254.383 149.173 253.596 147.138 254.361 145.395C255.126 143.652 257.154 142.862 258.89 143.63C260.625 144.398 261.412 146.433 260.647 148.176Z" fill="#074F62"/>
<path d="M260.831 139.208C260.823 139.205 260.861 139.078 260.941 138.841C261.03 138.583 261.15 138.238 261.301 137.805C261.632 136.886 262.096 135.595 262.666 134.01C263.847 130.795 265.466 126.389 267.254 121.522C268.446 118.318 269.564 115.315 270.515 112.761L270.578 112.895C267.926 111.954 265.708 111.168 264.128 110.608C263.368 110.331 262.763 110.11 262.325 109.951C262.132 109.877 261.976 109.818 261.852 109.77C261.746 109.728 261.693 109.703 261.694 109.698C261.696 109.693 261.753 109.707 261.863 109.739C261.99 109.779 262.149 109.829 262.346 109.89C262.788 110.037 263.4 110.239 264.168 110.493C265.754 111.033 267.982 111.792 270.646 112.699L270.745 112.733L270.709 112.833C269.767 115.391 268.659 118.398 267.477 121.605C265.664 126.462 264.022 130.859 262.824 134.069C262.224 135.644 261.736 136.925 261.388 137.837C261.22 138.264 261.086 138.604 260.986 138.858C260.892 139.09 260.839 139.21 260.831 139.208Z" fill="#04242D"/>
<path d="M281.158 110.439C281.134 110.5 277.262 109.017 272.512 107.127C267.76 105.237 263.929 103.655 263.953 103.594C263.978 103.532 267.848 105.015 272.6 106.905C277.35 108.795 281.182 110.377 281.158 110.439Z" fill="#04242D"/>
<path d="M262.018 155.512C262.006 155.497 262.238 155.303 262.644 154.941C263.051 154.58 263.619 154.035 264.267 153.311C265.572 151.872 267.104 149.634 268.341 146.932C269.581 144.229 270.379 141.645 270.955 139.781C271.231 138.874 271.458 138.127 271.628 137.568C271.704 137.33 271.768 137.132 271.819 136.968C271.866 136.832 271.894 136.761 271.902 136.763C271.91 136.765 271.897 136.84 271.866 136.981C271.825 137.148 271.776 137.35 271.717 137.593C271.584 138.123 271.382 138.888 271.117 139.829C270.581 141.707 269.806 144.309 268.558 147.032C267.311 149.755 265.74 152.004 264.391 153.425C263.722 154.141 263.131 154.671 262.704 155.012C262.495 155.189 262.318 155.308 262.203 155.395C262.087 155.479 262.023 155.519 262.018 155.512Z" fill="#04242D"/>
<path d="M250.518 150.579C250.516 150.587 250.462 150.576 250.36 150.547C250.261 150.512 250.114 150.458 249.945 150.348C249.605 150.138 249.169 149.705 248.896 149.03C248.614 148.356 248.557 147.472 248.662 146.538C248.769 145.603 248.945 144.589 249.175 143.532C249.636 141.416 250.277 139.558 250.813 138.249C251.079 137.593 251.321 137.074 251.494 136.718C251.671 136.364 251.776 136.172 251.791 136.179C251.806 136.186 251.729 136.391 251.578 136.756C251.433 137.123 251.214 137.65 250.97 138.311C250.476 139.63 249.866 141.482 249.407 143.583C248.991 145.669 248.535 147.652 249.053 148.968C249.293 149.618 249.687 150.047 249.997 150.271C250.309 150.501 250.527 150.556 250.518 150.579Z" fill="#04242D"/>
<path d="M255.091 172.452C255.091 176.866 251.527 180.443 247.131 180.443C242.734 180.443 239.171 176.866 239.171 172.452C239.171 168.038 242.734 164.461 247.131 164.461C251.527 164.461 255.091 168.038 255.091 172.452Z" fill="#074F62"/>
<path d="M249.859 172.452C249.859 173.965 248.637 175.191 247.131 175.191C245.624 175.191 244.402 173.965 244.402 172.452C244.402 170.939 245.624 169.713 247.131 169.713C248.637 169.713 249.859 170.939 249.859 172.452Z" fill="#04242D"/>
<path d="M281.239 172.663C281.239 177.076 277.675 180.654 273.279 180.654C268.883 180.654 265.319 177.076 265.319 172.663C265.319 168.249 268.883 164.672 273.279 164.672C277.675 164.672 281.239 168.249 281.239 172.663Z" fill="#074F62"/>
<path d="M276.007 172.663C276.007 174.176 274.786 175.402 273.279 175.402C271.772 175.402 270.551 174.176 270.551 172.663C270.551 171.15 271.772 169.924 273.279 169.924C274.786 169.924 276.007 171.15 276.007 172.663Z" fill="#04242D"/>
<path d="M307.593 172.663C307.593 177.076 304.029 180.654 299.633 180.654C295.237 180.654 291.673 177.076 291.673 172.663C291.673 168.249 295.237 164.672 299.633 164.672C304.029 164.672 307.593 168.249 307.593 172.663Z" fill="#074F62"/>
<path d="M302.361 172.663C302.361 174.176 301.14 175.402 299.633 175.402C298.126 175.402 296.904 174.176 296.904 172.663C296.904 171.15 298.126 169.924 299.633 169.924C301.14 169.924 302.361 171.15 302.361 172.663Z" fill="#04242D"/>
<path d="M246.95 164.299C242.472 164.299 238.829 167.957 238.829 172.452C238.829 176.947 242.472 180.604 246.95 180.604H299.92C304.398 180.604 308.04 176.947 308.04 172.452C308.04 167.957 304.398 164.299 299.92 164.299H246.95ZM299.92 184.58H246.95C240.289 184.58 234.869 179.14 234.869 172.452C234.869 165.764 240.289 160.323 246.95 160.323H299.92C306.581 160.323 312 165.764 312 172.452C312 179.14 306.581 184.58 299.92 184.58Z" fill="#04242D"/>
<path d="M273.279 164.292C273.241 164.292 273.208 163.421 273.208 162.347C273.208 161.273 273.241 160.402 273.279 160.402C273.319 160.402 273.351 161.273 273.351 162.347C273.351 163.421 273.319 164.292 273.279 164.292Z" fill="#074F62"/>
<path d="M283.208 164.292C283.169 164.292 283.137 163.421 283.137 162.347C283.137 161.273 283.169 160.402 283.208 160.402C283.248 160.402 283.28 161.273 283.28 162.347C283.28 163.421 283.248 164.292 283.208 164.292Z" fill="#074F62"/>
<path d="M293.137 164.292C293.097 164.292 293.065 163.421 293.065 162.347C293.065 161.273 293.097 160.402 293.137 160.402C293.177 160.402 293.209 161.273 293.209 162.347C293.209 163.421 293.177 164.292 293.137 164.292Z" fill="#074F62"/>
<path d="M302.361 164.672C302.323 164.66 302.544 163.818 302.855 162.79C303.166 161.761 303.448 160.938 303.486 160.949C303.524 160.961 303.303 161.803 302.992 162.832C302.681 163.859 302.398 164.683 302.361 164.672Z" fill="#074F62"/>
<path d="M307.593 169.666C307.575 169.63 308.333 169.205 309.286 168.717C310.239 168.228 311.025 167.86 311.044 167.896C311.061 167.931 310.304 168.356 309.351 168.845C308.398 169.333 307.611 169.701 307.593 169.666Z" fill="#074F62"/>
<path d="M272.79 180.775C272.83 180.775 272.862 181.646 272.862 182.721C272.862 183.795 272.83 184.666 272.79 184.666C272.751 184.666 272.719 183.795 272.719 182.721C272.719 181.646 272.751 180.775 272.79 180.775Z" fill="#074F62"/>
<path d="M282.719 180.654C282.759 180.654 282.791 181.525 282.791 182.599C282.791 183.673 282.759 184.544 282.719 184.544C282.68 184.544 282.647 183.673 282.647 182.599C282.647 181.525 282.68 180.654 282.719 180.654Z" fill="#074F62"/>
<path d="M292.648 180.654C292.687 180.654 292.719 181.525 292.719 182.599C292.719 183.673 292.687 184.544 292.648 184.544C292.608 184.544 292.576 183.673 292.576 182.599C292.576 181.525 292.608 180.654 292.648 180.654Z" fill="#074F62"/>
<path d="M301.872 180.396C301.91 180.384 302.193 181.208 302.503 182.236C302.814 183.264 303.035 184.107 302.997 184.118C302.96 184.129 302.677 183.306 302.366 182.278C302.055 181.25 301.835 180.407 301.872 180.396Z" fill="#074F62"/>
<path d="M307.376 175.81C307.394 175.775 308.181 176.142 309.134 176.631C310.087 177.12 310.845 177.544 310.827 177.58C310.809 177.615 310.022 177.248 309.069 176.759C308.116 176.27 307.358 175.845 307.376 175.81Z" fill="#074F62"/>
<path d="M263.799 180.775C263.839 180.775 263.871 181.646 263.871 182.721C263.871 183.795 263.839 184.666 263.799 184.666C263.76 184.666 263.728 183.795 263.728 182.721C263.728 181.646 263.76 180.775 263.799 180.775Z" fill="#074F62"/>
<path d="M253.871 180.775C253.91 180.775 253.942 181.646 253.942 182.721C253.942 183.795 253.91 184.666 253.871 184.666C253.831 184.666 253.799 183.795 253.799 182.721C253.799 181.646 253.831 180.775 253.871 180.775Z" fill="#074F62"/>
<path d="M244.646 180.396C244.683 180.408 244.463 181.25 244.152 182.278C243.841 183.306 243.558 184.129 243.521 184.118C243.483 184.107 243.704 183.264 244.015 182.236C244.325 181.208 244.608 180.384 244.646 180.396Z" fill="#074F62"/>
<path d="M239.415 175.402C239.432 175.437 238.675 175.862 237.722 176.351C236.769 176.84 235.982 177.207 235.964 177.172C235.946 177.136 236.704 176.712 237.657 176.223C238.61 175.734 239.397 175.367 239.415 175.402Z" fill="#074F62"/>
<path d="M264.288 164.414C264.248 164.414 264.216 163.543 264.216 162.468C264.216 161.394 264.248 160.524 264.288 160.524C264.328 160.524 264.359 161.394 264.359 162.468C264.359 163.543 264.328 164.414 264.288 164.414Z" fill="#074F62"/>
<path d="M254.36 164.414C254.32 164.414 254.288 163.543 254.288 162.468C254.288 161.394 254.32 160.524 254.36 160.524C254.399 160.524 254.431 161.394 254.431 162.468C254.431 163.543 254.399 164.414 254.36 164.414Z" fill="#074F62"/>
<path d="M245.136 164.672C245.098 164.684 244.815 163.859 244.504 162.832C244.193 161.803 243.972 160.961 244.01 160.949C244.048 160.938 244.331 161.761 244.641 162.79C244.952 163.818 245.173 164.66 245.136 164.672Z" fill="#074F62"/>
<path d="M239.63 169.258C239.613 169.293 238.825 168.925 237.872 168.437C236.92 167.948 236.162 167.523 236.18 167.488C236.198 167.452 236.985 167.82 237.938 168.308C238.89 168.798 239.648 169.222 239.63 169.258Z" fill="#074F62"/>
<path d="M224.548 103.107L254.251 91.108L255.946 97.5246L227.57 109.918L224.548 103.107Z" fill="#DADBD8"/>
<path d="M277.949 93.2691L257.006 101.607L252.097 88.4013L275.817 78.432L277.949 93.2691Z" fill="#4ABD88"/>
<path d="M285.438 83.6856L298.529 78.2141L296.374 72.7786L283.666 77.9296L285.438 83.6856Z" fill="#DADBD8"/>
<path d="M285.492 83.983L285.085 83.789C285.154 83.7706 285.225 83.7532 285.298 83.7366C285.364 83.818 285.429 83.8998 285.492 83.983ZM284.939 83.7191L278.636 80.7159C278.73 80.7127 278.824 80.7108 278.918 80.7108C281.142 80.7108 283.36 81.6082 284.987 83.379C285.066 83.4649 285.143 83.5518 285.217 83.6405C285.122 83.6649 285.028 83.6916 284.939 83.7191Z" fill="#8C8F8F"/>
<path d="M285.085 83.789L284.938 83.7193C285.028 83.6917 285.122 83.6651 285.217 83.6408C285.244 83.6725 285.271 83.7046 285.297 83.7367C285.225 83.7532 285.154 83.7707 285.085 83.789Z" fill="#0C1418"/>
<path d="M278.922 97.2819C276.913 97.2819 274.91 96.55 273.342 95.1033L277.949 93.2691L276.21 81.1682C276.996 80.8942 277.815 80.7439 278.635 80.7159L284.938 83.7191L285.085 83.789L285.492 83.983C288.042 87.3439 287.671 92.1644 284.516 95.0868C282.929 96.5555 280.923 97.2819 278.922 97.2819Z" fill="#187B4E"/>
<path d="M273.342 95.1033C273.174 94.9484 273.011 94.7852 272.853 94.6137C269.763 91.2501 269.974 86.0085 273.325 82.9059C274.185 82.1088 275.17 81.5305 276.21 81.1682L277.949 93.2691L273.342 95.1033Z" fill="#187B4E"/>
<path d="M285.161 78.752C288.34 82.2122 288.123 87.6046 284.677 90.7963C281.23 93.9876 275.858 93.7702 272.679 90.3095C269.5 86.8493 269.717 81.4569 273.164 78.2656C276.611 75.0739 281.982 75.2918 285.161 78.752Z" fill="#04242D"/>
<path d="M281.292 82.3336C282.501 83.6493 282.419 85.6996 281.108 86.9132C279.798 88.1268 277.755 88.0441 276.547 86.7279C275.338 85.4127 275.42 83.362 276.731 82.1483C278.042 80.9347 280.084 81.0179 281.292 82.3336Z" fill="#074F62"/>
<path d="M254.692 86.6374C254.702 86.6282 254.824 86.7426 255.041 86.9619C255.282 87.212 255.59 87.5306 255.962 87.9167C256.768 88.7764 257.853 89.9358 259.11 91.279L258.986 91.2501C259.883 90.892 260.859 90.5017 261.876 90.0957C264.318 89.1267 266.532 88.2615 268.14 87.6469C268.916 87.3554 269.559 87.1141 270.048 86.9302C270.501 86.7661 270.754 86.6824 270.76 86.6976C270.766 86.7132 270.525 86.8258 270.082 87.0166C269.6 87.2189 268.967 87.4841 268.203 87.8041C266.61 88.4596 264.405 89.3492 261.964 90.3182C260.945 90.7205 259.967 91.1062 259.068 91.4606L258.996 91.4896L258.944 91.4321C257.712 90.0659 256.649 88.8867 255.86 88.0119C255.506 87.6073 255.215 87.2741 254.986 87.0129C254.786 86.7776 254.682 86.6461 254.692 86.6374Z" fill="#04242D"/>
<path d="M202.693 108.684L223.662 99.7491L229.636 112.166L207.9 121.576L202.693 108.684Z" fill="#4ABD88"/>
<path d="M207.62 121.187C204.978 121.187 202.466 119.626 201.372 117.029C200.235 114.326 200.968 111.301 202.986 109.407L207.743 121.186C207.702 121.186 207.661 121.187 207.62 121.187ZM209.282 120.977L211.253 120.124C210.941 120.323 210.608 120.498 210.256 120.648C209.935 120.784 209.609 120.894 209.282 120.977Z" fill="#8C8F8F"/>
<path d="M207.742 121.186L202.985 109.407C203.552 108.875 204.221 108.432 204.977 108.11C205.839 107.745 206.733 107.572 207.613 107.572C210.256 107.572 212.767 109.133 213.861 111.73C215.17 114.838 214.002 118.375 211.253 120.124L209.282 120.977C208.771 121.108 208.254 121.176 207.742 121.186Z" fill="#187B4E"/>
<path d="M202.134 108.724C205.824 107.158 210.08 108.892 211.64 112.597C213.199 116.301 211.472 120.574 207.782 122.14C204.092 123.706 199.836 121.971 198.276 118.267C196.717 114.562 198.444 110.29 202.134 108.724Z" fill="#04242D"/>
<path d="M203.884 112.881C205.287 112.286 206.905 112.945 207.498 114.354C208.091 115.763 207.434 117.387 206.031 117.983C204.628 118.578 203.01 117.919 202.417 116.51C201.824 115.101 202.48 113.477 203.884 112.881Z" fill="#074F62"/>
<path d="M216.03 118.057C216.016 118.058 215.979 117.874 215.92 117.535C215.86 117.157 215.782 116.669 215.688 116.075C215.502 114.786 215.25 113.042 214.96 111.033L214.947 110.944L215.03 110.91C215.837 110.58 216.707 110.225 217.606 109.857C220.13 108.83 222.42 107.912 224.082 107.259C224.886 106.949 225.55 106.692 226.054 106.498C226.522 106.322 226.783 106.233 226.79 106.248C226.796 106.264 226.546 106.383 226.089 106.584C225.593 106.796 224.937 107.077 224.145 107.416C222.5 108.109 220.22 109.051 217.697 110.078C216.794 110.443 215.924 110.796 215.116 111.123L215.186 111.001C215.443 113.015 215.666 114.763 215.831 116.056C215.898 116.653 215.954 117.144 215.997 117.525C216.031 117.868 216.043 118.055 216.03 118.057Z" fill="#04242D"/>
<path d="M186.484 120.686L186.338 119.827L191.524 118.936L191.671 119.795L186.484 120.686Z" fill="#04242D"/>
<path d="M201.387 114.48L198.339 115.003L198.074 113.447L196.897 113.648L197.245 115.688L195.106 116.055L195.28 117.075L195.967 121.102L198.105 120.734L198.435 122.666L199.478 122.488L199.267 121.253L202.448 120.706L201.387 114.48Z" fill="#04242D"/>
<path d="M190.415 117.911L190.964 121.132L195.83 120.296L195.28 117.075L190.415 117.911Z" fill="#074F62"/>
<path d="M159.295 87.3609C159.295 87.3609 138.235 86.6774 138.235 97.9195C138.236 110.668 142.421 134.554 159.295 134.306C176.17 134.058 179.268 100.565 179.458 99.072C179.458 99.072 180.338 88.3383 159.295 87.3609Z" fill="#4ABD88"/>
<path d="M178.952 96.1699C178.954 96.1731 178.925 96.1961 178.865 96.2379C178.794 96.2862 178.706 96.3455 178.599 96.4181C178.364 96.5767 178.007 96.7941 177.541 97.0612C176.606 97.5904 175.206 98.2877 173.387 98.918C171.571 99.551 169.338 100.109 166.819 100.449C164.3 100.797 161.504 100.927 158.576 100.906C155.648 100.869 152.855 100.805 150.328 100.488C147.804 100.181 145.566 99.5717 143.81 98.7723C142.048 97.9816 140.778 97.0396 139.981 96.3184C139.584 95.9538 139.295 95.6509 139.109 95.4366C139.025 95.3373 138.957 95.2564 138.901 95.1902C138.856 95.1337 138.834 95.1033 138.837 95.1006C138.84 95.0978 138.868 95.1227 138.92 95.1732C138.98 95.2357 139.054 95.3111 139.145 95.4035C139.341 95.6063 139.639 95.8968 140.042 96.248C140.853 96.9431 142.125 97.8542 143.878 98.6173C145.626 99.3892 147.845 99.9762 150.355 100.27C152.865 100.572 155.656 100.63 158.577 100.667C161.498 100.687 164.283 100.564 166.79 100.23C169.298 99.9041 171.521 99.3667 173.333 98.7571C175.148 98.1512 176.551 97.4814 177.496 96.9794C177.968 96.7261 178.331 96.5225 178.573 96.3772C178.685 96.3128 178.777 96.2604 178.852 96.2172C178.915 96.1823 178.949 96.1662 178.952 96.1699Z" fill="#04242D"/>
<path d="M166.223 100.415C166.231 100.414 166.241 100.523 166.253 100.73C166.266 100.937 166.275 101.243 166.273 101.637C166.266 102.423 166.229 103.573 165.924 104.956C165.772 105.647 165.543 106.392 165.206 107.154C164.869 107.914 164.43 108.702 163.818 109.42C163.219 110.143 162.457 110.793 161.57 111.305C161.123 111.555 160.643 111.763 160.138 111.924C159.63 112.076 159.097 112.168 158.552 112.193C157.46 112.23 156.393 111.947 155.498 111.447C154.597 110.951 153.851 110.276 153.262 109.544C152.067 108.072 151.56 106.394 151.315 105.013C151.079 103.617 151.082 102.468 151.105 101.683C151.117 101.289 151.138 100.983 151.156 100.777C151.175 100.571 151.188 100.463 151.196 100.463C151.205 100.464 151.207 100.573 151.204 100.779C151.202 101.011 151.2 101.31 151.197 101.684C151.203 102.467 151.226 103.608 151.481 104.983C151.745 106.344 152.26 107.981 153.432 109.405C154.01 110.114 154.739 110.765 155.609 111.241C156.476 111.721 157.497 111.988 158.544 111.954C159.066 111.93 159.58 111.842 160.07 111.697C160.556 111.542 161.022 111.341 161.456 111.1C162.317 110.607 163.062 109.978 163.651 109.277C164.25 108.583 164.686 107.817 165.025 107.073C165.364 106.328 165.599 105.597 165.76 104.918C166.082 103.557 166.145 102.416 166.181 101.634C166.191 101.262 166.199 100.961 166.205 100.731C166.209 100.524 166.215 100.415 166.223 100.415Z" fill="#04242D"/>
<path d="M171.233 126.382C171.207 126.391 171.07 125.93 170.71 125.144C170.353 124.36 169.747 123.256 168.763 122.07C167.774 120.898 166.386 119.651 164.574 118.733C162.775 117.803 160.542 117.279 158.206 117.361C155.868 117.457 153.681 118.149 151.956 119.212C150.219 120.265 148.928 121.615 148.03 122.859C147.139 124.116 146.617 125.262 146.32 126.072C146.021 126.882 145.92 127.353 145.892 127.345C145.884 127.344 145.908 127.226 145.959 127.003C146.006 126.779 146.099 126.454 146.233 126.04C146.505 125.216 147.008 124.047 147.893 122.761C148.784 121.489 150.08 120.106 151.842 119.023C153.591 117.931 155.818 117.219 158.196 117.121C160.574 117.038 162.848 117.579 164.674 118.536C166.511 119.481 167.908 120.762 168.893 121.962C169.872 123.178 170.462 124.305 170.796 125.107C170.96 125.51 171.078 125.826 171.14 126.046C171.209 126.264 171.241 126.38 171.233 126.382Z" fill="#04242D"/>
<path d="M167.959 115.202L168.928 110.83H177.439C177.137 112.125 176.712 113.637 176.23 115.246L167.959 115.202Z" fill="#FAFAF9"/>
<path d="M148.93 115.202L147.961 110.83H139.45C139.752 112.125 140.007 113.637 140.489 115.246L148.93 115.202Z" fill="#FAFAF9"/>
<path d="M139.322 93.9214C139.348 93.8777 139.376 93.8322 139.407 93.7853C139.379 93.8299 139.35 93.8759 139.322 93.9214ZM159.294 87.3609C159.29 87.3609 159.277 87.3605 159.254 87.36C159.277 87.3605 159.29 87.3609 159.294 87.3609ZM159.242 87.3595H159.241H159.242ZM159.241 87.3595C159.22 87.3591 159.192 87.3586 159.159 87.3577C159.192 87.3586 159.22 87.3591 159.241 87.3595ZM158.565 87.3531C158.575 87.3531 158.584 87.3531 158.594 87.3531C158.584 87.3531 158.575 87.3531 158.565 87.3531Z" fill="#8E7479"/>
<path d="M156.882 99.819C143.255 99.8185 138.958 94.5999 139.281 93.9945C139.294 93.9706 139.308 93.9462 139.323 93.9214C139.351 93.8759 139.379 93.8299 139.408 93.7853C139.832 93.1413 140.705 92.2274 140.705 92.2274C145.478 87.6887 155.747 87.3563 158.565 87.3531C158.575 87.3531 158.585 87.3531 158.594 87.3531C158.598 87.3531 158.602 87.3531 158.605 87.3531C158.856 87.3531 159.044 87.3559 159.16 87.3577C159.193 87.3586 159.22 87.3591 159.241 87.3596H159.242H159.242C159.247 87.36 159.251 87.36 159.255 87.36C159.278 87.3605 159.291 87.3609 159.294 87.3609C159.294 87.3609 159.294 87.3609 159.294 87.3609C170.921 87.9011 176.312 91.764 178.347 95.1006C178.347 95.1006 174.217 99.289 158.685 99.7896C158.066 99.8094 157.466 99.819 156.882 99.819Z" fill="#187B4E"/>
<path d="M137.87 75.1598C137.122 73.4819 136.762 71.5589 137.269 69.7932C137.777 68.027 139.29 66.4893 141.114 66.327" fill="#04242D"/>
<path d="M140.507 66.4346C140.529 66.4654 140.2 66.7164 139.764 67.2166C139.331 67.7131 138.767 68.4504 138.344 69.3616C137.94 70.2902 137.64 71.1655 137.457 71.8049C137.273 72.4453 137.19 72.8517 137.153 72.8457C137.124 72.8416 137.149 72.4232 137.294 71.7626C137.438 71.102 137.714 70.2107 138.127 69.2623C138.567 68.3148 139.166 67.5798 139.642 67.1003C140.12 66.6185 140.492 66.4107 140.507 66.4346Z" fill="#4ABD88"/>
<path d="M179.974 75.1598C180.722 73.4819 181.083 71.5589 180.575 69.7932C180.067 68.027 178.554 66.4893 176.73 66.327" fill="#04242D"/>
<path d="M177.337 66.4346C177.351 66.4107 177.724 66.6185 178.202 67.1003C178.678 67.5798 179.277 68.3148 179.717 69.2623C180.13 70.2107 180.406 71.102 180.55 71.7626C180.695 72.4232 180.72 72.8416 180.69 72.8457C180.654 72.8517 180.571 72.4453 180.387 71.8049C180.204 71.1655 179.904 70.2902 179.501 69.3616C179.078 68.4504 178.513 67.7131 178.08 67.2166C177.643 66.7164 177.315 66.4654 177.337 66.4346Z" fill="#4ABD88"/>
<path d="M139.556 83.4902C137.487 81.3962 136.636 78.3815 137.207 75.4885C138.421 69.3294 142.886 58.2417 159.294 58.4752C176.509 58.7202 179.739 70.6818 180.295 76.4438C180.525 78.8255 179.811 81.2027 178.29 83.0456C175.729 86.1487 170.292 90.1541 159.294 90.1504C148.4 90.1463 142.544 86.5146 139.556 83.4902Z" fill="#4ABD88"/>
<path d="M151.627 59.2048C151.635 59.202 151.668 59.2733 151.723 59.4112C151.787 59.5753 151.865 59.7748 151.959 60.0162C152.164 60.5402 152.452 61.3047 152.903 62.2002C153.357 63.0889 153.982 64.1273 154.96 65.0104C155.918 65.8843 157.275 66.6162 158.79 66.5578C160.299 66.5105 161.65 65.8094 162.645 64.9704C163.646 64.1168 164.325 63.1132 164.818 62.2462C165.31 61.3728 165.628 60.6207 165.849 60.1035C166.068 59.5845 166.184 59.2949 166.201 59.3013C166.209 59.3041 166.19 59.3799 166.146 59.522C166.102 59.6645 166.032 59.8723 165.935 60.138C165.74 60.6676 165.445 61.4335 164.965 62.328C164.485 63.2167 163.811 64.2492 162.787 65.1387C161.772 66.0103 160.379 66.7463 158.796 66.7969C158.011 66.8244 157.242 66.6502 156.57 66.3482C155.892 66.0503 155.309 65.6278 154.812 65.1736C153.813 64.2542 153.192 63.1831 152.751 62.2756C152.315 61.3594 152.051 60.5825 151.872 60.0479C151.783 59.7794 151.719 59.5698 151.678 59.4268C151.637 59.2839 151.619 59.2076 151.627 59.2048Z" fill="#04242D"/>
<path d="M170.173 82.7933C162.185 84.7539 154.389 84.8279 146.798 82.8783C143.945 82.146 141.967 79.5395 141.967 76.584V76.4728C141.967 72.8783 144.869 69.9647 148.45 69.9647H168.619C172.199 69.9647 175.102 72.8783 175.102 76.4728C175.102 79.4659 173.069 82.0821 170.173 82.7933Z" fill="#04242D"/>
<path d="M152.571 77.7241C152.443 78.529 151.689 79.077 150.887 78.9483C150.085 78.8191 149.54 78.062 149.668 77.257C149.796 76.4521 150.551 75.9041 151.352 76.0333C152.154 76.1625 152.7 76.9196 152.571 77.7241Z" fill="white"/>
<path d="M169.415 76.8695C169.286 77.6744 168.532 78.2219 167.73 78.0932C166.928 77.9641 166.383 77.2069 166.511 76.4024C166.64 75.5975 167.394 75.0495 168.195 75.1782C168.997 75.3074 169.543 76.0645 169.415 76.8695Z" fill="white"/>
<path d="M162.948 77.0575C162.974 77.0488 163.059 77.5784 162.73 78.3383C162.563 78.7097 162.287 79.1276 161.866 79.4673C161.449 79.8112 160.884 80.0456 160.276 80.0925C159.667 80.1362 159.08 79.9877 158.627 79.7091C158.171 79.4342 157.849 79.0609 157.641 78.7175C157.227 78.0128 157.252 77.4749 157.278 77.48C157.33 77.4653 157.384 77.9719 157.813 78.5957C158.029 78.9009 158.341 79.2283 158.761 79.4641C159.177 79.7031 159.707 79.8282 160.258 79.7891C160.81 79.7459 161.32 79.5432 161.706 79.2448C162.095 78.9483 162.367 78.5778 162.545 78.2431C162.899 77.5609 162.895 77.0506 162.948 77.0575Z" fill="white"/>
<path d="M22.7589 85.9354C22.7599 85.9391 22.7185 85.9561 22.6362 85.9859C22.5412 86.0181 22.4206 86.0595 22.2704 86.111C21.9493 86.2204 21.4789 86.3942 20.893 86.6617C19.7386 87.2037 18.0589 88.1328 16.5574 89.8879C15.8074 90.7559 15.1352 91.8435 14.6989 93.1215C14.2704 94.3972 14.1543 95.8738 14.4233 97.3651C14.7163 98.8398 15.3633 100.367 16.5288 101.531C17.1036 102.114 17.7969 102.593 18.5696 102.931C19.3443 103.265 20.1916 103.455 21.0585 103.514C22.8009 103.618 24.5 103.233 26.0607 102.707C27.6259 102.175 29.0701 101.471 30.4727 100.862C31.8728 100.247 33.2353 99.7105 34.5664 99.3906C35.893 99.0706 37.1911 98.9635 38.3462 99.1451C40.674 99.4664 42.3252 100.662 43.0859 101.707C43.2947 101.96 43.4199 102.225 43.5501 102.439C43.6464 102.671 43.7413 102.862 43.7925 103.026C43.8351 103.18 43.8694 103.304 43.8964 103.402C43.9182 103.487 43.9275 103.53 43.9236 103.531C43.9197 103.532 43.9025 103.49 43.8728 103.408C43.8401 103.313 43.7989 103.192 43.7474 103.042C43.6893 102.883 43.5886 102.698 43.4873 102.472C43.3521 102.265 43.2233 102.008 43.0124 101.764C42.2434 100.755 40.6112 99.6075 38.323 99.3129C37.1891 99.1451 35.9229 99.2595 34.6133 99.5832C33.3018 99.9068 31.9547 100.446 30.5611 101.064C29.1644 101.676 27.7196 102.386 26.1357 102.93C24.5584 103.464 22.8329 103.858 21.0431 103.753C20.1527 103.693 19.2776 103.496 18.4762 103.149C17.6758 102.799 16.9553 102.3 16.3628 101.696C15.1599 100.489 14.5013 98.918 14.2072 97.4051C13.9374 95.8756 14.0641 94.3632 14.5118 93.0576C14.9658 91.7544 15.66 90.652 16.4299 89.7776C17.9713 88.0096 19.6813 87.0966 20.8553 86.5767C22.0503 86.0692 22.7589 85.9354 22.7589 85.9354Z" fill="#04242D"/>
<path d="M81.4162 157.629V140.369C81.4162 135.534 77.544 131.597 72.7276 131.537L22.9639 130.914C19.6307 130.872 16.9062 133.573 16.9062 136.92V157.418L81.4162 157.629Z" fill="#4ABD88"/>
<path d="M23.0029 145.468H43.1625V136.008H23.0029V145.468Z" fill="#FAFAF9"/>
<path d="M49.4843 157.324C49.4184 157.324 49.3652 151.528 49.3652 144.381C49.3652 137.231 49.4184 131.437 49.4843 131.437C49.5502 131.437 49.6038 137.231 49.6038 144.381C49.6038 151.528 49.5502 157.324 49.4843 157.324Z" fill="#04242D"/>
<path d="M49.2816 123.59C49.2661 123.643 48.56 123.278 47.3286 123.209C46.1229 123.127 44.3341 123.452 42.9117 124.687C41.4982 125.934 40.9346 127.669 40.851 128.879C40.7521 130.113 41.0156 130.865 40.9616 130.874C40.9494 130.877 40.8779 130.696 40.7988 130.353C40.7183 130.011 40.6541 129.5 40.6827 128.867C40.7092 128.236 40.8532 127.485 41.1798 126.711C41.5036 125.938 42.0279 125.152 42.755 124.507C43.4907 123.871 44.3382 123.458 45.1442 123.241C45.9521 123.021 46.7136 122.981 47.3401 123.04C47.9679 123.098 48.4633 123.231 48.7903 123.358C49.1177 123.483 49.2871 123.579 49.2816 123.59Z" fill="#04242D"/>
<path d="M73.9762 131.652L49.4843 65.4904L31.7793 73.9278L52.5542 136.008L73.9762 131.652Z" fill="#4ABD88"/>
<path d="M68.4407 155.984C64.6638 155.984 61.0622 153.786 59.4407 150.094C57.2514 145.107 59.5039 139.282 64.4715 137.084C65.761 136.513 67.1063 136.243 68.4302 136.243C72.2071 136.243 75.8091 138.441 77.4302 142.134C79.6195 147.121 77.3674 152.945 72.3999 155.143C71.1104 155.714 69.765 155.984 68.4407 155.984Z" fill="#187B4E"/>
<path d="M57.9738 146.357C60.2263 151.488 66.1948 153.814 71.3052 151.553C76.4156 149.292 78.7323 143.3 76.4802 138.17C74.2277 133.039 68.2591 130.713 63.1487 132.974C58.0383 135.236 55.7213 141.228 57.9738 146.357Z" fill="#04242D"/>
<path d="M63.7083 143.82C64.5651 145.771 66.8345 146.656 68.7775 145.796C70.7209 144.936 71.602 142.657 70.7452 140.707C69.8889 138.756 67.6194 137.872 65.676 138.731C63.733 139.592 62.852 141.87 63.7083 143.82Z" fill="#074F62"/>
<path d="M63.503 133.782C63.4994 133.783 63.4824 133.75 63.454 133.684C63.4211 133.604 63.3808 133.507 63.3322 133.389C63.2223 133.109 63.0731 132.727 62.8844 132.245C62.4984 131.229 61.9525 129.792 61.2812 128.026C59.9432 124.438 58.106 119.513 56.0769 114.073C54.7535 110.482 53.5126 107.116 52.458 104.254L52.4209 104.155L52.5212 104.12C55.5055 103.102 57.9998 102.25 59.7705 101.646C60.6328 101.359 61.3183 101.131 61.8083 100.968C62.0313 100.898 62.2094 100.841 62.3482 100.797C62.4709 100.76 62.535 100.744 62.5368 100.749C62.5387 100.755 62.4782 100.781 62.3592 100.828C62.2232 100.88 62.0478 100.946 61.8293 101.029C61.3435 101.205 60.6644 101.451 59.8104 101.761C58.0465 102.385 55.5618 103.264 52.5885 104.316L52.6517 104.182C53.715 107.04 54.966 110.402 56.3004 113.989C58.3043 119.439 60.1176 124.372 61.4397 127.966C62.0812 129.745 62.6028 131.19 62.9714 132.213C63.1422 132.701 63.2778 133.088 63.3771 133.372C63.417 133.494 63.4499 133.594 63.4765 133.675C63.498 133.744 63.5067 133.78 63.503 133.782Z" fill="#04242D"/>
<path d="M40.7491 101.578C40.7248 101.517 45.0164 99.7514 50.3336 97.6363C55.6524 95.5198 59.983 93.8548 60.0072 93.9164C60.031 93.978 55.7403 95.7428 50.4216 97.8588C45.1044 99.9744 40.7733 101.64 40.7491 101.578Z" fill="#04242D"/>
<path d="M62.1747 152.033C62.1697 152.04 62.0992 151.992 61.9687 151.898C61.8409 151.801 61.644 151.666 61.4109 151.468C60.9333 151.085 60.273 150.491 59.5252 149.689C58.0187 148.097 56.2621 145.581 54.8677 142.535C53.4706 139.488 52.6014 136.576 51.9997 134.474C51.7016 133.421 51.4745 132.565 51.3229 131.972C51.2547 131.697 51.1993 131.471 51.1544 131.288C51.1187 131.131 51.1036 131.048 51.1114 131.046C51.1196 131.043 51.1498 131.122 51.2007 131.275C51.257 131.455 51.3271 131.677 51.4122 131.947C51.5991 132.566 51.8527 133.405 52.1614 134.426C52.8038 136.513 53.6959 139.407 55.0838 142.433C56.4695 145.46 58.1863 147.965 59.6498 149.575C60.376 150.385 61.0139 150.995 61.4709 151.397C61.9266 151.801 62.1871 152.017 62.1747 152.033Z" fill="#04242D"/>
<path d="M75.0468 146.51C75.0377 146.486 75.2813 146.427 75.6325 146.17C75.9819 145.919 76.4252 145.439 76.6958 144.711C76.9742 143.987 77.02 143.039 76.8927 142.012C76.7627 140.982 76.5584 139.85 76.3038 138.676C75.7905 136.324 75.1055 134.25 74.55 132.774C74.2748 132.034 74.0289 131.445 73.8645 131.035C73.6941 130.628 73.6067 130.398 73.6218 130.391C73.6364 130.384 73.7523 130.6 73.9497 130.997C74.1402 131.396 74.4108 131.977 74.7071 132.712C75.3051 134.178 76.0199 136.258 76.5365 138.624C76.7929 139.808 76.9912 140.942 77.1112 141.988C77.2288 143.033 77.1661 144.02 76.8529 144.772C76.5488 145.527 76.0639 146.011 75.6852 146.247C75.4965 146.37 75.3321 146.432 75.2222 146.472C75.1091 146.505 75.0491 146.517 75.0468 146.51Z" fill="#04242D"/>
<path d="M69.9287 170.994C69.9287 175.934 73.9181 179.939 78.8389 179.939C83.7598 179.939 87.7492 175.934 87.7492 170.994C87.7492 166.054 83.7598 162.049 78.8389 162.049C73.9181 162.049 69.9287 166.054 69.9287 170.994Z" fill="#074F62"/>
<path d="M75.7852 170.994C75.7852 172.687 77.1525 174.06 78.839 174.06C80.5256 174.06 81.8934 172.687 81.8934 170.994C81.8934 169.301 80.5256 167.928 78.839 167.928C77.1525 167.928 75.7852 169.301 75.7852 170.994Z" fill="#04242D"/>
<path d="M40.6582 171.23C40.6582 176.17 44.6475 180.175 49.5683 180.175C54.4891 180.175 58.4785 176.17 58.4785 171.23C58.4785 166.29 54.4891 162.285 49.5683 162.285C44.6475 162.285 40.6582 166.29 40.6582 171.23Z" fill="#074F62"/>
<path d="M46.5146 171.23C46.5146 172.923 47.882 174.296 49.5685 174.296C51.2555 174.296 52.6229 172.923 52.6229 171.23C52.6229 169.536 51.2555 168.164 49.5685 168.164C47.882 168.164 46.5146 169.536 46.5146 171.23Z" fill="#04242D"/>
<path d="M11.1592 171.23C11.1592 176.17 15.1485 180.175 20.0693 180.175C24.9902 180.175 28.9793 176.17 28.9793 171.23C28.9793 166.29 24.9902 162.285 20.0693 162.285C15.1485 162.285 11.1592 166.29 11.1592 171.23Z" fill="#074F62"/>
<path d="M17.0156 171.23C17.0156 172.923 18.383 174.296 20.0697 174.296C21.7563 174.296 23.1239 172.923 23.1239 171.23C23.1239 169.536 21.7563 168.164 20.0697 168.164C18.383 168.164 17.0156 169.536 17.0156 171.23Z" fill="#04242D"/>
<path d="M19.7486 161.868C14.7361 161.868 10.6589 165.962 10.6589 170.994C10.6589 176.026 14.7361 180.12 19.7486 180.12H79.041C84.0535 180.12 88.1312 176.026 88.1312 170.994C88.1312 165.962 84.0535 161.868 79.041 161.868H19.7486ZM6.22559 170.994C6.22559 163.508 12.2922 157.418 19.7486 157.418H79.041C86.4974 157.418 92.5644 163.508 92.5644 170.994C92.5644 178.48 86.4974 184.57 79.041 184.57H19.7486C12.2922 184.57 6.22559 178.48 6.22559 170.994Z" fill="#04242D"/>
<path d="M49.5685 161.86C49.5291 161.86 49.4971 160.885 49.4971 159.683C49.4971 158.48 49.5291 157.505 49.5685 157.505C49.6079 157.505 49.6404 158.48 49.6404 159.683C49.6404 160.885 49.6079 161.86 49.5685 161.86Z" fill="#074F62"/>
<path d="M38.4544 161.86C38.4148 161.86 38.3828 160.885 38.3828 159.683C38.3828 158.48 38.4148 157.505 38.4544 157.505C38.4939 157.505 38.5259 158.48 38.5259 159.683C38.5259 160.885 38.4939 161.86 38.4544 161.86Z" fill="#074F62"/>
<path d="M27.3411 161.86C27.3015 161.86 27.2695 160.885 27.2695 159.683C27.2695 158.48 27.3015 157.505 27.3411 157.505C27.3804 157.505 27.4124 158.48 27.4124 159.683C27.4124 160.885 27.3804 161.86 27.3411 161.86Z" fill="#074F62"/>
<path d="M17.0154 162.285C16.9774 162.296 16.6648 161.373 16.3172 160.223C15.9693 159.072 15.718 158.13 15.7557 158.118C15.7935 158.107 16.1061 159.03 16.454 160.181C16.802 161.332 17.0533 162.273 17.0154 162.285Z" fill="#074F62"/>
<path d="M11.1596 167.875C11.1417 167.91 10.2622 167.496 9.19593 166.948C8.12911 166.401 7.27907 165.929 7.29716 165.894C7.31502 165.858 8.19423 166.273 9.261 166.82C10.3275 167.368 11.1777 167.84 11.1596 167.875Z" fill="#074F62"/>
<path d="M50.1158 180.312C50.1552 180.312 50.1873 181.286 50.1873 182.489C50.1873 183.691 50.1552 184.666 50.1158 184.666C50.076 184.666 50.0439 183.691 50.0439 182.489C50.0439 181.286 50.076 180.312 50.1158 180.312Z" fill="#074F62"/>
<path d="M39.0012 180.175C39.0407 180.175 39.0728 181.15 39.0728 182.352C39.0728 183.555 39.0407 184.529 39.0012 184.529C38.9617 184.529 38.9297 183.555 38.9297 182.352C38.9297 181.15 38.9617 180.175 39.0012 180.175Z" fill="#074F62"/>
<path d="M27.888 180.175C27.9273 180.175 27.9595 181.15 27.9595 182.352C27.9595 183.555 27.9273 184.529 27.888 184.529C27.8483 184.529 27.8164 183.555 27.8164 182.352C27.8164 181.15 27.8483 180.175 27.888 180.175Z" fill="#074F62"/>
<path d="M17.562 179.886C17.5998 179.897 17.3485 180.84 17.0008 181.99C16.653 183.141 16.3404 184.064 16.3026 184.053C16.2647 184.041 16.5158 183.099 16.8637 181.949C17.2116 180.798 17.5243 179.874 17.562 179.886Z" fill="#074F62"/>
<path d="M11.4016 174.753C11.4195 174.788 10.5693 175.26 9.50305 175.807C8.43624 176.354 7.55707 176.769 7.53935 176.734C7.52108 176.699 8.37094 176.226 9.43794 175.679C10.5044 175.132 11.3837 174.717 11.4016 174.753Z" fill="#074F62"/>
<path d="M60.1798 180.312C60.2192 180.312 60.2513 181.286 60.2513 182.489C60.2513 183.691 60.2192 184.666 60.1798 184.666C60.1405 184.666 60.1084 183.691 60.1084 182.489C60.1084 181.286 60.1405 180.312 60.1798 180.312Z" fill="#074F62"/>
<path d="M71.2941 180.312C71.3335 180.312 71.3655 181.286 71.3655 182.489C71.3655 183.691 71.3335 184.666 71.2941 184.666C71.2547 184.666 71.2227 183.691 71.2227 182.489C71.2227 181.286 71.2547 180.312 71.2941 180.312Z" fill="#074F62"/>
<path d="M81.62 179.886C81.6576 179.874 81.9703 180.798 82.3179 181.949C82.6659 183.099 82.9173 184.041 82.8793 184.053C82.8413 184.064 82.529 183.141 82.181 181.99C81.8334 180.84 81.582 179.897 81.62 179.886Z" fill="#074F62"/>
<path d="M87.4759 174.296C87.4937 174.261 88.3729 174.676 89.4394 175.222C90.5059 175.77 91.3563 176.242 91.338 176.278C91.3201 176.312 90.4409 175.898 89.3744 175.351C88.3079 174.804 87.4576 174.332 87.4759 174.296Z" fill="#074F62"/>
<path d="M59.633 161.996C59.5936 161.996 59.5615 161.022 59.5615 159.82C59.5615 158.616 59.5936 157.642 59.633 157.642C59.6728 157.642 59.7049 158.616 59.7049 159.82C59.7049 161.022 59.6728 161.996 59.633 161.996Z" fill="#074F62"/>
<path d="M70.7468 161.996C70.7074 161.996 70.6758 161.022 70.6758 159.82C70.6758 158.616 70.7074 157.642 70.7468 157.642C70.7866 157.642 70.8187 158.616 70.8187 159.82C70.8187 161.022 70.7866 161.996 70.7468 161.996Z" fill="#074F62"/>
<path d="M81.0722 162.285C81.0342 162.273 81.2856 161.332 81.6336 160.181C81.9811 159.03 82.2939 158.107 82.3319 158.118C82.3695 158.13 82.1181 159.072 81.7705 160.223C81.4225 161.373 81.1102 162.296 81.0722 162.285Z" fill="#074F62"/>
<path d="M87.2337 167.419C87.2158 167.384 88.0657 166.911 89.1322 166.364C90.1987 165.816 91.0779 165.402 91.0962 165.437C91.1141 165.472 90.2642 165.945 89.1972 166.492C88.1307 167.039 87.2515 167.454 87.2337 167.419Z" fill="#074F62"/>
<path d="M60.2471 51.205C60.2471 51.205 60.2837 51.1447 60.3648 51.0344C60.4527 50.9163 60.5736 50.7549 60.7283 50.548C61.0535 50.1246 61.5283 49.4967 62.1287 48.6798C63.3266 47.0455 65.042 44.6629 66.9689 41.592C68.9082 38.5308 71.0531 34.7773 73.143 30.4639C74.1876 28.3065 75.2087 26.0075 76.201 23.5936C77.2021 21.1838 78.2086 18.6715 79.3859 16.1601C80.5664 13.6524 81.8655 11.2591 83.4064 9.1376C84.946 7.02019 86.6952 5.16297 88.6025 3.69191C90.512 2.22912 92.5731 1.1488 94.6337 0.562218C96.6903 -0.0583878 98.7294 -0.104359 100.528 0.136528C102.331 0.386608 103.9 0.968605 105.167 1.6577C106.438 2.35003 107.396 3.16876 108.095 3.90705C108.766 4.67384 109.206 5.33537 109.457 5.80748C109.574 6.03872 109.665 6.21893 109.732 6.35086C109.792 6.4736 109.817 6.53887 109.817 6.53887C109.817 6.53887 109.777 6.48096 109.71 6.36189C109.638 6.23317 109.54 6.05664 109.415 5.83139C109.152 5.36892 108.702 4.7212 108.027 3.97095C107.325 3.24876 106.368 2.44932 105.104 1.77539C103.844 1.10468 102.289 0.540619 100.505 0.304329C98.7253 0.0772324 96.7155 0.132401 94.6892 0.753002C92.6564 1.34005 90.6233 2.41393 88.7362 3.8666C86.8518 5.32801 85.1209 7.17235 83.5951 9.27551C82.0693 11.3819 80.778 13.7632 79.602 16.2626C78.4279 18.7648 77.4214 21.2734 76.4167 23.6837C75.4207 26.098 74.3923 28.4016 73.3409 30.5604C71.2358 34.8771 69.0717 38.6283 67.1109 41.683C65.1629 44.7465 63.425 47.1172 62.2028 48.7359C61.5906 49.5445 61.1038 50.1637 60.7664 50.5779C60.6038 50.7788 60.4765 50.9351 60.3835 51.0496C60.2961 51.1548 60.2471 51.205 60.2471 51.205Z" fill="#04242D"/>
<path d="M92.1545 24.8154L62.6689 49.0926L68.3751 54.5415L97.5103 31.883L92.1545 24.8154Z" fill="#DADBD8"/>
<path d="M51.3534 75.1769L72.0153 57.9902L61.0865 45.2844L37.1377 64.4491L51.3534 75.1769Z" fill="#4ABD88"/>
<path d="M37.0968 77.5443L23.911 88.1388L19.4893 82.768L32.1223 72.3919L37.0968 77.5443Z" fill="#DADBD8"/>
<path d="M124.599 14.4707L130.271 22.875L123.245 27.6537L117.573 19.2489L124.599 14.4707Z" fill="#DADBD8"/>
<path d="M129.619 21.9078L142.27 22.0885L149.289 32.4889L145.868 43.309L142.825 42.5478L144.405 35.392L139.2 29.1096L132.79 29.4663L128.418 32.5073L125.658 38.2739L130.601 45.5979L136.501 46.8451L136.437 49.698L126.713 48.8411L119.232 37.7567L122.593 26.686L130.3 21.4444" fill="#04242D"/>
<path d="M33.0294 73.332L32.9199 73.2185C33.5623 69.9812 35.8077 67.1545 39.0756 65.9119L42.762 68.6941L33.0294 73.332Z" fill="#8C8F8F"/>
<path d="M42.5619 85.0086C39.0671 85.0082 35.7722 83.122 34.0178 80.018L37.0962 77.5444L33.0293 73.332L42.7619 68.6941L51.3529 75.1769L52.3626 74.337C52.7239 78.7534 50.0684 83.0149 45.6967 84.491C44.6576 84.8417 43.601 85.0086 42.5619 85.0086Z" fill="#187B4E"/>
<path d="M51.3536 75.1769L42.7626 68.6941L39.0762 65.9119C39.193 65.8678 39.311 65.8255 39.4304 65.785C40.4696 65.4343 41.5261 65.2674 42.5652 65.2674C46.6704 65.2674 50.4996 67.8698 51.8807 71.992C52.1408 72.7689 52.2992 73.5555 52.3633 74.337L51.3536 75.1769Z" fill="#187B4E"/>
<path d="M34.0181 80.0181C33.7115 79.4756 33.4523 78.8968 33.247 78.2836C32.6799 76.5914 32.5959 74.8528 32.9202 73.2185L33.0297 73.3321L37.0965 77.5444L34.0181 80.0181Z" fill="#767A7C"/>
<path d="M32.1222 74.4298C33.9023 79.744 39.6369 82.603 44.9302 80.8156C50.2236 79.0283 53.0714 73.2714 51.291 67.9576C49.5107 62.6434 43.7762 59.7849 38.483 61.5718C33.1895 63.3592 30.3418 69.1161 32.1222 74.4298Z" fill="#04242D"/>
<path d="M38.0621 72.4241C38.7391 74.445 40.9194 75.5318 42.9323 74.8523C44.945 74.1729 46.0277 71.9837 45.3508 69.9633C44.6738 67.9429 42.4935 66.8557 40.4808 67.5351C38.4679 68.2146 37.385 70.4037 38.0621 72.4241Z" fill="#074F62"/>
<path d="M58.0159 47.7415C58.0278 47.7374 58.0952 47.9015 58.2106 48.2095C58.3333 48.5515 58.4936 48.9961 58.6895 49.5399C59.0966 50.7209 59.6512 52.3294 60.2982 54.2059L60.3229 54.2776L60.2639 54.3268C59.2926 55.14 58.2307 56.0291 57.117 56.9609C54.7945 58.8968 52.6839 60.6386 51.1485 61.8904C50.3998 62.4944 49.783 62.9918 49.3223 63.3628C49.1217 63.5187 48.9555 63.6474 48.8181 63.754C48.7014 63.8414 48.6373 63.8841 48.6322 63.8777C48.6267 63.8717 48.6803 63.8166 48.7875 63.7168C48.917 63.601 49.0741 63.4607 49.2632 63.2911C49.7115 62.9054 50.3119 62.3882 51.0409 61.7603C52.5488 60.4754 54.6424 58.7129 56.965 56.7771C58.0823 55.8494 59.1479 54.9649 60.1228 54.1563L60.0885 54.2767C59.4744 52.3892 58.9483 50.771 58.5618 49.5831C58.3905 49.0305 58.2499 48.5796 58.1423 48.2325C58.0489 47.9176 58.004 47.7457 58.0159 47.7415Z" fill="#04242D"/>
<path d="M110.465 5.09263L89.168 21.9657L98.6675 35.3363L120.898 17.9309L110.465 5.09263Z" fill="#4ABD88"/>
<path d="M117.467 20.617L118.141 20.0902L118.191 20.1645C117.956 20.3293 117.714 20.4802 117.467 20.617Z" fill="#8C8F8F"/>
<path d="M118.191 20.1637L118.141 20.0892L119.484 19.0374C119.209 19.333 118.909 19.6116 118.584 19.8704C118.455 19.9724 118.324 20.0704 118.191 20.1637Z" fill="#767A7C"/>
<path d="M120.404 17.3241L111.051 5.81299C111.87 5.54268 112.72 5.40938 113.568 5.40938C115.95 5.40938 118.31 6.46348 119.903 8.48435C121.881 10.993 122.144 14.3125 120.856 17.0165L120.404 17.3241Z" fill="#8C8F8F"/>
<path d="M120.582 17.5424L120.404 17.3245L120.856 17.0175C120.772 17.1951 120.68 17.3704 120.582 17.5424Z" fill="#767A7C"/>
<path d="M113.578 21.6209C111.195 21.6209 108.835 20.5668 107.242 18.5464C104.474 15.0361 105.065 9.9384 108.561 7.15993C109.328 6.55035 110.172 6.1026 111.05 5.81298L120.404 17.3241L120.582 17.5424C120.279 18.0738 119.913 18.5763 119.484 19.0374L118.14 20.0892L117.466 20.6169C116.249 21.2918 114.91 21.6209 113.578 21.6209Z" fill="#187B4E"/>
<path d="M110.828 4.52903C107.086 7.50196 106.454 12.9568 109.416 16.7127C112.377 20.4685 117.811 21.1029 121.553 18.1299C125.294 15.1565 125.925 9.70166 122.964 5.94585C120.002 2.19005 114.568 1.55611 110.828 4.52903Z" fill="#04242D"/>
<path d="M114.15 8.74363C112.728 9.87405 112.488 11.9482 113.614 13.3766C114.74 14.8044 116.806 15.0458 118.229 13.9153C119.651 12.7845 119.891 10.7107 118.765 9.28241C117.639 7.85456 115.573 7.61321 114.15 8.74363Z" fill="#074F62"/>
<path d="M112.583 24.4408C112.575 24.4518 112.389 24.33 112.053 24.0956C111.693 23.8381 111.213 23.4956 110.624 23.0759C109.386 22.1698 107.693 20.9309 105.739 19.5008L105.879 19.4976C105.077 20.1563 104.211 20.8675 103.315 21.6039C100.802 23.662 98.5186 25.5151 96.8582 26.8469C96.0458 27.4923 95.3782 28.0224 94.8845 28.4145C94.6661 28.5818 94.4861 28.7193 94.3401 28.8315C94.2141 28.9248 94.1454 28.9703 94.1399 28.9638C94.1349 28.9574 94.1935 28.899 94.3098 28.7938C94.4481 28.6729 94.6185 28.5239 94.8259 28.3423C95.3076 27.9355 95.9588 27.3852 96.7515 26.7159C98.3844 25.3506 100.651 23.4768 103.164 21.4182C104.063 20.6845 104.93 19.9761 105.735 19.3196L105.804 19.2626L105.875 19.316C107.809 20.7737 109.484 22.0361 110.71 22.9596C111.282 23.4018 111.748 23.7618 112.1 24.0335C112.421 24.2868 112.591 24.4298 112.583 24.4408Z" fill="#04242D"/>
</g>
<defs>
<clipPath id="clip0_1_42947">
<rect width="312" height="185" fill="white"/>
</clipPath>
</defs>
</svg>
