<svg width="301" height="182" viewBox="0 0 301 182" fill="none" xmlns="http://www.w3.org/2000/svg">
<path d="M121.186 173C110.068 173 99.0977 169.888 89.7433 163.533C85.0074 160.316 81.0578 156.549 78.6462 152.54C75.2213 146.845 72.9971 139.281 73 131.06C73.0029 122.446 75.4505 113.111 81.5234 104.452C88.1447 95.0104 98.0916 92.5379 107.325 85.6411C118.04 77.6365 127.596 66.3218 128.336 52.9513C128.37 52.3469 128.385 51.7432 128.384 51.1395C128.381 44.7244 126.635 38.3431 126.634 31.933C126.634 31.2246 126.655 30.5148 126.702 29.8056C127.671 15.2401 140.388 2.93248 154.756 0.508362C156.791 0.165375 158.838 0 160.883 0C173.275 0 185.542 6.06641 193.995 15.3014C203.843 26.0601 208.898 40.599 210.19 55.1393C210.685 60.7139 210.999 66.4215 211 72.194C211.001 91.1558 207.621 110.83 196.169 128.883C183.312 149.151 161.004 164.772 136.283 171.088C131.311 172.359 126.234 173 121.186 173ZM113.76 93.6911C112.676 95.4639 112.048 97.5399 112.048 99.9713C112.049 119.892 118.57 157.127 144.786 157.13C144.923 157.13 145.056 157.129 145.194 157.127C171.753 156.737 176.63 104.126 176.929 101.782C176.929 101.782 177.085 99.8817 176.039 97.2987C176.104 97.2532 176.135 97.2273 176.132 97.2229C176.132 97.2222 176.132 97.2215 176.13 97.2215C176.122 97.2215 176.086 97.2381 176.027 97.2691C173.944 92.1588 167.154 84.4041 145.194 83.3859C145.194 83.3859 145.194 83.3859 145.193 83.3859C145.188 83.3859 145.167 83.3852 145.131 83.3845C145.125 83.3845 145.119 83.3845 145.111 83.3838H145.111H145.11C145.077 83.383 145.034 83.3823 144.982 83.3809C144.799 83.378 144.503 83.3736 144.109 83.3736C144.103 83.3736 144.097 83.3736 144.092 83.3736C144.076 83.3736 144.061 83.3736 144.046 83.3736C139.147 83.3787 119.956 84.0149 113.894 93.4773C113.845 93.551 113.8 93.6225 113.76 93.6911Z" fill="#F0F0F0"/>
<path d="M262.551 117.32C262.551 117.32 266.304 118.956 261.731 126.928C257.157 134.898 254.07 138.803 254.07 138.803C254.07 138.803 253.236 140.665 254.814 141.041C256.392 141.418 259.928 141.035 260.539 143.029C261.172 145.096 259.606 146.935 256.544 148.462C253.482 149.99 246.894 153.584 246.299 153.911C245.716 154.233 245.104 155.088 246.137 155.517C247.171 155.947 255.02 157.176 254.215 160.88C253.411 164.583 244.183 167.431 243.18 167.762C242.177 168.093 241.921 168.499 241.973 169.045C242.026 169.591 244.703 169.754 246.92 170.196C249.139 170.638 251.633 171.54 250.991 173.638C250.348 175.736 244.755 179.926 231.658 180.543L225.57 180.429L222.525 175.106C216.697 163.315 217.628 156.371 219.142 154.788C220.656 153.205 222.654 154.956 224.116 156.687C225.578 158.419 227.021 160.687 227.522 160.469C228.023 160.25 228.253 159.827 228.053 158.786C227.854 157.745 225.849 148.264 228.682 145.76C231.516 143.255 236.4 149.543 237.276 150.242C238.153 150.94 238.6 149.987 238.595 149.319C238.592 148.638 238.519 141.112 238.361 137.683C238.203 134.253 239.044 131.986 241.151 131.537C243.183 131.104 244.568 134.393 245.663 135.595C246.758 136.796 247.973 135.16 247.973 135.16C247.973 135.16 249.872 130.554 254.59 122.668C259.307 114.782 262.624 117.359 262.624 117.359" fill="#E7E8E5"/>
<path d="M225.185 181.849C228.626 176.044 234.571 165.622 239.721 156.701C244.869 147.783 249.537 139.714 252.949 133.892C254.655 130.987 256.038 128.635 256.997 127C257.471 126.192 257.841 125.562 258.096 125.126C258.217 124.916 258.311 124.753 258.379 124.636C258.441 124.525 258.469 124.466 258.469 124.466C258.469 124.466 258.43 124.519 258.362 124.626C258.29 124.741 258.192 124.901 258.064 125.106C257.801 125.538 257.421 126.162 256.934 126.963C255.955 128.576 254.554 130.92 252.834 133.823C249.392 139.629 244.705 147.689 239.557 156.606C234.407 165.527 228.482 175.958 225.07 181.78" fill="#DADBD8"/>
<path d="M255.614 143.764C255.611 143.751 255.458 143.786 255.184 143.86C254.91 143.933 254.518 144.051 254.035 144.2C253.069 144.501 251.745 144.951 250.293 145.474C248.862 145.994 247.569 146.466 246.58 146.826C246.133 146.985 245.756 147.12 245.453 147.228C245.187 147.322 245.041 147.38 245.044 147.392C245.048 147.405 245.201 147.371 245.475 147.299C245.749 147.225 246.141 147.108 246.623 146.953C247.587 146.642 248.904 146.175 250.356 145.653C251.789 145.143 253.085 144.681 254.077 144.328C254.525 144.171 254.902 144.038 255.207 143.931C255.473 143.835 255.618 143.776 255.614 143.764Z" fill="#DADBD8"/>
<path d="M244.648 146.981C244.698 146.965 243.895 144.184 242.854 140.77C241.813 137.354 240.929 134.599 240.879 134.613C240.829 134.629 241.632 137.409 242.674 140.825C243.714 144.24 244.598 146.996 244.648 146.981Z" fill="#DADBD8"/>
<path d="M237.357 161.036C237.367 161.028 237.285 160.89 237.129 160.646C236.949 160.372 236.725 160.028 236.458 159.621C235.895 158.754 235.12 157.553 234.315 156.198C233.505 154.844 232.816 153.593 232.323 152.683C232.091 152.255 231.896 151.895 231.739 151.606C231.6 151.352 231.517 151.214 231.505 151.22C231.494 151.226 231.554 151.374 231.673 151.639C231.793 151.903 231.972 152.281 232.205 152.745C232.668 153.673 233.34 154.937 234.152 156.296C234.96 157.655 235.755 158.848 236.348 159.696C236.647 160.119 236.892 160.459 237.069 160.689C237.244 160.92 237.346 161.043 237.357 161.036Z" fill="#DADBD8"/>
<path d="M247.912 160.318C247.911 160.305 247.764 160.301 247.497 160.305C247.19 160.313 246.812 160.324 246.367 160.337C245.415 160.372 244.099 160.433 242.645 160.513C241.193 160.594 239.877 160.677 238.926 160.746C238.483 160.783 238.107 160.813 237.8 160.838C237.535 160.864 237.388 160.886 237.389 160.898C237.39 160.911 237.538 160.915 237.804 160.912C238.112 160.904 238.489 160.893 238.934 160.88C239.887 160.845 241.203 160.783 242.656 160.703C244.109 160.623 245.424 160.54 246.375 160.47C246.819 160.433 247.195 160.403 247.501 160.378C247.767 160.352 247.913 160.331 247.912 160.318Z" fill="#DADBD8"/>
<path d="M243.045 173.547C243.044 173.534 242.855 173.53 242.513 173.534C242.136 173.544 241.649 173.556 241.065 173.57C239.844 173.608 238.157 173.675 236.294 173.76C234.43 173.844 232.744 173.932 231.524 174.004C230.941 174.043 230.455 174.075 230.079 174.1C229.738 174.127 229.55 174.148 229.551 174.161C229.551 174.175 229.741 174.178 230.083 174.174C230.46 174.165 230.945 174.152 231.529 174.138C232.751 174.1 234.439 174.033 236.302 173.949C238.165 173.864 239.851 173.777 241.072 173.704C241.654 173.665 242.14 173.633 242.516 173.608C242.857 173.581 243.046 173.56 243.045 173.547Z" fill="#DADBD8"/>
<path d="M229.87 174.055C229.881 174.048 229.782 173.87 229.594 173.555C229.387 173.211 229.117 172.763 228.791 172.223C228.116 171.099 227.187 169.542 226.21 167.794C225.231 166.047 224.387 164.443 223.783 163.277C223.493 162.717 223.252 162.253 223.067 161.897C222.897 161.572 222.797 161.395 222.785 161.4C222.773 161.406 222.851 161.594 223.001 161.929C223.151 162.265 223.376 162.747 223.664 163.337C224.237 164.52 225.065 166.137 226.046 167.887C227.024 169.638 227.972 171.187 228.678 172.294C229.032 172.848 229.324 173.292 229.532 173.595C229.739 173.898 229.859 174.062 229.87 174.055Z" fill="#DADBD8"/>
<path d="M135.756 15.3983C133.396 17.8991 131.781 20.7016 132.362 24.1516C130.826 22.0575 129.267 20.5815 127.703 19.4463C126.483 21.0397 125.572 22.9134 124.592 24.764C123.762 23.768 123.011 22.8853 122.169 22.107C122.108 22.0495 122.046 21.995 121.986 21.9405C121.853 22.3137 121.703 22.6836 121.535 23.0439C119.997 26.3785 117.711 28.4706 115.675 31.1533C119.444 33.2126 123.411 34.0167 127.224 39.2097C125.635 29.7743 143.007 25.9347 139.837 18.2436L139.832 18.2449C139.428 17.1954 138.727 16.4402 137.864 15.9836L137.853 15.9846C137.236 15.6585 136.522 15.4625 135.756 15.3983Z" fill="#A4ECBB"/>
<path d="M114.384 19.7144C113.901 19.8297 113.404 19.989 112.891 20.1909L112.893 20.1958C112.718 20.2686 112.55 20.3438 112.391 20.4233C111.53 21.4536 110.64 22.462 109.877 23.7397C109.685 25.7433 111.059 27.7389 112.811 29.2185C113.748 30.0106 114.704 30.6232 115.672 31.1518C117.708 28.4699 119.995 26.3776 121.533 23.0442C121.7 22.6836 121.851 22.3128 121.984 21.939C121.247 21.2782 120.506 20.745 119.747 20.3462C119.375 21.8604 119.293 23.4651 119.581 25.1772C117.909 22.8999 116.219 21.1238 114.523 19.6808C114.478 19.6929 114.432 19.7024 114.384 19.7144Z" fill="#A4ECBB"/>
<path d="M114.522 19.6815C116.22 21.1246 117.909 22.8991 119.582 25.178C119.294 23.4651 119.377 21.8613 119.748 20.347C118.128 19.495 116.431 19.2532 114.522 19.6815Z" fill="#A4ECBB"/>
<path d="M112.392 20.4234C111.43 20.9046 110.751 21.5307 110.335 22.2458C110.072 22.7392 109.927 23.2405 109.879 23.7409C110.64 22.462 111.53 21.453 112.392 20.4234Z" fill="#A4ECBB"/>
<path d="M133.372 15.5993C132.985 15.6931 132.593 15.8149 132.2 15.9655C130.235 16.7229 128.837 17.9642 127.702 19.4465C129.265 20.5817 130.824 22.0583 132.362 24.1517C131.781 20.7018 133.394 17.8992 135.754 15.3985C135.615 15.3865 135.475 15.3791 135.332 15.3768C134.705 15.3641 134.044 15.4384 133.372 15.5993Z" fill="#A4ECBB"/>
<path d="M124.965 61.4118C124.536 61.6475 124.105 61.9281 123.671 62.2557L123.674 62.2587C122.639 63.0587 122.026 63.9526 121.781 64.8704C121.183 67.553 123.391 69.6546 125.949 70.8373C131.304 73.3093 135.973 71.6115 142.218 76.5498C138.251 68.0172 153.72 59.8484 148.71 53.3808L148.703 53.386C148.047 52.4963 147.187 51.9623 146.248 51.7538L146.238 51.7579C145.447 51.5826 144.571 51.614 143.69 51.8382C143.09 51.9884 142.485 52.2324 141.888 52.561C141.546 52.7509 141.206 52.9667 140.873 53.2118C137.417 55.7682 136.814 59.6607 135.954 63.5384C135.865 63.476 135.776 63.4145 135.687 63.3541C135.703 63.7585 135.727 64.1736 135.758 64.5951C135.19 63.6481 134.539 62.8304 133.814 62.1263C133.532 61.9574 133.25 61.7998 132.965 61.6507C130.103 60.1654 127.564 59.9787 124.965 61.4109V61.4118Z" fill="#8EDBF6"/>
<path d="M133.816 62.1276C134.54 62.8315 135.193 63.6503 135.758 64.5963C135.728 64.1749 135.705 63.7597 135.688 63.3553C135.043 62.9067 134.431 62.4946 133.816 62.1276Z" fill="#8EDBF6"/>
<path d="M152.189 113.18C152.867 109.02 156.432 105.946 160.646 105.89C178.939 105.646 225.519 105.225 228.017 107.209C231.13 109.682 232.758 110.948 232.514 114.87C232.29 118.475 228.361 180.7 228.361 180.7H141.19L152.189 113.18Z" fill="#074F62"/>
<path d="M218.434 180.733C218.429 180.733 218.42 180.67 218.409 180.55C218.396 180.413 218.382 180.235 218.362 180.01C218.326 179.519 218.276 178.823 218.211 177.935C218.143 177.034 218.072 175.93 218.033 174.647C217.987 173.365 217.905 171.904 217.904 170.288C217.895 169.48 217.885 168.633 217.875 167.751C217.868 166.87 217.897 165.952 217.908 165.002C217.915 163.101 218.02 161.073 218.109 158.937C218.351 154.672 218.756 149.987 219.41 145.097C220.087 140.209 220.947 135.585 221.854 131.409C222.338 129.326 222.78 127.344 223.28 125.509C223.524 124.591 223.741 123.699 223.984 122.851C224.229 122.003 224.464 121.19 224.689 120.413C225.122 118.855 225.591 117.469 225.977 116.245C226.359 115.019 226.721 113.975 227.028 113.124C227.327 112.285 227.562 111.628 227.728 111.164C227.807 110.953 227.869 110.784 227.916 110.657C227.96 110.543 227.985 110.486 227.99 110.487C227.994 110.489 227.978 110.549 227.943 110.667C227.902 110.796 227.848 110.967 227.78 111.182C227.626 111.651 227.408 112.313 227.13 113.159C226.839 114.013 226.491 115.062 226.124 116.292C225.752 117.519 225.297 118.907 224.876 120.467C224.657 121.244 224.428 122.058 224.189 122.906C223.952 123.754 223.74 124.647 223.502 125.565C223.011 127.4 222.579 129.382 222.102 131.462C221.21 135.636 220.359 140.254 219.683 145.135C219.031 150.016 218.618 154.692 218.363 158.952C218.266 161.083 218.154 163.108 218.136 165.006C218.121 165.955 218.086 166.871 218.088 167.752C218.092 168.633 218.096 169.478 218.099 170.286C218.088 171.9 218.155 173.359 218.186 174.642C218.212 175.924 218.266 177.027 218.318 177.929C218.361 178.817 218.394 179.514 218.418 180.007C218.426 180.232 218.432 180.411 218.437 180.547C218.439 180.67 218.439 180.732 218.434 180.733Z" fill="#17282F"/>
<path d="M169.41 137.21C169.408 137.201 169.453 137.184 169.543 137.159C169.633 137.138 169.772 137.12 169.95 137.136C170.302 137.161 170.829 137.368 171.225 137.89C171.637 138.401 171.738 139.29 171.354 140.061C171.168 140.445 170.882 140.809 170.501 141.082C170.119 141.358 169.645 141.521 169.151 141.553C168.657 141.583 168.153 141.472 167.76 141.191C167.358 140.921 167.117 140.482 167.038 140.057C166.89 139.192 167.241 138.413 167.706 137.97C168.686 137.135 169.553 137.106 169.534 137.187C169.53 137.197 169.486 137.193 169.4 137.212C169.314 137.232 169.188 137.272 169.032 137.337C168.725 137.471 168.267 137.692 167.843 138.109C167.441 138.519 167.141 139.252 167.288 140.007C167.364 140.377 167.572 140.744 167.915 140.97C168.25 141.206 168.692 141.304 169.134 141.278C169.577 141.25 170.006 141.103 170.345 140.862C170.687 140.621 170.952 140.294 171.125 139.949C171.482 139.253 171.414 138.476 171.066 138.003C170.728 137.518 170.258 137.296 169.935 137.242C169.743 137.206 169.598 137.211 169.51 137.215C169.446 137.219 169.412 137.222 169.41 137.21Z" fill="#17282F"/>
<path d="M183.084 129.306C183.082 129.329 182.919 129.313 182.623 129.297C182.221 129.275 181.572 129.254 180.743 129.331C179.315 129.455 177.326 129.969 175.521 131.232C173.717 132.497 172.554 134.192 171.949 135.491C171.331 136.798 171.179 137.697 171.125 137.682C171.11 137.679 171.134 137.454 171.223 137.054C171.311 136.655 171.481 136.084 171.772 135.409C172.341 134.066 173.508 132.306 175.363 131.006C177.217 129.708 179.271 129.213 180.727 129.137C181.461 129.093 182.055 129.129 182.46 129.182C182.866 129.236 183.087 129.29 183.084 129.306Z" fill="#17282F"/>
<path d="M157.8 145.496C157.785 145.489 157.85 145.325 158.003 145.047C158.155 144.768 158.407 144.38 158.771 143.943C159.49 143.068 160.745 142.014 162.409 141.447C164.074 140.88 165.711 140.948 166.815 141.201C167.371 141.325 167.807 141.479 168.097 141.607C168.388 141.734 168.539 141.823 168.532 141.839C168.514 141.887 167.876 141.588 166.776 141.393C165.689 141.194 164.105 141.16 162.498 141.708C160.891 142.256 159.658 143.249 158.918 144.071C158.167 144.897 157.844 145.522 157.8 145.496Z" fill="#17282F"/>
<path d="M174.669 147.662C174.65 147.688 174.286 147.467 173.772 147.014C173.259 146.563 172.609 145.861 172.041 144.98C171.475 144.096 171.107 143.213 170.911 142.558C170.713 141.902 170.662 141.48 170.695 141.473C170.78 141.447 171.152 143.105 172.273 144.831C173.375 146.567 174.728 147.595 174.669 147.662Z" fill="#17282F"/>
<path d="M198.849 137.947C198.846 137.938 198.891 137.92 198.981 137.895C199.072 137.875 199.21 137.857 199.388 137.873C199.741 137.898 200.267 138.105 200.663 138.626C201.075 139.138 201.176 140.026 200.792 140.797C200.606 141.182 200.321 141.545 199.94 141.819C199.558 142.094 199.083 142.259 198.589 142.29C198.096 142.319 197.591 142.208 197.198 141.928C196.797 141.657 196.555 141.218 196.477 140.794C196.328 139.928 196.679 139.15 197.144 138.707C198.124 137.872 198.991 137.842 198.973 137.924C198.968 137.935 198.924 137.929 198.839 137.948C198.752 137.968 198.627 138.009 198.47 138.074C198.163 138.208 197.705 138.429 197.282 138.846C196.878 139.257 196.579 139.99 196.726 140.744C196.802 141.114 197.01 141.48 197.353 141.706C197.688 141.942 198.131 142.041 198.573 142.015C199.016 141.986 199.444 141.84 199.783 141.599C200.125 141.358 200.39 141.031 200.563 140.686C200.92 139.99 200.853 139.213 200.504 138.74C200.165 138.254 199.697 138.033 199.373 137.979C199.18 137.943 199.036 137.947 198.947 137.952C198.885 137.955 198.85 137.958 198.849 137.947Z" fill="#17282F"/>
<path d="M212.523 130.043C212.52 130.066 212.358 130.05 212.061 130.034C211.659 130.012 211.01 129.99 210.182 130.067C208.754 130.192 206.764 130.705 204.959 131.969C203.155 133.234 201.993 134.928 201.388 136.227C200.77 137.534 200.618 138.433 200.564 138.419C200.548 138.416 200.573 138.191 200.662 137.791C200.749 137.392 200.919 136.82 201.21 136.147C201.78 134.804 202.946 133.043 204.801 131.743C206.656 130.444 208.709 129.95 210.166 129.873C210.899 129.83 211.493 129.865 211.899 129.919C212.305 129.972 212.525 130.026 212.523 130.043Z" fill="#17282F"/>
<path d="M187.238 146.233C187.224 146.225 187.289 146.062 187.441 145.783C187.593 145.504 187.845 145.117 188.209 144.679C188.929 143.805 190.183 142.751 191.847 142.183C193.512 141.616 195.15 141.685 196.253 141.939C196.809 142.062 197.245 142.216 197.535 142.344C197.826 142.471 197.978 142.56 197.97 142.575C197.952 142.624 197.314 142.324 196.215 142.13C195.127 141.931 193.544 141.896 191.936 142.445C190.329 142.993 189.096 143.985 188.356 144.808C187.605 145.633 187.282 146.26 187.238 146.233Z" fill="#17282F"/>
<path d="M204.107 148.399C204.087 148.425 203.725 148.204 203.211 147.751C202.697 147.299 202.047 146.598 201.479 145.716C200.914 144.832 200.546 143.949 200.349 143.295C200.151 142.639 200.101 142.217 200.133 142.21C200.219 142.183 200.59 143.842 201.711 145.567C202.814 147.303 204.167 148.332 204.107 148.399Z" fill="#17282F"/>
<path d="M235.6 93.8961C212.133 70.7116 182.917 65.182 182.917 65.182C165.546 75.5383 153.823 92.9258 144.9 113.798C159.867 127.649 179.118 140.922 195.588 142.144C221.635 135.559 235.6 93.8961 235.6 93.8961Z" fill="#349F6E"/>
<path d="M208.625 135.504C208.311 132.404 208.017 129.432 207.757 126.712C210.195 125.901 212.332 125.191 214.112 124.6C213.932 126.655 213.789 128.267 213.691 129.382C213.647 129.934 213.612 130.36 213.587 130.661C213.566 130.949 213.564 131.098 213.564 131.098C213.564 131.098 213.59 130.951 213.624 130.664C213.656 130.364 213.702 129.939 213.762 129.389C213.877 128.256 214.044 126.612 214.256 124.51L214.267 124.407L214.168 124.439C212.374 125.023 210.212 125.727 207.74 126.532C207.419 123.176 207.151 120.206 206.961 117.839C206.897 116.931 206.845 116.195 206.806 115.639C206.776 115.241 206.753 114.937 206.738 114.727C206.734 114.686 206.731 114.65 206.728 114.617C206.678 113.775 206.651 113.119 206.651 112.675C206.651 105.622 201.36 91.5154 194.602 85.3439C189.207 80.4191 173.893 77.9271 167.928 77.121C172.411 72.5035 177.377 68.4845 182.917 65.1821C182.917 65.1821 212.133 70.7117 235.599 93.8962C235.599 93.8962 232.903 101.94 227.67 111.517C227.605 111.637 227.541 111.754 227.474 111.875C222.983 120.03 216.665 129.232 208.625 135.504Z" fill="#9C2438"/>
<path d="M227.236 112.305C227.232 112.306 227.213 112.252 227.178 112.145C227.141 112.027 227.092 111.87 227.028 111.667C226.897 111.232 226.71 110.608 226.469 109.805C225.985 108.163 225.285 105.787 224.406 102.797L224.51 102.853C221.349 103.878 217.443 105.144 213.001 106.585L213.074 106.513L213.042 106.574L212.901 106.612L212.828 106.539L212.808 106.454L212.796 106.33L212.785 106.095L212.777 105.627C212.777 105.315 212.777 104.999 212.777 104.682C212.779 104.048 212.782 103.404 212.786 102.749C212.79 101.441 212.789 100.094 212.77 98.7124C212.75 97.3311 212.713 95.9153 212.633 94.472C212.548 93.0314 212.438 91.5558 212.178 90.0855L212.341 90.1919C208.993 90.9705 205.481 91.7862 201.877 92.6241C199.712 93.1257 197.581 93.6204 195.498 94.1034L195.36 94.1357L195.333 93.9959C194.389 89.0521 193.493 84.3535 192.666 80.022L192.821 80.1195C186.404 81.8494 180.636 82.6671 176.107 83.0416L176.022 83.0485L176.012 82.9648C175.573 79.3648 175.225 76.5036 174.984 74.5285C174.871 73.5566 174.784 72.8034 174.722 72.2801C174.697 72.0338 174.677 71.8416 174.661 71.7002C174.649 71.5699 174.645 71.5031 174.649 71.5026C174.653 71.5021 174.665 71.5677 174.686 71.697C174.707 71.8379 174.735 72.0285 174.771 72.2738C174.843 72.796 174.946 73.5476 175.079 74.5168C175.338 76.4887 175.714 79.3467 176.187 82.9426L176.092 82.8658C180.611 82.4616 186.36 81.6205 192.756 79.878L192.886 79.842L192.911 79.9749C193.745 84.3054 194.65 89.0018 195.602 93.944L195.437 93.837C197.519 93.3529 199.65 92.8582 201.815 92.355C205.419 91.5198 208.931 90.7062 212.28 89.9297L212.418 89.898L212.442 90.0367C212.705 91.5303 212.813 93.0107 212.895 94.4583C212.972 95.9063 213.007 97.3253 213.023 98.7087C213.04 100.093 213.037 101.442 213.028 102.75C213.023 103.405 213.018 104.049 213.012 104.683C213.012 104.999 213.011 105.314 213.01 105.625L213.016 106.088L213.026 106.315L213.035 106.42L213.038 106.443C213.028 106.455 213.067 106.435 213.012 106.46L212.947 106.49L212.923 106.476C212.838 106.423 212.857 106.437 212.857 106.437L212.797 106.408L212.93 106.365C217.38 104.949 221.292 103.703 224.46 102.695L224.542 102.669L224.565 102.751C225.413 105.749 226.088 108.133 226.554 109.78C226.777 110.589 226.951 111.216 227.072 111.655C227.127 111.859 227.168 112.019 227.2 112.139C227.228 112.248 227.24 112.304 227.236 112.305Z" fill="#349F6E"/>
<path d="M222.747 119.682C222.744 119.683 222.726 119.641 222.694 119.558C222.659 119.464 222.614 119.342 222.555 119.185C222.433 118.842 222.258 118.354 222.033 117.723C221.579 116.427 220.921 114.546 220.085 112.156L220.174 112.204C216.654 113.143 211.958 114.397 206.455 115.866L206.329 115.9L206.312 115.77C205.986 113.247 205.621 110.537 205.22 107.682C204.812 104.828 204.388 101.823 203.836 98.7331L204 98.8401C200.767 99.5911 197.405 100.373 193.958 101.174C191.647 101.71 189.375 102.237 187.157 102.751L187.019 102.783L186.992 102.644C186.048 97.6987 185.152 93.0017 184.325 88.6697L184.48 88.7666C178.063 90.497 172.295 91.3143 167.766 91.6887L167.682 91.6961L167.672 91.6125C167.232 88.0103 166.884 85.1491 166.643 83.1751C166.53 82.2032 166.443 81.45 166.381 80.9272C166.356 80.681 166.335 80.4892 166.32 80.3478C166.308 80.2175 166.304 80.1508 166.308 80.1502C166.312 80.1497 166.325 80.2154 166.345 80.3451C166.365 80.485 166.394 80.6762 166.43 80.9214C166.502 81.4431 166.604 82.1942 166.737 83.1634C166.996 85.1348 167.372 87.9928 167.846 91.5907L167.751 91.5139C172.269 91.1098 178.019 90.2687 184.415 88.5262L184.545 88.4901L184.57 88.6226C185.404 92.953 186.308 97.6489 187.261 102.592L187.096 102.485C189.313 101.97 191.585 101.442 193.896 100.905C197.343 100.106 200.706 99.3268 203.939 98.5774L204.077 98.5456L204.102 98.6844C204.651 101.785 205.07 104.79 205.471 107.647C205.866 110.505 206.222 113.216 206.54 115.741L206.397 115.644C211.908 114.206 216.611 112.979 220.137 112.059L220.204 112.042L220.226 112.107C221.034 114.508 221.67 116.396 222.107 117.697C222.317 118.333 222.479 118.826 222.593 119.171C222.644 119.331 222.683 119.456 222.713 119.551C222.739 119.636 222.75 119.68 222.747 119.682Z" fill="#FAFAF9"/>
<path d="M213.564 131.099C213.564 131.099 213.566 130.949 213.587 130.661C213.612 130.36 213.647 129.934 213.691 129.382C213.791 128.248 213.936 126.601 214.121 124.497L214.21 124.567C210.72 125.727 205.838 127.35 199.984 129.294L199.863 129.335L199.838 129.209C198.716 123.385 197.388 116.495 195.95 109.034L196.114 109.143C193.312 109.793 190.393 110.471 187.413 111.164C184.638 111.808 181.916 112.438 179.271 113.052L179.133 113.083L179.107 112.945C178.163 107.996 177.266 103.3 176.44 98.9714L176.594 99.0667C170.17 100.799 164.405 101.615 159.88 101.989L159.796 101.996L159.786 101.914C159.346 98.3072 158.998 95.4455 158.757 93.473C158.644 92.5017 158.557 91.7496 158.496 91.2273C158.47 90.9816 158.449 90.7893 158.434 90.6489C158.422 90.5186 158.417 90.4519 158.422 90.4519C158.426 90.4508 158.438 90.5165 158.458 90.6458C158.479 90.7856 158.507 90.9768 158.543 91.2215C158.614 91.7421 158.718 92.4921 158.85 93.4609C159.109 95.4317 159.485 98.2892 159.958 101.892L159.865 101.817C164.379 101.412 170.127 100.573 176.529 98.8284L176.658 98.7934L176.683 98.9248C177.517 103.251 178.421 107.946 179.374 112.894L179.209 112.786C181.855 112.172 184.576 111.54 187.35 110.895C190.331 110.205 193.251 109.527 196.052 108.878L196.19 108.846L196.216 108.986C197.638 116.448 198.95 123.34 200.059 129.166L199.914 129.081C205.779 127.171 210.671 125.577 214.168 124.439L214.267 124.407L214.256 124.51C214.044 126.612 213.877 128.256 213.762 129.389C213.702 129.939 213.656 130.364 213.624 130.664C213.59 130.951 213.564 131.099 213.564 131.099Z" fill="#349F6E"/>
<path d="M194.626 142.058C194.623 142.059 194.611 142.026 194.592 141.959C194.571 141.88 194.543 141.782 194.51 141.658C194.437 141.378 194.336 140.986 194.207 140.483C193.949 139.437 193.578 137.931 193.109 136.026C192.653 134.101 192.101 131.775 191.47 129.117C190.86 126.45 190.152 123.456 189.519 120.164L189.667 120.261C184.641 121.433 178.908 122.769 172.828 124.185L172.688 124.217L172.662 124.077C172.573 123.615 172.478 123.119 172.382 122.62C171.546 118.25 170.742 114.041 169.99 110.104L170.152 110.206C163.826 111.914 158.042 112.75 153.438 113.129L153.345 113.137L153.335 113.046C152.903 109.498 152.556 106.638 152.314 104.648C152.201 103.671 152.113 102.909 152.052 102.375C152.026 102.126 152.005 101.931 151.99 101.785C151.978 101.652 151.974 101.584 151.978 101.583C151.983 101.582 151.996 101.65 152.017 101.782C152.039 101.926 152.069 102.121 152.105 102.369C152.179 102.901 152.284 103.661 152.418 104.635C152.68 106.622 153.057 109.479 153.524 113.022L153.421 112.939C158.014 112.529 163.779 111.67 170.084 109.953L170.22 109.915L170.247 110.054C171.004 113.991 171.813 118.198 172.653 122.567C172.749 123.067 172.844 123.564 172.932 124.024L172.766 123.916C178.848 122.511 184.583 121.185 189.612 120.022L189.737 119.994L189.761 120.12C190.38 123.403 191.074 126.404 191.667 129.072C192.277 131.734 192.81 134.064 193.251 135.992C193.692 137.904 194.04 139.416 194.282 140.465C194.396 140.972 194.484 141.366 194.548 141.649C194.574 141.775 194.594 141.874 194.611 141.954C194.625 142.022 194.629 142.058 194.626 142.058Z" fill="#FAFAF9"/>
<path d="M185.678 140.165C185.661 140.169 185.592 139.909 185.481 139.431C185.364 138.908 185.213 138.222 185.028 137.389C184.655 135.652 184.15 133.227 183.593 130.479L183.758 130.587C183.25 130.705 182.717 130.83 182.175 130.956C179.073 131.676 176.262 132.313 174.223 132.76C173.237 132.971 172.422 133.144 171.806 133.276C171.234 133.392 170.916 133.447 170.911 133.428C170.907 133.41 171.217 133.319 171.782 133.171C172.393 133.018 173.201 132.816 174.179 132.57C176.206 132.074 179.011 131.407 182.113 130.687C182.655 130.562 183.189 130.439 183.696 130.321L183.834 130.289L183.862 130.43C184.409 133.177 184.88 135.606 185.205 137.351C185.357 138.19 185.482 138.882 185.577 139.409C185.659 139.894 185.695 140.161 185.678 140.165Z" fill="#349F6E"/>
<path d="M166.146 130.514C166.127 130.517 166.058 130.251 165.948 129.766C165.833 129.229 165.686 128.537 165.508 127.706C165.149 125.965 164.672 123.557 164.161 120.893C164.13 120.731 164.099 120.568 164.07 120.418L164.241 120.525C161.724 121.205 159.435 121.692 157.777 121.993C156.948 122.143 156.276 122.251 155.811 122.316C155.347 122.381 155.089 122.406 155.086 122.387C155.083 122.369 155.335 122.309 155.794 122.213C156.302 122.107 156.955 121.97 157.74 121.806C159.386 121.458 161.661 120.941 164.17 120.259L164.313 120.22L164.341 120.366C164.369 120.516 164.4 120.679 164.432 120.841C164.943 123.505 165.39 125.919 165.7 127.67C165.843 128.507 165.961 129.204 166.053 129.746C166.131 130.237 166.165 130.51 166.146 130.514Z" fill="#349F6E"/>
<path d="M146.492 115.254C146.416 115.263 146.26 114.519 146.142 113.592C146.025 112.665 145.991 111.905 146.067 111.896C146.142 111.886 146.298 112.63 146.416 113.558C146.534 114.485 146.567 115.244 146.492 115.254Z" fill="#349F6E"/>
<path d="M231.192 104.563C231.189 104.564 231.178 104.52 231.159 104.433C231.14 104.335 231.115 104.209 231.083 104.047C231.018 103.691 230.925 103.186 230.805 102.537C230.569 101.2 230.227 99.2654 229.795 96.8158L229.884 96.8798C227.66 97.2363 224.949 97.6706 221.88 98.1627L221.776 98.1791L221.758 98.0747C220.955 93.2644 219.987 87.4743 218.925 81.1174L219.087 81.2233C215.642 82.0236 211.959 82.8806 208.16 83.7635C206.273 84.201 204.414 84.6321 202.594 85.0538L202.462 85.0845L202.431 84.9542C201.248 80.1449 200.148 75.5878 199.323 71.3866L199.462 71.4856C192.943 72.4877 187.367 73.3442 183.208 73.9835L183.126 73.9962L183.116 73.9146C182.802 71.3098 182.553 69.2473 182.381 67.821C182.302 67.125 182.241 66.5848 182.198 66.2045C182.18 66.0302 182.166 65.893 182.156 65.7882C182.148 65.6949 182.146 65.6473 182.149 65.6468C182.153 65.6462 182.162 65.6928 182.178 65.7855C182.194 65.8899 182.215 66.026 182.241 66.1992C182.294 66.5779 182.37 67.1165 182.466 67.8098C182.656 69.2341 182.929 71.2939 183.275 73.8945L183.183 73.8251C187.34 73.1641 192.91 72.2775 199.424 71.2415L199.542 71.2224L199.565 71.34C200.403 75.5269 201.511 80.083 202.696 84.8874L202.532 84.7873C204.352 84.3647 206.211 83.933 208.098 83.495C211.897 82.6147 215.581 81.7609 219.026 80.9627L219.165 80.9309L219.188 81.0692C220.23 87.4319 221.178 93.2274 221.967 98.0419L221.846 97.954C224.92 97.4826 227.634 97.0668 229.859 96.7257L229.936 96.7141L229.948 96.7893C230.35 99.2442 230.668 101.183 230.887 102.523C230.99 103.176 231.068 103.682 231.125 104.04C231.148 104.203 231.166 104.331 231.18 104.43C231.192 104.517 231.196 104.562 231.192 104.563Z" fill="#FAFAF9"/>
<path d="M232.98 93.5026C232.981 93.5074 232.932 93.5259 232.833 93.5582C232.72 93.5926 232.576 93.6371 232.396 93.6927C232.014 93.8209 231.433 93.9464 230.717 94.2123C229.267 94.6821 227.211 95.5121 224.826 96.8314C222.438 98.1434 219.768 100.023 217.103 102.449C214.439 104.875 211.812 107.87 209.431 111.281C207.069 114.709 205.141 118.188 203.553 121.426C201.963 124.667 200.686 127.66 199.648 130.185C198.611 132.712 197.803 134.771 197.24 136.191C196.962 136.886 196.744 137.433 196.587 137.825C196.514 137.999 196.456 138.138 196.41 138.247C196.37 138.342 196.346 138.389 196.342 138.387C196.337 138.386 196.352 138.335 196.384 138.237C196.423 138.125 196.473 137.983 196.535 137.805C196.679 137.409 196.882 136.856 197.14 136.152C197.672 134.72 198.452 132.65 199.467 130.112C200.483 127.574 201.744 124.57 203.324 121.315C204.904 118.062 206.831 114.567 209.205 111.124C211.597 107.697 214.244 104.69 216.932 102.26C219.621 99.8314 222.318 97.9575 224.731 96.6609C227.141 95.3564 229.219 94.5502 230.684 94.1106C231.408 93.859 231.995 93.7499 232.382 93.6387C232.565 93.5942 232.711 93.5587 232.827 93.5307C232.927 93.5074 232.979 93.4978 232.98 93.5026Z" fill="#17282F"/>
<path d="M38.3079 175.349C38.1331 175.384 37.39 176.141 38.4541 177.345C39.5176 178.549 45.9343 181.836 47.1186 179.87C48.304 177.905 45.446 176.539 45.446 176.539L38.3079 175.349Z" fill="#F8A58D"/>
<path d="M45.3558 173.229C45.3558 173.229 51.977 172.497 54.6777 172.843C57.6109 173.22 60.7168 171.738 62.5611 169.717C64.4053 167.695 64.8878 165.036 64.8878 165.036L69.1007 162.088C69.1007 162.088 69.5557 152.073 62.8789 153.691L55.075 153.965C55.075 153.965 39.724 156.508 37.3464 158.421C37.3464 158.421 34.4545 161.229 33.6124 162.319C33.2946 162.729 33.0218 166.856 35.955 168.264C35.955 168.264 34.2262 170.476 35.7495 171.722L36.4667 172.266C36.4667 172.266 35.4757 174.47 36.4073 175.104C37.3395 175.735 44.7049 177.971 46.7986 176.514C48.8918 175.057 46.467 173.377 45.3558 173.229Z" fill="#F8A58D"/>
<path d="M37.1038 167.875C37.1075 167.856 37.4152 167.897 37.9709 167.969C38.5265 168.041 39.331 168.138 40.3283 168.211C40.8273 168.247 41.3739 168.275 41.9613 168.288C42.5476 168.307 43.1779 168.28 43.8505 168.333C44.5152 168.39 45.2515 168.52 45.8764 168.975C46.4707 169.416 46.9829 170.165 46.8658 171.017C46.8102 171.436 46.5698 171.802 46.2747 172.066C45.9723 172.326 45.6233 172.499 45.2732 172.622C44.5656 172.864 43.8638 172.936 43.1996 173.006C41.8649 173.118 40.6599 173.042 39.6604 172.937C38.6594 172.832 37.8575 172.698 37.3046 172.605C36.7511 172.508 36.447 172.444 36.4502 172.425C36.4529 172.406 36.7622 172.435 37.3194 172.498C37.8771 172.559 38.6816 172.664 39.6785 172.743C40.6737 172.822 41.8664 172.877 43.1763 172.752C43.8262 172.679 44.5227 172.598 45.1821 172.368C45.511 172.25 45.8293 172.088 46.0931 171.86C46.3489 171.63 46.5481 171.322 46.5936 170.976C46.6964 170.275 46.2546 169.592 45.7154 169.193C45.1657 168.785 44.4702 168.646 43.8288 168.586C43.1789 168.528 42.5465 168.545 41.9544 168.516C41.3628 168.494 40.813 168.454 40.3119 168.405C39.3109 168.308 38.5063 168.179 37.9544 168.075C37.402 167.97 37.1006 167.893 37.1038 167.875Z" fill="#F68260"/>
<path d="M36.5678 163.09C36.5715 163.07 36.8781 163.113 37.4311 163.188C37.9841 163.261 38.7849 163.366 39.7775 163.452C40.77 163.539 41.9549 163.606 43.2716 163.605C43.9231 163.615 44.6614 163.57 45.3626 163.919C45.7059 164.092 46.0078 164.394 46.1582 164.771C46.3128 165.143 46.3393 165.56 46.2673 165.957C46.12 166.768 45.5528 167.401 44.9289 167.792C44.2975 168.193 43.5867 168.38 42.9188 168.446C41.5714 168.563 40.3892 168.354 39.3956 168.283C38.438 168.186 37.6451 168.105 37.0418 168.044C36.4862 167.981 36.1801 167.937 36.1816 167.919C36.1832 167.9 36.4925 167.907 37.0503 167.937C37.6557 167.976 38.4512 168.027 39.412 168.089C40.4072 168.135 41.6005 168.321 42.8918 168.194C43.5332 168.123 44.1979 167.94 44.7837 167.564C45.3621 167.198 45.869 166.617 45.9956 165.907C46.1402 165.202 45.8558 164.448 45.2371 164.159C44.6349 163.85 43.922 163.872 43.27 163.859C41.9448 163.846 40.7531 163.758 39.7584 163.647C38.7626 163.535 37.9629 163.4 37.4136 163.294C36.8644 163.186 36.5646 163.107 36.5678 163.09Z" fill="#F68260"/>
<path d="M39.9836 163.674C39.9058 163.692 39.7209 163.111 39.3819 162.453C39.0477 161.791 38.6865 161.301 38.7469 161.248C38.7983 161.198 39.2744 161.63 39.6272 162.328C39.9847 163.023 40.0551 163.662 39.9836 163.674Z" fill="#F68260"/>
<path d="M60.2347 154.093L53.9753 153.26C53.9753 153.26 36.2833 149.653 36.1111 150.12C35.939 150.586 35.0661 150.75 35.7203 152.644C36.3744 154.539 46.584 156.224 47.0384 156.826C47.4934 157.428 47.8196 160.942 51.8275 162.554C55.8359 164.166 58.3195 163.626 58.3195 163.626" fill="#F8A58D"/>
<path d="M58.3192 163.626C58.3202 163.631 58.2747 163.644 58.1841 163.662C58.0935 163.68 57.958 163.702 57.7784 163.719C57.4204 163.753 56.8875 163.772 56.2048 163.719C55.5226 163.667 54.6916 163.537 53.7525 163.285C52.8193 163.022 51.7525 162.698 50.6752 162.089C49.599 161.49 48.5974 160.494 47.9184 159.209C47.5709 158.573 47.3284 157.849 47.0667 157.15C47.0333 157.061 46.9936 156.985 46.9512 156.918C46.92 156.872 46.8506 156.841 46.7648 156.8C46.5969 156.727 46.4115 156.669 46.2272 156.611C45.8554 156.497 45.4719 156.395 45.0837 156.293C43.5276 155.889 41.8803 155.498 40.1945 155.003C39.3518 154.755 38.498 154.482 37.6511 154.14C37.23 153.964 36.8084 153.773 36.4064 153.524C36.2051 153.401 36.0123 153.253 35.837 153.076C35.7549 152.978 35.6723 152.88 35.6193 152.751C35.56 152.628 35.5415 152.522 35.5007 152.406C35.3725 151.953 35.2698 151.458 35.4138 150.963C35.4837 150.716 35.6485 150.504 35.7978 150.335C35.873 150.249 35.9392 150.17 35.9721 150.092C35.9853 150.072 35.9599 150.101 36.0139 150.025C36.0764 149.961 36.0939 149.973 36.1172 149.962C36.1728 149.945 36.1924 149.95 36.2316 149.944C36.2957 149.941 36.3566 149.94 36.4149 149.943C37.3407 150.002 38.213 150.159 39.0822 150.294C40.8136 150.58 42.4762 150.889 44.0599 151.187C47.2251 151.789 50.0688 152.363 52.4549 152.853C53.0513 152.971 53.6206 153.106 54.1556 153.195C54.6974 153.271 55.2096 153.343 55.6895 153.411C56.6407 153.546 57.4638 153.663 58.1449 153.761C58.8017 153.859 59.3202 153.936 59.6963 153.993C59.8594 154.02 59.9918 154.042 60.0983 154.06C60.1889 154.077 60.2349 154.088 60.2344 154.093C60.2339 154.097 60.1862 154.096 60.0946 154.089C59.9871 154.077 59.8536 154.065 59.6883 154.048C59.3107 154.004 58.79 153.944 58.1296 153.867C57.4458 153.782 56.6201 153.68 55.6651 153.562C55.1836 153.502 54.6704 153.437 54.1264 153.369C53.5783 153.283 53.0163 153.157 52.4167 153.045C50.0179 152.586 47.1716 152.042 44.0127 151.438C42.4296 151.146 40.7665 150.842 39.0388 150.561C38.1775 150.428 37.2888 150.272 36.4069 150.217C36.3524 150.215 36.2999 150.215 36.2507 150.218L36.1972 150.225L36.1839 150.206L36.158 150.143L36.1347 150.128C36.3444 150.207 36.1898 150.157 36.2353 150.178L36.2242 150.201C36.1659 150.334 36.0796 150.429 36.0065 150.514C35.8566 150.686 35.7343 150.847 35.6771 151.045C35.5589 151.441 35.6405 151.899 35.7655 152.329C35.8354 152.56 35.8894 152.738 36.0399 152.888C36.1892 153.039 36.3624 153.175 36.5531 153.29C36.9313 153.525 37.3428 153.713 37.7554 153.886C38.587 154.223 39.4334 154.496 40.2713 154.744C41.9471 155.241 43.5895 155.636 45.1483 156.048C45.5381 156.152 45.9227 156.256 46.3014 156.373C46.4904 156.435 46.6769 156.494 46.8644 156.576C46.9502 156.617 47.0688 156.665 47.1504 156.777C47.2118 156.872 47.2569 156.967 47.2902 157.057C47.5598 157.786 47.7849 158.476 48.1207 159.102C48.7727 160.355 49.7309 161.325 50.7743 161.921C51.814 162.524 52.8743 162.862 53.7933 163.137C54.7202 163.4 55.5401 163.544 56.2149 163.612C56.8896 163.681 57.4177 163.679 57.7747 163.663C57.9532 163.656 58.0888 163.643 58.1799 163.634C58.2715 163.626 58.3181 163.621 58.3192 163.626Z" fill="#F68260"/>
<path d="M43.4278 172.915C43.4289 172.9 43.662 172.889 44.0793 172.947C44.4951 173.004 45.0978 173.139 45.7875 173.454C46.1296 173.616 46.4972 173.807 46.8563 174.087C47.2011 174.362 47.5793 174.756 47.6402 175.315C47.7021 175.878 47.3388 176.422 46.8547 176.716C46.3568 177.028 45.7498 177.083 45.1752 177.063C42.8871 176.926 40.8437 176.588 39.3919 176.212C38.6668 176.024 38.09 175.837 37.6981 175.69C37.3056 175.545 37.0959 175.447 37.1017 175.431C37.1086 175.411 37.3305 175.475 37.7314 175.588C38.1313 175.703 38.7124 175.86 39.4374 176.022C40.885 176.347 42.9268 176.652 45.1842 176.787C45.7361 176.808 46.289 176.75 46.7122 176.486C47.1375 176.23 47.4315 175.78 47.387 175.339C47.3499 174.893 47.0327 174.53 46.7122 174.265C46.3854 173.997 46.0279 173.797 45.7032 173.63C44.3733 172.981 43.4141 172.973 43.4278 172.915Z" fill="#F68260"/>
<path d="M89.4804 136.756C89.4804 136.756 97.3251 123.843 99.0889 115.321C100.852 106.797 109.962 93.2785 112.901 89.7521C115.84 86.2257 127.595 82.1108 127.595 82.1108L131.93 79.7734L165.506 76.8211C165.506 76.8211 187.841 79.1728 194.601 85.3438C201.36 91.5153 206.65 105.622 206.65 112.675C206.65 119.728 213.476 180.809 213.476 180.809L130.736 180.7L132.591 150.586C132.591 150.586 122.599 143.827 119.954 137.949C117.309 132.072 118.779 135.01 118.779 135.01C118.779 135.01 109.399 154.951 106.166 157.302C102.933 159.653 65.359 171.185 65.359 171.185L60.2129 151.466L89.4804 136.756Z" fill="#349F6E"/>
<path d="M56.8825 72.3202C56.2662 72.655 55.6436 73.0584 55.0163 73.5226L55.0212 73.5299C53.5248 74.6763 52.6327 75.9665 52.2748 77.2918C51.3957 81.1752 54.5602 84.2482 58.2382 85.9944C65.9344 89.6478 72.6758 87.2397 81.6415 94.4758C75.9824 82.0582 98.3317 70.401 91.1539 60.9612L91.1465 60.9689C90.2072 59.6683 88.9702 58.8863 87.6219 58.5731L87.6056 58.5832C86.4659 58.3136 85.2102 58.3531 83.9339 58.6634C83.0666 58.8814 82.1921 59.225 81.3299 59.6927C80.8362 59.963 80.3464 60.2724 79.8664 60.6253C74.8649 64.289 73.9716 69.9239 72.7071 75.5367C71.2025 74.4661 69.8502 73.5272 68.4091 72.7645C64.302 70.5774 60.6404 70.2737 56.8825 72.3202Z" fill="#FBB6BA"/>
<path d="M187.167 87.8061C186.261 88.0879 175.055 117.033 174.265 119.666C173.475 122.299 174.265 138.888 174.265 138.888L177.952 145.734C177.952 145.734 176.898 150.736 177.688 153.106L161.1 156.265C161.1 156.265 156.887 153.37 152.938 156.265L133.368 157.92C133.368 157.92 139.113 157.986 137.403 166.798C135.726 175.43 134.452 177.328 134.452 177.328L203.229 175.758C203.229 175.758 210.869 175.381 209.704 160.687C208.54 145.993 205.261 105.467 205.261 105.467C205.261 105.467 200.247 83.7495 187.167 87.8061Z" fill="#349F6E"/>
<path d="M174.109 136.573C174.1 136.577 174.045 136.454 173.947 136.217C173.841 135.954 173.703 135.607 173.529 135.175C173.348 134.722 173.132 134.166 172.92 133.506C172.705 132.847 172.429 132.106 172.203 131.263C171.961 130.425 171.693 129.507 171.471 128.505C171.213 127.511 171.015 126.432 170.799 125.299C170.411 123.024 170.103 120.5 169.993 117.837C169.899 115.172 170.006 112.632 170.22 110.333C170.356 109.187 170.466 108.095 170.652 107.084C170.739 106.579 170.807 106.088 170.902 105.621C171 105.155 171.094 104.708 171.185 104.28C171.349 103.424 171.57 102.665 171.741 101.993C171.908 101.32 172.082 100.75 172.235 100.286C172.38 99.8431 172.494 99.4882 172.582 99.2181C172.664 98.975 172.712 98.8494 172.721 98.8521C172.73 98.8553 172.7 98.9871 172.635 99.235C172.56 99.5083 172.462 99.868 172.338 100.317C172.202 100.783 172.042 101.357 171.891 102.032C171.734 102.704 171.527 103.464 171.375 104.321C171.291 104.748 171.203 105.195 171.111 105.659C171.022 106.125 170.96 106.616 170.878 107.12C170.703 108.128 170.602 109.215 170.473 110.358C170.274 112.646 170.175 115.174 170.268 117.826C170.377 120.476 170.677 122.988 171.049 125.255C171.258 126.384 171.447 127.461 171.693 128.453C171.905 129.453 172.161 130.371 172.391 131.21C172.604 132.053 172.866 132.795 173.066 133.457C173.264 134.119 173.464 134.68 173.631 135.138C173.783 135.577 173.905 135.929 173.999 136.197C174.08 136.44 174.119 136.57 174.109 136.573Z" fill="#17282F"/>
<path d="M198.039 167.964C198.031 167.969 197.971 167.899 197.863 167.762C197.738 167.598 197.586 167.397 197.403 167.154C197.208 166.886 196.967 166.562 196.667 166.2C196.37 165.837 196.048 165.409 195.649 164.973C195.263 164.526 194.837 164.04 194.347 163.546C193.878 163.035 193.332 162.532 192.768 161.993C191.614 160.943 190.287 159.853 188.81 158.822C187.324 157.803 185.835 156.946 184.445 156.236C183.742 155.899 183.078 155.566 182.434 155.306C181.8 155.022 181.194 154.796 180.639 154.591C180.091 154.372 179.577 154.223 179.133 154.073C178.688 153.92 178.299 153.808 177.981 153.721C177.688 153.635 177.447 153.563 177.249 153.504C177.082 153.452 176.996 153.42 176.998 153.411C177 153.402 177.091 153.415 177.262 153.451C177.464 153.496 177.71 153.55 178.008 153.617C178.332 153.688 178.727 153.785 179.178 153.925C179.628 154.062 180.149 154.199 180.705 154.408C181.267 154.602 181.88 154.819 182.522 155.095C183.174 155.348 183.846 155.675 184.558 156.009C185.964 156.711 187.469 157.568 188.967 158.595C190.455 159.634 191.788 160.739 192.941 161.807C193.504 162.355 194.048 162.868 194.514 163.389C194.999 163.892 195.419 164.389 195.798 164.847C196.19 165.293 196.501 165.732 196.789 166.106C197.079 166.478 197.309 166.813 197.49 167.092C197.657 167.347 197.795 167.558 197.909 167.731C198.002 167.879 198.047 167.958 198.039 167.964Z" fill="#17282F"/>
<path d="M203.83 164.103C203.79 164.14 203.181 163.446 202.035 162.512C201.465 162.042 200.743 161.535 199.909 161.029C199.067 160.538 198.106 160.055 197.056 159.65C196 159.256 194.961 158.98 194.005 158.789C193.044 158.615 192.169 158.515 191.43 158.49C189.952 158.427 189.037 158.543 189.031 158.489C189.029 158.47 189.256 158.433 189.67 158.38C189.877 158.352 190.131 158.324 190.428 158.316C190.724 158.305 191.062 158.277 191.436 158.295C192.184 158.296 193.074 158.376 194.051 158.539C195.024 158.719 196.082 158.992 197.154 159.392C198.221 159.803 199.193 160.301 200.041 160.811C200.88 161.337 201.599 161.867 202.159 162.363C202.451 162.597 202.685 162.842 202.9 163.047C203.117 163.25 203.288 163.439 203.424 163.598C203.699 163.912 203.845 164.091 203.83 164.103Z" fill="#17282F"/>
<path d="M197.471 154.424C197.436 154.474 196.625 153.828 195.143 153.096C194.771 152.915 194.363 152.721 193.906 152.556C193.46 152.364 192.961 152.222 192.441 152.056C191.39 151.768 190.211 151.539 188.955 151.444C187.697 151.366 186.497 151.433 185.416 151.575C184.879 151.668 184.365 151.741 183.897 151.87C183.421 151.971 182.991 152.109 182.598 152.237C181.03 152.76 180.139 153.289 180.111 153.235C180.102 153.218 180.321 153.085 180.729 152.858C180.932 152.74 181.184 152.606 181.49 152.478C181.795 152.348 182.135 152.178 182.534 152.052C182.928 151.911 183.362 151.761 183.841 151.648C184.314 151.508 184.834 151.425 185.379 151.324C186.474 151.165 187.696 151.09 188.974 151.169C190.25 151.264 191.449 151.506 192.512 151.813C193.038 151.987 193.543 152.139 193.991 152.343C194.451 152.52 194.86 152.728 195.231 152.922C195.61 153.101 195.923 153.315 196.207 153.486C196.494 153.654 196.725 153.821 196.91 153.966C197.282 154.247 197.483 154.408 197.471 154.424Z" fill="#17282F"/>
<path d="M157.246 176.132C157.185 176.115 157.591 175.027 157.735 173.185C157.825 172.267 157.802 171.166 157.709 169.951C157.595 168.737 157.363 167.413 157.018 166.049C156.655 164.688 156.184 163.429 155.699 162.31C155.171 161.213 154.659 160.236 154.125 159.484C153.093 157.952 152.212 157.196 152.259 157.15C152.271 157.137 152.486 157.327 152.864 157.686C153.062 157.858 153.273 158.096 153.511 158.381C153.632 158.524 153.761 158.675 153.896 158.834C154.024 158.999 154.148 159.184 154.284 159.373C154.847 160.121 155.384 161.098 155.93 162.204C156.434 163.33 156.917 164.602 157.284 165.979C157.634 167.359 157.862 168.7 157.962 169.929C158.042 171.16 158.046 172.276 157.929 173.203C157.904 173.433 157.879 173.654 157.856 173.865C157.815 174.069 157.777 174.264 157.741 174.447C157.669 174.811 157.608 175.124 157.517 175.37C157.36 175.868 157.264 176.138 157.246 176.132Z" fill="#17282F"/>
<path d="M145.716 156.255C145.712 156.255 145.7 156.203 145.683 156.102C145.664 155.985 145.64 155.835 145.611 155.649C145.551 155.231 145.467 154.648 145.361 153.905C145.147 152.391 144.863 150.195 144.537 147.479C143.885 142.048 143.107 134.528 142.498 126.202C141.893 117.874 141.572 110.32 141.43 104.851C141.358 102.117 141.32 99.9039 141.312 98.3743C141.31 97.6248 141.309 97.0353 141.308 96.6127C141.309 96.4246 141.311 96.2737 141.313 96.1545C141.316 96.0518 141.319 95.9988 141.324 95.9983C141.329 95.9983 141.335 96.0513 141.341 96.1545C141.347 96.2732 141.354 96.4236 141.363 96.6116C141.376 97.0338 141.396 97.6233 141.42 98.3722C141.469 99.9204 141.539 102.127 141.625 104.845C141.817 110.311 142.168 117.859 142.773 126.182C143.382 134.503 144.129 142.022 144.731 147.457C145.04 150.159 145.291 152.352 145.467 153.892C145.551 154.637 145.618 155.222 145.666 155.642C145.684 155.829 145.699 155.98 145.711 156.098C145.719 156.201 145.721 156.254 145.716 156.255Z" fill="#17282F"/>
<path d="M118.699 135.39C118.681 135.397 118.554 135.108 118.338 134.58C118.128 134.052 117.811 133.291 117.413 132.356C116.617 130.485 115.43 127.937 114.013 125.174C112.593 122.436 111.308 119.959 110.35 118.111C109.888 117.203 109.521 116.466 109.278 115.95C109.034 115.435 108.906 115.147 108.923 115.138C108.94 115.129 109.1 115.402 109.374 115.901C109.668 116.443 110.055 117.157 110.522 118.021C111.487 119.814 112.839 122.281 114.259 125.049C115.678 127.816 116.841 130.385 117.593 132.281C117.969 133.229 118.259 134.002 118.439 134.543C118.623 135.083 118.716 135.384 118.699 135.39Z" fill="#17282F"/>
<path d="M114.47 125.603C114.465 125.622 114.295 125.588 113.99 125.512C113.686 125.437 113.251 125.309 112.719 125.135C111.653 124.789 110.205 124.231 108.67 123.472C107.136 122.711 105.814 121.897 104.892 121.26C104.432 120.941 104.066 120.673 103.823 120.476C103.577 120.281 103.448 120.165 103.459 120.151C103.484 120.116 104.055 120.505 104.999 121.097C105.943 121.689 107.271 122.469 108.793 123.225C110.316 123.977 111.74 124.559 112.783 124.951C113.827 125.344 114.482 125.563 114.47 125.603Z" fill="#17282F"/>
<path d="M107.368 143.693C107.357 143.707 107.155 143.583 106.8 143.346C106.448 143.105 105.928 142.771 105.278 142.375C103.978 141.581 102.112 140.592 99.9371 139.775C97.7592 138.962 95.7036 138.482 94.202 138.228C93.4515 138.099 92.8397 138.01 92.416 137.96C91.9928 137.905 91.7587 137.867 91.7598 137.848C91.7614 137.829 91.9981 137.832 92.4261 137.853C92.8546 137.87 93.4727 137.93 94.2322 138.035C95.7512 138.242 97.8354 138.696 100.034 139.516C102.23 140.342 104.1 141.368 105.381 142.209C106.023 142.63 106.528 142.99 106.862 143.259C107.2 143.524 107.38 143.677 107.368 143.693Z" fill="#17282F"/>
<path d="M164.634 76.8675C164.643 76.8691 164.633 77.0168 164.603 77.2986C164.568 77.6048 164.522 78.0136 164.463 78.5269C164.325 79.592 164.135 81.1344 163.811 83.0289C163.486 84.9214 163.045 87.1724 162.327 89.6152C161.591 92.0463 160.572 94.6871 158.997 97.1807C158.182 98.4953 157.215 99.6579 156.236 100.718L156.128 100.835L156.03 100.705C154.608 98.8057 152.8 97.4085 151.003 96.5351C150.112 96.0764 149.204 95.7952 148.356 95.56C147.498 95.3709 146.688 95.2438 145.946 95.2364C144.463 95.1998 143.284 95.4556 142.513 95.7194C141.742 95.989 141.337 96.1897 141.326 96.1643C141.323 96.1564 141.421 96.1039 141.615 96.0102C141.812 95.9265 142.088 95.7565 142.481 95.6304C143.251 95.3359 144.442 95.0483 145.95 95.0616C146.705 95.0584 147.53 95.1749 148.405 95.3577C149.268 95.587 150.195 95.8645 151.106 96.3243C152.941 97.1982 154.79 98.6092 156.247 100.545L156.042 100.531C157.005 99.481 157.959 98.3322 158.764 97.0329C160.321 94.5685 161.339 91.9546 162.084 89.5426C162.811 87.1184 163.271 84.879 163.619 82.9945C163.967 81.1095 164.187 79.5714 164.357 78.5126C164.437 78.002 164.501 77.5952 164.548 77.2912C164.595 77.0121 164.624 76.8664 164.634 76.8675Z" fill="#17282F"/>
<path d="M165.085 77.2006L159.983 70.4385L154.439 70.6128L136.421 80.1317L165.085 77.2006Z" fill="#349F6E"/>
<path d="M141.326 96.1643C141.325 96.1733 141.224 96.1707 141.033 96.1574C140.842 96.1394 140.559 96.105 140.203 96.0208C139.486 95.8677 138.487 95.4652 137.357 94.8052C136.795 94.4684 136.168 94.1564 135.422 94.0033C134.687 93.8444 133.863 93.8211 133.033 93.9996C131.379 94.3338 129.724 95.6235 129.034 97.4773L128.745 98.2538L128.767 97.4254C128.773 97.2199 128.778 96.999 128.784 96.7771C128.849 92.6072 128.853 88.8207 129.023 86.0861C129.099 84.7185 129.21 83.6136 129.321 82.8557C129.371 82.4754 129.429 82.1825 129.472 81.9855C129.513 81.7879 129.539 81.6852 129.548 81.6868C129.575 81.6915 129.5 82.1084 129.428 82.8684C129.349 83.6279 129.269 84.7307 129.218 86.0961C129.098 88.827 129.125 92.604 129.06 96.784C129.054 97.007 129.048 97.2278 129.042 97.4344L128.775 97.382C129.504 95.4318 131.243 94.0918 132.982 93.7544C134.733 93.3868 136.375 93.9101 137.453 94.64C138.566 95.3179 139.528 95.7363 140.229 95.9196C140.926 96.114 141.33 96.1362 141.326 96.1643Z" fill="#17282F"/>
<path d="M159.982 37.6843L159.983 78.2917C159.983 80.6111 159.163 82.8573 157.668 84.6317C155.376 87.3525 152.614 89.6401 149.514 91.3863L141.323 95.9985L134.548 89.9499C132.555 88.1708 131.374 85.6576 131.268 82.9881C131.151 80.03 131.151 77.0497 131.151 77.0497C131.151 77.0497 119.671 76.2255 118.594 64.9058C118.087 59.5759 117.926 48.6587 117.898 38.599C117.866 27.1209 126.668 17.5485 138.106 16.6015L138.43 16.575C150.276 16.2879 160.023 25.8344 159.982 37.6843Z" fill="#F8A58D"/>
<path d="M131.119 76.888C131.119 76.888 138.329 76.878 145.545 71.4665C145.545 71.4665 142.728 79.9108 131.336 79.826L131.119 76.888Z" fill="#F68260"/>
<path d="M121.713 46.2069C121.753 47.0639 122.512 47.7365 123.409 47.7106C124.303 47.6841 124.996 46.9707 124.955 46.1131C124.915 45.2562 124.156 44.5825 123.262 44.6084C122.366 44.6344 121.672 45.3499 121.713 46.2069Z" fill="#17282F"/>
<path d="M120.791 43.1661C121.009 43.3605 122.16 42.3521 123.902 42.2122C125.64 42.048 126.992 42.8383 127.163 42.6089C127.248 42.5072 127.012 42.1434 126.423 41.7837C125.841 41.4262 124.874 41.1111 123.79 41.2054C122.706 41.3012 121.826 41.7758 121.336 42.2281C120.834 42.6831 120.684 43.0798 120.791 43.1661Z" fill="#17282F"/>
<path d="M138.281 45.5051C138.321 46.3621 139.08 47.0342 139.976 47.0088C140.87 46.9829 141.564 46.2689 141.524 45.4114C141.483 44.5544 140.724 43.8812 139.829 43.9072C138.934 43.9326 138.24 44.6482 138.281 45.5051Z" fill="#17282F"/>
<path d="M137.934 42.074C138.153 42.2684 139.306 41.26 141.046 41.1207C142.784 40.9565 144.136 41.7462 144.308 41.5174C144.392 41.4151 144.158 41.0513 143.566 40.6922C142.985 40.3341 142.018 40.019 140.934 40.1133C139.85 40.2091 138.97 40.6842 138.48 41.136C137.979 41.5915 137.828 41.9882 137.934 42.074Z" fill="#17282F"/>
<path d="M132.684 55.5113C132.684 55.4118 131.586 55.3143 129.813 55.2354C129.365 55.2264 128.937 55.1729 128.837 54.8758C128.706 54.5627 128.852 54.068 129.024 53.5326C129.353 52.4224 129.698 51.2582 130.059 50.0379C131.487 45.0661 132.48 40.993 132.28 40.9369C132.079 40.8813 130.759 44.8659 129.332 49.8382C128.991 51.0633 128.664 52.2312 128.354 53.3488C128.228 53.8678 127.986 54.4648 128.268 55.113C128.415 55.4351 128.761 55.6496 129.053 55.7026C129.345 55.7656 129.595 55.7497 129.816 55.7449C131.59 55.6941 132.685 55.6109 132.684 55.5113Z" fill="#17282F"/>
<path d="M137.909 56.2921C137.624 56.2989 137.778 58.1893 136.271 59.6649C134.767 61.1447 132.734 61.0992 132.742 61.3645C132.725 61.4853 133.22 61.6945 134.073 61.6474C134.909 61.6071 136.105 61.238 137.028 60.3354C137.947 59.4308 138.28 58.2984 138.28 57.5171C138.287 56.7211 138.038 56.2703 137.909 56.2921Z" fill="#17282F"/>
<path d="M136.92 35.2871C137.131 35.7463 138.851 35.3782 140.914 35.4555C142.98 35.491 144.677 35.9529 144.912 35.5058C145.016 35.2924 144.693 34.8708 143.988 34.4677C143.291 34.0646 142.2 33.7167 140.963 33.6817C139.725 33.6494 138.618 33.937 137.899 34.3009C137.175 34.6653 136.828 35.0689 136.92 35.2871Z" fill="#17282F"/>
<path d="M121.014 38.0736C121.353 38.4438 122.519 37.9338 123.96 37.7955C125.396 37.6059 126.645 37.8406 126.893 37.4036C126.999 37.1923 126.774 36.812 126.209 36.482C125.653 36.152 124.748 35.9206 123.759 36.0323C122.77 36.1457 121.941 36.5752 121.473 37.0217C120.997 37.4703 120.863 37.8919 121.014 38.0736Z" fill="#17282F"/>
<path d="M146.651 26.2766L146.718 26.3206C148.64 27.5965 150.003 29.5599 150.508 31.8109C150.526 31.8898 150.543 31.9656 150.559 32.0366C151.269 35.232 151.461 38.5269 152.203 41.7149C152.945 44.9029 152.808 47.3398 156.002 48.058C158.016 48.5114 159.73 47.3907 160.448 46.2519C160.726 45.8112 160.732 45.2583 160.729 44.7371C160.687 36.8829 162.267 33.8331 161.577 25.6733C161.389 23.4525 160.171 21.4546 158.258 20.3101C156.448 19.2274 154.257 18.1305 152.433 19.1861C150.604 20.2449 148.443 24.0007 147.095 25.6288" fill="#17282F"/>
<path d="M156.587 43.1275C156.773 43.0279 164.183 40.18 164.576 47.9479C164.97 55.7152 157.09 54.5087 157.065 54.2862C157.041 54.0643 156.587 43.1275 156.587 43.1275Z" fill="#F8A58D"/>
<path d="M159.29 51.2233C159.322 51.1968 159.429 51.3112 159.664 51.4044C159.892 51.495 160.279 51.5458 160.676 51.3742C161.481 51.031 162.106 49.6931 162.073 48.2917C162.057 47.5835 161.875 46.9177 161.596 46.3732C161.33 45.8171 160.943 45.4389 160.526 45.3865C160.11 45.3118 159.83 45.5745 159.746 45.7975C159.653 46.02 159.71 46.1725 159.669 46.1879C159.649 46.2085 159.496 46.0666 159.542 45.7424C159.567 45.5867 159.648 45.3987 159.823 45.2403C160.002 45.0788 160.272 44.9882 160.562 45.0046C161.163 45.0158 161.73 45.5396 162.036 46.1376C162.376 46.7361 162.597 47.4834 162.615 48.2784C162.645 49.8462 161.918 51.3515 160.811 51.7328C160.272 51.9028 159.808 51.7614 159.563 51.5898C159.313 51.4108 159.263 51.2386 159.29 51.2233Z" fill="#F68260"/>
<path d="M152.795 20.3631C154.445 17.1068 148.851 13.0883 144.928 12.1995C141.004 11.3108 136.122 13.5909 132.421 15.1682C130.086 16.1634 127.785 17.4722 125.25 17.5771C123.549 17.6475 121.881 17.165 120.235 16.7318C118.589 16.299 116.88 15.9081 115.198 16.164C113.516 16.4193 111.847 17.4637 111.336 19.0866C110.823 20.71 111.921 22.7846 113.62 22.8794C111.379 21.8784 108.405 23.6834 108.258 26.1342C108.109 28.5843 110.843 30.7342 113.19 30.0139C112.019 29.2702 110.444 30.7893 110.694 32.1531C110.944 33.5175 112.274 34.4153 113.586 34.866C116.933 36.0175 120.663 35.2532 123.914 33.8507C127.165 32.4487 130.12 30.4386 133.336 28.9556C136.55 27.4731 141.924 24.845 145.348 25.7427C147.869 26.4037 149.819 29.2136 151.148 28.4482C152.433 27.7077 153.165 26.2369 153.312 24.7613C153.459 23.2857 153.126 21.809 152.795 20.3631Z" fill="#17282F"/>
<path d="M112.668 22.7433C112.729 22.6993 113.114 23.2835 114.021 24.1182C114.928 24.9381 116.43 25.99 118.555 26.5329C120.643 27.0732 123.421 27.0742 125.918 25.623C128.457 24.2252 130.515 21.676 132.926 19.2359C135.328 16.7762 138.248 14.862 141.287 14.3324C144.307 13.7905 147.212 14.674 148.908 16.2847C150.616 17.9112 151.093 19.8874 151.08 21.1469C151.076 21.791 150.954 22.2782 150.864 22.5987C150.749 22.9143 150.674 23.0717 150.65 23.0632C150.576 23.0446 150.847 22.3805 150.78 21.1559C150.706 19.9631 150.164 18.1353 148.543 16.6872C146.94 15.2561 144.232 14.486 141.415 15.0283C138.582 15.5612 135.815 17.3779 133.469 19.7793C131.102 22.1654 128.979 24.7835 126.26 26.2427C123.559 27.7633 120.578 27.695 118.412 27.0573C116.198 26.4175 114.683 25.2443 113.813 24.3333C113.381 23.8682 113.074 23.4805 112.905 23.1929C112.727 22.9112 112.645 22.7576 112.668 22.7433Z" fill="#074F62"/>
<path d="M158.531 42.6265C158.505 42.6551 158.18 42.4412 157.837 41.8506C157.49 41.2696 157.177 40.2908 157.218 39.0742C157.183 36.5641 159.168 33.7024 159.163 30.2305C159.194 28.5139 158.758 26.8778 157.923 25.6776C157.095 24.4801 155.893 23.7561 154.838 23.4287C153.771 23.085 152.835 23.1591 152.222 23.291C151.609 23.4415 151.285 23.6146 151.252 23.5548C151.231 23.5251 151.504 23.2587 152.137 23.0045C152.764 22.7709 153.791 22.5982 154.984 22.9054C156.163 23.1978 157.523 23.933 158.501 25.2687C159.471 26.5913 159.965 28.3964 159.932 30.2395C159.926 32.0912 159.394 33.8083 158.842 35.2464C158.293 36.6902 157.842 37.9799 157.76 39.1043C157.54 41.4089 158.642 42.5804 158.531 42.6265Z" fill="#074F62"/>
<path d="M156.778 54.0468L155.515 52.8774C155.056 52.4521 155.029 51.7354 155.454 51.2768L160.188 46.1672C160.614 45.708 161.33 45.681 161.788 46.1058L163.051 47.2752C163.51 47.7005 163.537 48.4172 163.112 48.8758L158.378 53.9854C157.953 54.4446 157.236 54.4716 156.778 54.0468Z" fill="#17282F"/>
<path d="M206.707 114.418C206.707 114.418 206.72 114.522 206.737 114.727C206.753 114.937 206.776 115.241 206.806 115.639C206.863 116.449 206.947 117.641 207.055 119.191C207.265 122.305 207.572 126.853 207.959 132.618C208.342 138.389 208.804 145.377 209.332 153.358C209.463 155.354 209.598 157.412 209.737 159.529C209.816 160.585 209.855 161.664 209.905 162.756C209.948 163.301 209.905 163.852 209.891 164.406C209.859 164.958 209.887 165.519 209.797 166.076C209.729 166.633 209.66 167.194 209.591 167.758C209.472 168.314 209.352 168.874 209.231 169.437C209.072 169.99 208.883 170.539 208.708 171.096C208.465 171.626 208.263 172.181 207.976 172.698C206.868 174.76 205.135 176.688 202.726 177.482L202.715 177.486H202.697C187.245 177.482 169.573 177.479 150.883 177.474C145.304 177.471 139.815 177.468 134.451 177.465H134.271L134.32 177.292C134.822 175.504 135.319 173.73 135.813 171.971C136.059 171.09 136.304 170.215 136.549 169.343C136.797 168.469 137.046 167.613 137.162 166.73C137.425 164.975 137.247 163.176 136.707 161.526C136.43 160.707 136.034 159.927 135.47 159.291C134.92 158.658 134.153 158.174 133.359 158.05L132.272 157.881L133.357 157.79C140.2 157.215 146.744 156.665 152.927 156.146L152.866 156.169C154.101 155.279 155.607 154.792 157.081 154.873C158.554 154.94 159.955 155.416 161.164 156.172L161.079 156.154C167.056 155.021 172.606 153.97 177.67 153.011L177.595 153.137C177.386 152.489 177.334 151.828 177.309 151.187C177.291 150.543 177.311 149.911 177.362 149.291C177.46 148.053 177.636 146.864 177.865 145.715L177.874 145.775C176.542 143.292 175.323 141.019 174.198 138.924L174.191 138.908L174.189 138.891C173.929 132.785 173.838 127.972 173.882 124.686C173.899 123.045 173.962 121.783 174.05 120.937C174.092 120.513 174.134 120.194 174.191 119.983C174.236 119.772 174.265 119.666 174.265 119.666C174.265 119.666 174.25 119.776 174.211 119.988C174.162 120.199 174.125 120.518 174.091 120.941C174.016 121.787 173.967 123.046 173.961 124.687C173.943 127.97 174.058 132.782 174.34 138.884L174.331 138.851C175.462 140.945 176.688 143.213 178.029 145.691L178.043 145.719L178.037 145.752C177.813 146.889 177.641 148.077 177.547 149.306C177.498 149.92 177.479 150.546 177.5 151.18C177.524 151.811 177.579 152.461 177.78 153.075L177.815 153.181L177.706 153.201C172.644 154.171 167.096 155.234 161.121 156.378L161.078 156.386L161.035 156.36C159.875 155.636 158.492 155.167 157.072 155.107C155.647 155.032 154.203 155.501 153.008 156.363L152.981 156.382L152.947 156.386C146.765 156.911 140.221 157.468 133.379 158.05L133.377 157.79C134.291 157.931 135.074 158.447 135.665 159.116C136.261 159.786 136.672 160.598 136.958 161.442C137.514 163.135 137.696 164.97 137.428 166.767C137.31 167.668 137.055 168.549 136.808 169.416C136.564 170.288 136.32 171.163 136.073 172.043C135.581 173.803 135.084 175.577 134.583 177.365L134.452 177.192C139.815 177.194 145.304 177.197 150.883 177.199C169.573 177.213 187.246 177.226 202.697 177.238L202.668 177.242C203.796 176.89 204.822 176.195 205.673 175.387C206.519 174.563 207.225 173.613 207.766 172.585C208.047 172.079 208.247 171.533 208.487 171.012C208.66 170.464 208.847 169.923 209.005 169.378C209.125 168.821 209.245 168.268 209.363 167.719C209.433 167.161 209.502 166.605 209.57 166.053C209.66 165.504 209.632 164.946 209.666 164.398C209.68 163.849 209.724 163.303 209.682 162.76C209.635 161.675 209.598 160.605 209.521 159.545C209.386 157.428 209.255 155.37 209.127 153.374C208.621 145.39 208.178 138.401 207.813 132.628C207.454 126.861 207.171 122.31 206.977 119.196C206.885 117.645 206.815 116.452 206.766 115.641C206.745 115.242 206.728 114.939 206.717 114.728C206.707 114.523 206.707 114.418 206.707 114.418Z" fill="#17282F"/>
<path d="M191.708 85.558C191.718 85.5792 191.372 85.7715 190.764 86.1438C190.155 86.5146 189.299 87.094 188.314 87.8996C186.33 89.4955 183.943 92.1437 181.966 95.4954C179.986 98.8481 178.671 102.139 177.728 104.51C177.275 105.673 176.903 106.628 176.628 107.331C176.505 107.639 176.403 107.891 176.321 108.095C176.248 108.268 176.206 108.359 176.197 108.355C176.188 108.352 176.213 108.256 176.269 108.076C176.338 107.868 176.423 107.609 176.528 107.293C176.758 106.616 177.1 105.639 177.546 104.44C178.444 102.049 179.734 98.7321 181.729 95.3545C183.722 91.9763 186.159 89.318 188.191 87.7476C189.201 86.9542 190.081 86.3954 190.71 86.0511C191.019 85.8689 191.274 85.7566 191.442 85.6708C191.612 85.5887 191.703 85.5501 191.708 85.558Z" fill="#17282F"/>
<path d="M161.783 155.68C161.461 155.68 161.152 155.618 160.9 155.423C160.389 155.025 160.364 154.227 160.653 153.648C160.941 153.068 161.462 152.647 161.943 152.214C165.943 148.603 167.806 143.131 168.334 137.768C168.862 132.405 168.214 127.007 168.015 121.622C167.822 116.379 168.676 110.967 170.802 106.168C170.752 106.466 170.706 106.773 170.652 107.085C170.466 108.095 170.356 109.187 170.22 110.333C170.006 112.632 169.899 115.172 169.993 117.837C170.102 120.5 170.411 123.024 170.798 125.299C171.015 126.432 171.213 127.511 171.471 128.505C171.693 129.507 171.961 130.425 172.203 131.263C172.429 132.106 172.705 132.847 172.92 133.506C173.132 134.166 173.348 134.722 173.529 135.175C173.703 135.607 173.841 135.954 173.947 136.217C174.022 136.399 174.072 136.513 174.096 136.555C174.124 137.311 174.155 138.09 174.189 138.891L174.191 138.908L174.198 138.924C175.319 141.012 176.533 143.275 177.859 145.748C177.633 146.886 177.46 148.064 177.362 149.292C177.311 149.911 177.291 150.543 177.309 151.187C177.333 151.794 177.38 152.418 177.563 153.031C175.303 153.459 172.946 153.905 170.499 154.369C167.852 154.77 165.198 155.138 162.563 155.595C162.311 155.639 162.043 155.68 161.783 155.68ZM174.093 136.493C174.075 136.43 174.044 136.331 173.999 136.197C173.973 136.123 173.946 136.044 173.915 135.958C173.956 136.045 173.998 136.132 174.04 136.219C174.04 136.219 174.056 136.301 174.092 136.458C174.092 136.47 174.093 136.481 174.093 136.493ZM170.238 115.063C170.258 113.415 170.345 111.837 170.473 110.358C170.527 109.879 170.576 109.411 170.628 108.954C170.421 111.09 170.287 113.115 170.238 115.063Z" fill="#187B4E"/>
<path d="M174.096 136.555C174.072 136.513 174.022 136.399 173.947 136.217C173.841 135.954 173.703 135.607 173.529 135.175C173.348 134.722 173.132 134.166 172.92 133.506C172.705 132.847 172.429 132.106 172.203 131.263C171.961 130.425 171.693 129.507 171.471 128.505C171.213 127.511 171.015 126.432 170.799 125.299C170.411 123.024 170.103 120.5 169.993 117.837C169.899 115.172 170.006 112.632 170.22 110.333C170.356 109.187 170.466 108.095 170.652 107.084C170.706 106.773 170.752 106.466 170.802 106.168C170.859 106.038 170.917 105.909 170.976 105.781C170.844 106.867 170.728 107.923 170.628 108.954C170.576 109.411 170.527 109.879 170.473 110.358C170.345 111.837 170.258 113.415 170.238 115.063C170.118 119.779 170.496 124.045 171.539 128.351C172.125 130.77 172.694 133.366 173.915 135.958C173.946 136.044 173.973 136.123 173.999 136.197C174.044 136.331 174.075 136.43 174.093 136.493C174.094 136.514 174.095 136.534 174.096 136.555Z" fill="#0F191D"/>
<path d="M177.576 148.953C177.624 148.405 177.689 147.865 177.765 147.333C177.703 147.865 177.635 148.45 177.576 148.953ZM176.091 142.108C175.482 140.982 174.899 139.902 174.339 138.866C174.311 138.279 174.286 137.704 174.262 137.141C174.533 138.146 175.085 139.909 176.091 142.108Z" fill="#187B4E"/>
<path d="M170.498 154.369C172.946 153.905 175.302 153.459 177.562 153.031C177.379 152.418 177.332 151.794 177.309 151.187C177.29 150.543 177.31 149.911 177.362 149.292C177.459 148.064 177.632 146.886 177.859 145.748C176.532 143.275 175.318 141.012 174.198 138.924L174.19 138.908L174.189 138.891C174.155 138.09 174.124 137.311 174.095 136.555C174.094 136.534 174.093 136.514 174.093 136.493C174.092 136.481 174.092 136.47 174.091 136.458C174.127 136.615 174.182 136.845 174.262 137.141C174.286 137.704 174.312 138.28 174.339 138.866C174.899 139.902 175.482 140.982 176.091 142.108C176.416 142.82 176.79 143.577 177.216 144.37C177.473 144.847 177.84 145.232 177.951 145.734C177.951 145.734 177.867 146.463 177.765 147.333C177.689 147.865 177.625 148.405 177.576 148.953C177.527 149.368 177.483 149.727 177.454 149.956C177.322 151.004 177.687 153.106 177.687 153.106C177.687 153.106 174.924 153.646 174.103 153.789C172.905 153.997 171.702 154.186 170.498 154.369Z" fill="#0F191D"/>
<path d="M130.567 100.897C130.51 100.897 130.45 100.887 130.39 100.863C130.147 100.77 130.028 100.503 129.932 100.261C129.617 99.4662 129.303 98.6712 128.989 97.8761L128.929 98.0583C128.941 97.8931 128.964 97.7305 128.999 97.5705L129.034 97.4773C129.517 96.1802 130.472 95.159 131.569 94.5483C131.655 94.5091 131.743 94.4721 131.831 94.4382C132.531 94.1686 133.273 94.051 134.021 94.051C134.903 94.051 135.794 94.2141 136.634 94.4842C136.772 94.5282 136.908 94.5753 137.044 94.6246C137.151 94.6834 137.255 94.7443 137.357 94.8052C138.228 95.3137 139.02 95.6696 139.666 95.8762C140.118 96.1309 140.564 96.3963 141.008 96.6611C140.569 96.7522 140.126 96.7829 139.68 96.7829C139.238 96.7829 138.793 96.7533 138.349 96.7236C137.905 96.694 137.46 96.6643 137.017 96.6643C136.73 96.6643 136.444 96.6765 136.16 96.7093C134.178 96.9381 132.347 98.2236 131.462 100.012C131.266 100.406 130.955 100.897 130.567 100.897Z" fill="#187B4E"/>
<path d="M128.999 97.5705C129.285 96.2448 130.317 95.1198 131.569 94.5483C130.472 95.159 129.517 96.1802 129.034 97.4773L128.999 97.5705ZM139.667 95.8761C139.021 95.6696 138.228 95.3136 137.357 94.8052C137.256 94.7443 137.151 94.6834 137.044 94.6246C137.954 94.9561 138.82 95.3979 139.667 95.8761Z" fill="#0F191D"/>
<path d="M155.493 105.565C155.475 105.565 155.457 105.564 155.438 105.562C155.052 105.52 154.871 105.073 154.772 104.698C154.256 102.746 153.776 100.7 152.497 99.1378C151.305 97.6828 149.523 96.8063 147.693 96.3698C145.87 95.9355 143.98 95.8995 142.106 95.8672C142.227 95.8211 142.363 95.7713 142.512 95.7194C143.234 95.4726 144.313 95.2327 145.665 95.2327C145.758 95.2327 145.851 95.2337 145.946 95.2364C146.688 95.2438 147.497 95.3709 148.356 95.56C149.203 95.7952 150.111 96.0764 151.003 96.5351C152.668 97.3449 154.343 98.6044 155.712 100.297C155.711 100.302 155.711 100.308 155.71 100.313C155.713 100.311 155.717 100.309 155.72 100.307C155.825 100.437 155.928 100.569 156.03 100.705L156.128 100.835L156.236 100.718C157.215 99.6579 158.182 98.4953 158.996 97.1807C160.572 94.6871 161.59 92.0463 162.327 89.6152C162.813 87.96 163.173 86.3922 163.455 84.9648C163.611 84.6396 163.775 84.3192 163.952 84.0035C163.888 87.9314 163.623 91.899 162.479 95.6574C161.334 99.4159 159.238 102.983 156.072 105.309C155.899 105.436 155.704 105.565 155.493 105.565ZM156.148 100.415C156.08 100.327 156.012 100.241 155.943 100.156C156.646 99.6632 157.265 99.0758 157.812 98.4217C157.281 99.1288 156.717 99.7893 156.148 100.415ZM155.719 99.8867C154.356 98.2861 152.726 97.096 151.106 96.3243C150.195 95.8645 149.268 95.587 148.405 95.3577C148.086 95.2915 147.774 95.2337 147.47 95.1871C149.62 95.3974 151.726 96.0737 153.576 97.1908C154.148 97.5361 154.704 97.9291 155.12 98.453C155.445 98.8645 155.677 99.3682 155.719 99.8867ZM141.99 95.8291L141.785 95.7475C142.284 95.5934 142.791 95.4678 143.303 95.3704C142.992 95.4509 142.717 95.5404 142.481 95.6304C142.292 95.6913 142.129 95.7623 141.99 95.8291ZM159.682 95.4514C160.108 94.5674 160.468 93.6458 160.781 92.7269C161.549 90.4737 162.114 88.1321 163.021 85.942C162.766 87.0765 162.461 88.2847 162.084 89.5426C161.496 91.4441 160.739 93.471 159.682 95.4514Z" fill="#187B4E"/>
<path d="M156.128 100.835L156.03 100.705C155.929 100.569 155.826 100.437 155.72 100.307C155.796 100.257 155.87 100.207 155.943 100.156C156.013 100.241 156.081 100.327 156.148 100.415C156.718 99.7893 157.282 99.1288 157.813 98.4217C158.556 97.5324 159.168 96.5192 159.683 95.4514C160.74 93.471 161.497 91.4441 162.084 89.5426C162.461 88.2847 162.767 87.0765 163.022 85.942C163.158 85.6126 163.302 85.2863 163.456 84.9648C163.174 86.3922 162.814 87.96 162.327 89.6152C161.591 92.0463 160.573 94.6871 158.997 97.1807C158.183 98.4953 157.216 99.6579 156.236 100.718L156.128 100.835ZM155.713 100.297C154.344 98.6044 152.669 97.3449 151.003 96.5351C150.112 96.0764 149.204 95.7952 148.357 95.56C147.498 95.3709 146.689 95.2438 145.947 95.2364C145.852 95.2337 145.758 95.2327 145.666 95.2327C144.314 95.2327 143.235 95.4726 142.513 95.7194C142.364 95.7713 142.228 95.8211 142.106 95.8672C142.099 95.8672 142.092 95.8667 142.085 95.8667L141.99 95.829C142.13 95.7623 142.292 95.6913 142.482 95.6304C142.717 95.5404 142.992 95.4509 143.304 95.3704C144.199 95.2003 145.109 95.1161 146.021 95.1161C146.505 95.1161 146.989 95.14 147.471 95.1871C147.775 95.2337 148.087 95.2914 148.405 95.3577C149.269 95.587 150.196 95.8645 151.107 96.3243C152.726 97.096 154.357 98.2861 155.72 99.8867C155.731 100.023 155.729 100.16 155.713 100.297Z" fill="#0F191D"/>
<path d="M133.85 158.255H127.364C127.364 158.255 112.73 152.967 109.721 153.473C107.011 153.927 97.089 160.519 95.1452 161.823C94.928 161.969 94.7649 162.177 94.6743 162.423C94.2781 163.496 94.8004 164.69 95.8576 165.127L96.063 165.212L95.9741 165.507C95.8639 165.872 95.8035 166.285 95.8247 166.691C95.8983 168.085 97.7707 168.509 98.4836 167.309L98.1091 167.973C97.9571 168.244 97.8851 168.552 97.902 168.862L97.9354 169.465C97.9725 170.136 98.4179 170.715 99.0566 170.923C99.6636 171.121 100.33 170.948 100.76 170.476C102.018 169.092 104.737 166.32 106.576 166.013C108.211 165.74 110.936 165.705 112.582 165.712C113.419 165.716 114.166 166.232 114.47 167.012C113.378 167.09 105.775 171.055 103.084 172.475C102.252 172.914 101.628 173.706 101.52 174.641C101.421 175.483 101.847 176.365 103.513 175.976C107.088 175.141 113.522 172.183 113.522 172.183C113.522 172.183 116.841 171.235 118.991 172.752C122.015 174.886 123.401 175.668 125.998 174.807C128.595 173.946 130.51 172.711 130.51 172.711L135.627 172.199C135.627 172.199 140.465 160.108 133.85 158.255Z" fill="#F8A58D"/>
<path d="M114.525 160.726C114.513 160.781 113.487 160.452 111.776 160.344C110.078 160.228 107.662 160.425 105.258 161.451C102.853 162.477 101.039 164.086 99.9481 165.392C98.8422 166.702 98.3703 167.67 98.3216 167.641C98.3073 167.633 98.4132 167.387 98.6473 166.964C98.8798 166.54 99.2569 165.947 99.7972 165.267C100.864 163.912 102.695 162.245 105.15 161.198C107.604 160.15 110.074 159.982 111.791 160.149C112.655 160.229 113.345 160.367 113.811 160.493C114.279 160.617 114.53 160.71 114.525 160.726Z" fill="#F68260"/>
<path d="M112.976 157.172C112.959 157.239 111.918 156.728 110.114 156.672C108.325 156.595 105.81 157.134 103.458 158.557C101.106 159.986 99.3455 161.798 98.0945 163.095C97.5008 163.726 97.0066 164.251 96.6247 164.657C96.2762 165.025 96.0776 165.224 96.0633 165.212C96.0495 165.199 96.2206 164.977 96.5442 164.586C96.8678 164.195 97.3434 163.636 97.9515 162.962C99.1697 161.628 100.923 159.775 103.316 158.32C105.714 156.869 108.298 156.348 110.122 156.478C111.036 156.532 111.764 156.699 112.246 156.867C112.492 156.937 112.669 157.029 112.794 157.077C112.917 157.13 112.979 157.163 112.976 157.172Z" fill="#F68260"/>
<path d="M42.3467 180.963L24.7728 136.846C23.2172 133.052 26.0075 128.893 30.108 128.893H84.8588C87.3296 128.893 89.5255 130.466 90.3195 132.806L105.417 177.305L123.047 177.389C124.479 177.396 125.637 179.491 125.637 180.923L106.23 180.7L42.3467 180.963Z" fill="#17282F"/>
<path d="M36.8839 148.767C36.8749 148.753 36.7488 148.561 36.591 148.091C36.6794 148.338 36.7774 148.562 36.8839 148.767ZM36.2419 146.659C36.2234 146.543 36.2096 146.427 36.2012 146.308C36.2118 146.423 36.225 146.54 36.2419 146.659Z" fill="#074F62"/>
<path d="M49.4751 145.603C49.4719 145.602 49.4687 145.601 49.4656 145.6C49.4804 145.184 49.4279 144.743 49.2818 144.284C49.0662 143.608 48.732 142.899 48.2781 142.229C48.545 142.606 48.8093 143.042 49.0042 143.502C49.6282 144.975 49.4751 145.603 49.4751 145.603ZM47.1828 140.938C47.1801 140.935 47.1775 140.933 47.1748 140.93C47.1748 140.93 47.1775 140.933 47.1828 140.938Z" fill="#074F62"/>
<path d="M67.6488 156.748C67.6488 158.712 66.0567 160.305 64.0922 160.305C62.1283 160.305 60.5361 158.712 60.5361 156.748C60.5361 154.784 62.1283 153.192 64.0922 153.192C66.0567 153.192 67.6488 154.784 67.6488 156.748Z" fill="#F3F2F1"/>
<path d="M-0.000396729 180.7C-0.000396729 180.777 67.3214 180.838 150.348 180.838C233.403 180.838 300.71 180.777 300.71 180.7C300.71 180.624 233.403 180.562 150.348 180.562C67.3214 180.562 -0.000396729 180.624 -0.000396729 180.7Z" fill="#17282F"/>
</svg>
