<svg width="24" height="24" viewBox="0 0 24 24" fill="none" xmlns="http://www.w3.org/2000/svg">
<path d="M12 24C18.6274 24 24 18.6274 24 12C24 5.37258 18.6274 0 12 0C5.37258 0 0 5.37258 0 12C0 18.6274 5.37258 24 12 24Z" fill="#BDEDE0"/>
<path d="M23.4268 15.6679L19.5 6.1875C16.875 6.1875 14.0625 3.5625 12 3.5625C9.93752 3.5625 7.11621 6.1875 4.49121 6.1875C4.49121 6.21825 4.49121 6.25125 4.49121 6.2835C4.49121 6.31481 4.49121 6.34669 4.49121 6.3795C4.49121 8.06662 4.49121 11.6218 4.49121 13.1252C4.49121 13.1574 4.49121 13.1906 4.49121 13.2212C4.49121 13.2534 4.49121 13.2866 4.49121 13.3172C4.49121 13.9697 4.66034 14.6546 4.95396 15.3321C5.05746 15.6356 5.1889 15.9396 5.34359 16.2407C5.3944 16.386 5.45346 16.5315 5.51646 16.6764C5.57121 16.8368 5.63459 16.9969 5.70396 17.157C5.80746 17.4606 5.9389 17.7645 6.09358 18.0656C6.1444 18.2109 6.20346 18.3564 6.26646 18.5018C6.32121 18.6619 6.38458 18.8222 6.45396 18.9823C6.50852 19.1424 6.57208 19.3026 6.64146 19.4625C6.74496 19.7661 6.87658 20.07 7.03108 20.3711C7.0819 20.5164 7.14096 20.6621 7.20396 20.8074C7.25871 20.9676 7.32208 21.1277 7.39146 21.2874C7.49496 21.5912 7.62658 21.8949 7.78108 22.1961C7.8319 22.3416 7.89096 22.4872 7.95396 22.6326C8.00852 22.7927 8.07208 22.9526 8.14127 23.1126C8.17408 23.2087 8.2144 23.3046 8.25246 23.4009C9.43202 23.7876 10.6907 24 11.9998 24C17.3477 24 21.8768 20.5005 23.4268 15.6679Z" fill="#8AECD1"/>
<path d="M11.9912 3.5625C9.92871 3.5625 7.11621 6.1875 4.49121 6.1875C4.49121 7.78125 4.49121 11.5626 4.49121 13.125C4.49121 16.3828 8.64752 20.4375 11.9912 20.4375C15.3349 20.4375 19.4912 16.3828 19.4912 13.125C19.4912 11.5626 19.4912 7.78125 19.4912 6.1875C16.8662 6.1875 14.0537 3.5625 11.9912 3.5625Z" fill="#F5F5F5"/>
<path d="M11.9912 19.6875C9.08927 19.6875 5.24121 15.9463 5.24121 13.125V6.87975C6.55952 6.68381 7.85796 6.02044 9.02533 5.42419C10.1449 4.8525 11.2024 4.3125 11.9912 4.3125C12.78 4.3125 13.8377 4.85269 14.9571 5.42456C16.1245 6.02081 17.4227 6.684 18.7412 6.88013V13.125C18.7412 15.9463 14.8931 19.6875 11.9912 19.6875Z" fill="#05B384"/>
<path d="M11.9912 12V5.06268C11.4287 5.06737 10.3579 5.58806 9.3709 6.09206C8.34415 6.61668 7.11621 7.20075 5.99121 7.49531V12H11.9912Z" fill="#F5F5F5"/>
<path d="M11.9912 12V18.9373C11.9912 18.9373 11.9927 18.9377 11.9955 18.9377C14.4628 18.9377 17.9912 15.5154 17.9912 13.1252V12.0002H11.9912V12Z" fill="#F5F5F5"/>
</svg>
