<svg width="127" height="104" viewBox="0 0 127 104" fill="none" xmlns="http://www.w3.org/2000/svg">
<path d="M63.7711 62.0346C63.274 62.3043 62.8877 62.3603 62.3172 62.3937C61.2155 62.458 60.1199 62.7535 59.0979 63.308C54.8933 65.5894 52.3265 70.4857 55.3637 76.0825C57.175 79.4207 62.1614 81.1022 65.5636 79.9796C67.2778 79.4139 69.1175 77.341 69.9937 76.0289C70.3392 75.5118 70.7918 75.084 71.3315 74.7912L72.0903 74.3795L82.1307 92.7632C82.811 94.0169 82.3347 95.591 81.3969 96.0998L31.1512 123.363C29.5527 124.23 27.9734 123.772 27.2931 122.518L16.9866 103.523L19.0709 102.544C19.5411 102.289 20.0554 102.129 20.5857 102.067C21.6521 101.942 22.8949 102.056 23.8982 101.512C28.2057 99.1749 29.7752 94.9017 27.2705 90.6983C25.0634 86.995 20.8778 85.438 16.9115 87.2489C15.5136 87.887 14.5453 88.8824 13.7028 90.0158C13.3263 90.5222 12.8256 91.0124 12.2699 91.3139L10.7778 92.0802L0.686429 73.482C-0.148842 71.9426 0.435973 70.0094 1.9933 69.1644L20.2757 59.2445L33.3629 52.1434L51.1922 42.4693C52.7493 41.6244 54.6887 42.1879 55.524 43.7273L65.076 61.3316L63.7711 62.0346Z" fill="#CFFFD4"/>
<path d="M70.2417 81.757C71.2392 81.2498 72.1358 80.5829 72.9089 79.7832L80.1244 93.9743C80.8422 95.386 82.4349 96.0166 83.6823 95.3823L95.1937 89.5293C95.4288 90.9166 95.8822 92.2903 96.5495 93.6028C99.7248 99.8478 106.796 102.646 112.313 99.8411C117.83 97.036 119.735 89.6734 116.56 83.4285C115.893 82.1159 115.05 80.9398 114.067 79.9329L125.579 74.0799C126.826 73.4456 127.255 71.7872 126.537 70.3755L117.921 53.4292C117.485 52.572 116.698 51.9648 115.826 51.8123C114.954 51.6599 114.113 51.9819 113.586 52.6711C113.075 53.3383 112.439 53.8678 111.697 54.2453C108.67 55.7842 104.791 54.2489 103.049 50.8233C101.307 47.3976 102.352 43.3583 105.379 41.8194C106.121 41.4419 106.923 41.2404 107.764 41.2207C108.631 41.2008 109.387 40.7103 109.778 39.916C110.168 39.1215 110.141 38.1284 109.705 37.2712L101.089 20.3249C100.371 18.9132 98.7781 18.2826 97.5307 18.9169L83.7746 25.9112C83.7723 25.912 83.7701 25.9135 83.7686 25.9143C82.5212 26.5486 82.0923 28.207 82.8101 29.6187C83.0097 30.0113 83.2768 30.3435 83.5859 30.605C84.1657 31.1818 84.6503 31.8495 85.0277 32.5918C86.7697 36.0178 85.7244 40.0568 82.6981 41.5955C79.6718 43.1342 75.7923 41.5989 74.0505 38.1733C73.6463 37.3784 73.3839 36.5352 73.2702 35.6661C73.1485 34.7366 72.6099 33.8867 71.8325 33.3975C71.0548 32.9084 70.1402 32.8437 69.3907 33.2248L55.6347 40.2191C54.3872 40.8534 53.9584 42.5118 54.6762 43.9235L61.8915 58.1143C60.7902 58.2676 59.7231 58.5991 58.7253 59.1065C53.2086 61.9114 51.3034 69.274 54.4787 75.519C57.654 81.764 64.7248 84.5621 70.2417 81.757Z" fill="#EDEDED"/>
<path d="M77.7664 88.4338L78.0924 61.8312C78.3897 55.2163 74.7684 49.5304 68.1128 49.4176L67.4974 49.4429C61.3016 49.6974 56.3392 54.6404 56.0962 60.8043C55.8704 66.5393 55.6944 72.8787 55.8601 75.9433C56.2025 82.2884 62.6262 83.0135 62.6262 83.0135C62.6405 83.0135 62.6656 86.8758 62.662 88.7403L64.6875 92.7671L66.4143 91.8238L77.7664 88.4338Z" fill="#F9A78D"/>
<path d="M62.6149 82.7125C62.6149 82.7125 66.6467 82.7819 70.8223 79.9275C70.8223 79.9275 69.0214 84.7823 62.6299 84.4722L62.6149 82.7125Z" fill="#F57F62"/>
<path d="M58.8635 65.9797C58.8664 66.4591 59.2768 66.8521 59.7803 66.8585C60.2826 66.8642 60.6887 66.4819 60.6855 66.0021C60.683 65.523 60.2726 65.1293 59.7699 65.1229C59.2668 65.1169 58.8607 65.5002 58.8635 65.9797Z" fill="#17282F"/>
<path d="M57.5606 63.2482C57.6783 63.3618 58.3478 62.825 59.3285 62.7872C60.3075 62.7356 61.0481 63.2076 61.1494 63.0838C61.1995 63.0289 61.0757 62.82 60.753 62.6061C60.4352 62.3929 59.9 62.1946 59.2888 62.2224C58.6784 62.2508 58.1739 62.4954 57.888 62.7367C57.5961 62.9795 57.5027 63.1973 57.5606 63.2482Z" fill="#17282F"/>
<path d="M67.5429 65.8059C67.5458 66.285 67.9565 66.6779 68.46 66.6843C68.9623 66.6904 69.3681 66.3078 69.3652 65.8283C69.3624 65.3488 68.952 64.9555 68.4492 64.9491C67.9458 64.9427 67.54 65.3264 67.5429 65.8059Z" fill="#17282F"/>
<path d="M67.185 63.0831C67.303 63.1966 67.9732 62.6602 68.9532 62.6225C69.9322 62.5709 70.6729 63.0428 70.7745 62.919C70.8242 62.8642 70.7015 62.6556 70.3773 62.4413C70.0596 62.2281 69.5243 62.0298 68.9135 62.0576C68.3031 62.0861 67.7986 62.331 67.5124 62.5716C67.2211 62.8143 67.1274 63.0325 67.185 63.0831Z" fill="#17282F"/>
<path d="M63.974 70.725C63.9765 70.6695 63.3625 70.5894 62.3696 70.5047C62.1181 70.4894 61.8791 70.4495 61.8297 70.2811C61.7635 70.1035 61.8569 69.8309 61.9664 69.5358C62.1768 68.9232 62.3968 68.2814 62.628 67.6083C63.5443 64.8654 64.1966 62.6141 64.0853 62.5785C63.9737 62.5429 63.1407 64.7369 62.2247 67.4798C62.0047 68.1561 61.7943 68.8008 61.5943 69.4173C61.5116 69.7045 61.3617 70.0323 61.5052 70.4004C61.5803 70.5837 61.7696 70.7115 61.9317 70.7478C62.0945 70.7898 62.2354 70.7869 62.3596 70.7891C63.3557 70.8015 63.9726 70.7805 63.974 70.725Z" fill="#17282F"/>
<path d="M66.7431 60.0435C66.8866 60.287 67.8272 59.9858 68.9848 59.9136C70.1408 59.8182 71.1155 59.9798 71.2221 59.7185C71.2683 59.5939 71.0633 59.3775 70.6471 59.1928C70.2346 59.0077 69.6059 58.8753 68.9121 58.9248C68.2187 58.976 67.6161 59.1978 67.2347 59.4405C66.8501 59.6833 66.6787 59.9271 66.7431 60.0435Z" fill="#17282F"/>
<path d="M57.3958 60.3863C57.6058 60.6024 58.3984 60.3514 59.3587 60.3151C60.3176 60.2511 61.1367 60.4176 61.3181 60.1809C61.3968 60.0663 61.263 59.8474 60.9019 59.647C60.5463 59.447 59.9559 59.2914 59.2961 59.3256C58.6367 59.3605 58.0699 59.5765 57.7418 59.8125C57.4087 60.0489 57.3031 60.2803 57.3958 60.3863Z" fill="#17282F"/>
<path d="M77.7683 66.2542C77.8749 66.2029 82.0992 64.7838 82.1403 69.1295C82.1811 73.4753 77.7869 72.6196 77.778 72.495C77.7694 72.3708 77.7683 66.2542 77.7683 66.2542Z" fill="#F9A78D"/>
<path d="M79.0864 70.8348C79.1053 70.8209 79.1629 70.8871 79.2921 70.9444C79.4177 71.0003 79.6342 71.038 79.861 70.9508C80.3208 70.7782 80.7026 70.0456 80.7165 69.2619C80.7237 68.8668 80.6368 68.4905 80.4933 68.1801C80.3566 67.8637 80.148 67.6434 79.9154 67.6042C79.6835 67.5533 79.5204 67.6932 79.4681 67.8164C79.4109 67.9381 79.4392 68.0246 79.4163 68.0324C79.4041 68.0435 79.3218 67.9602 79.3554 67.7808C79.3726 67.6939 79.4227 67.591 79.5247 67.5067C79.6284 67.4209 79.7823 67.3761 79.9444 67.3921C80.2814 67.4124 80.5874 67.7178 80.7459 68.0584C80.9223 68.4008 81.0293 68.823 81.021 69.2672C81.001 70.1432 80.5584 70.9672 79.9283 71.1544C79.622 71.237 79.3647 71.1473 79.2313 71.0459C79.0949 70.9398 79.071 70.843 79.0864 70.8348Z" fill="#F57F62"/>
<path d="M67.0573 71.3264C66.907 71.3171 66.9005 72.3148 66.0389 73.0196C65.1784 73.7262 64.1096 73.6094 64.1011 73.7489C64.0867 73.8116 64.3383 73.9436 64.7898 73.9579C65.2324 73.975 65.8794 73.8365 66.4068 73.4058C66.9327 72.9733 67.1603 72.3949 67.1964 71.9856C67.2369 71.5688 67.126 71.3207 67.0573 71.3264Z" fill="#17282F"/>
<path d="M58.2225 54.6801C57.4763 54.3646 59.3328 51.79 60.9687 50.788C63.4495 49.2748 67.3484 48.0674 69.8325 48.4892C72.8185 48.996 75.3867 50.1997 77.1366 52.7367C78.8366 55.3288 79.8325 58.3388 80.022 61.4575C80.1638 62.3977 79.6302 64.7352 79.2838 65.6181C78.7937 66.6735 78.1125 66.2635 78.3097 67.6167C78.3531 67.8601 78.4368 68.3711 78.3855 68.613C78.3343 68.8549 78.1212 69.2277 77.9831 69.4308C77.2786 70.387 76.2485 69.0603 75.7084 68.3033C74.5681 66.6685 74.2326 64.5991 73.9334 62.615C73.646 61.2133 73.5837 59.7729 73.749 58.3503C73.8807 57.5836 74.179 56.8388 74.2349 56.0698C74.304 55.6861 74.2909 55.2916 74.1966 54.9138C74.1023 54.5359 73.9289 54.1836 73.6886 53.8813C73.5663 53.7613 73.4341 53.6523 73.2934 53.5557C72.6295 53.084 71.8549 52.8025 71.0494 52.74C70.2438 52.6776 69.4365 52.8364 68.7105 53.2003C66.3477 54.368 62.3324 56.1723 61.1484 55.4468C60.312 55.0086 59.5752 54.3946 58.9858 53.6447L58.2225 54.6801Z" fill="#263238"/>
<path d="M36.5718 107.655C36.5718 107.655 47.5858 91.0127 50.8376 90.2862L53.7387 89.4629L62.5189 87.0938C62.5189 87.0938 62.4545 90.4603 67.3464 90.5671C72.9816 90.6899 77.7107 85.7611 77.7107 85.7611C77.7107 85.7611 89.4253 89.3924 91.8849 91.3658C94.3448 93.3395 90.2951 116.178 90.2951 116.178H47.4259L47.457 115.927L36.5718 107.655Z" fill="#F2575D"/>
<path d="M92.0072 91.3476C92.0072 91.3476 95.7109 93.8553 96.7417 98.9827C97.7726 104.11 99.918 116.168 99.918 116.168L81.9993 116.178C81.9993 116.178 82.8194 108.73 82.8194 108.17C82.8194 107.611 85.9223 95.3997 86.1098 95.12C86.2973 94.8402 92.0072 91.3476 92.0072 91.3476Z" fill="#F2575D"/>
<path d="M89.2665 91.6377C89.3109 91.7185 87.9848 92.3855 86.6996 93.6434C85.4018 94.8889 84.6969 96.1902 84.6171 96.1436C84.5492 96.1215 85.1553 94.7198 86.4938 93.433C87.8213 92.136 89.2461 91.5697 89.2665 91.6377Z" fill="#17282F"/>
<path d="M84.2216 116.194C84.2345 116.193 84.2402 115.973 84.2402 115.575C84.2377 115.146 84.2345 114.578 84.2309 113.891C84.2209 112.468 84.2152 110.504 84.2434 108.334C84.2727 106.164 84.3302 104.2 84.3777 102.779C84.3999 102.091 84.4181 101.523 84.4317 101.095C84.4424 100.697 84.4424 100.477 84.4295 100.476C84.4167 100.475 84.3924 100.694 84.3595 101.091C84.3259 101.488 84.287 102.062 84.2466 102.773C84.1652 104.194 84.0866 106.16 84.0577 108.332C84.0291 110.504 84.0556 112.47 84.0995 113.893C84.1209 114.604 84.1449 115.18 84.1677 115.577C84.1902 115.975 84.2088 116.194 84.2216 116.194Z" fill="#17282F"/>
<path d="M49.8986 98.9255C49.8474 98.9187 49.2903 102.742 48.6542 107.465C48.018 112.188 47.5435 116.022 47.5947 116.029C47.6455 116.035 48.2026 112.213 48.8388 107.489C49.475 102.767 49.9494 98.9323 49.8986 98.9255Z" fill="#17282F"/>
</svg>
