<svg width="252" height="80" viewBox="0 0 252 80" fill="none" xmlns="http://www.w3.org/2000/svg">
<path fill-rule="evenodd" clip-rule="evenodd" d="M48.3371 14.2392C48.3735 14.2055 48.4095 14.1709 48.4449 14.1355C49.9092 12.6705 49.9092 10.2952 48.4449 8.8302C46.9981 7.38275 44.6632 7.3654 43.1951 8.77815L43.1915 8.7745L29.9745 21.9676C28.5097 22.9171 27.0002 22.6182 25.857 22.0201L32.7078 28.8741C33.6286 28.8224 34.8424 27.7782 35.4084 27.174L48.3371 14.2392ZM24.4644 21.0133L24.4662 21.0115L24.3243 20.8696C24.3677 20.9163 24.4145 20.9643 24.4644 21.0133Z" fill="url(#paint0_linear_1_42778)"/>
<path fill-rule="evenodd" clip-rule="evenodd" d="M54.4996 38.3923C54.5236 38.4177 54.5481 38.4428 54.573 38.4677C56.0373 39.9327 58.4115 39.9327 59.8758 38.4677C61.3231 37.0197 61.3399 34.6826 59.9263 33.2139L59.9288 33.2113L46.7419 19.9881C45.7929 18.5227 46.0916 17.0125 46.6895 15.8687L39.8387 22.7227C39.8903 23.6439 40.934 24.8583 41.538 25.4246L54.4996 38.3923ZM47.6958 14.4755L47.6975 14.4772L47.8394 14.3353C47.7928 14.3787 47.7448 14.4255 47.6958 14.4755Z" fill="url(#paint1_linear_1_42778)"/>
<path fill-rule="evenodd" clip-rule="evenodd" d="M24.4946 20.6491C24.4609 20.6126 24.4264 20.5767 24.3909 20.5412C22.9266 19.0762 20.5525 19.0762 19.0882 20.5412C17.6412 21.9889 17.624 24.3253 19.0367 25.794L19.033 25.7976L32.2199 39.0208C33.1689 40.4863 32.8702 41.9965 32.2724 43.1402L39.1231 36.2862C39.0715 35.365 38.0278 34.1506 37.4238 33.5844L24.4946 20.6491ZM31.266 44.5335L31.2643 44.5317L31.1224 44.6737C31.1691 44.6302 31.2171 44.5834 31.266 44.5335Z" fill="url(#paint2_linear_1_42778)"/>
<path fill-rule="evenodd" clip-rule="evenodd" d="M30.6856 44.724C30.6332 44.7709 30.5818 44.8195 30.5315 44.8698C29.0672 46.3348 29.0672 48.7101 30.5315 50.1751C31.9787 51.6229 34.3144 51.6399 35.7823 50.2261L35.7881 50.2318L49.0051 37.0387C50.4699 36.0892 51.9794 36.3881 53.1226 36.9863L46.2718 30.1322C45.351 30.1838 44.1371 31.2281 43.5712 31.8323L30.6856 44.724ZM54.5151 37.993L54.5134 37.9948L54.6553 38.1367C54.6118 38.09 54.565 38.042 54.5151 37.993Z" fill="url(#paint3_linear_1_42778)"/>
<path d="M83.7288 15.4249H68.4711C67.3186 15.4249 66.3916 16.3774 66.3916 17.5304C66.3916 18.6834 67.3186 19.6109 68.4711 19.6109H74.008V35.728C74.008 36.881 74.96 37.8085 76.1125 37.8085C77.2649 37.8085 78.1919 36.881 78.1919 35.728V19.6109H83.7288C84.9064 19.6109 85.8333 18.6834 85.8333 17.5304C85.8333 16.3774 84.9064 15.4249 83.7288 15.4249Z" fill="#04242D"/>
<path d="M102.267 29.5368C104.747 28.3587 106.476 25.8021 106.476 22.8443C106.476 18.7586 103.169 15.4249 99.0848 15.4249H90.316C89.5895 15.4249 88.9631 15.8009 88.5873 16.3523C88.3618 16.6782 88.2365 17.0792 88.2365 17.5304V35.728C88.2365 36.881 89.1635 37.8085 90.316 37.8085C91.4685 37.8085 92.3955 36.881 92.3955 35.728V30.2637H97.5315L102.743 37.0064C103.144 37.5327 103.77 37.8085 104.396 37.8085C104.847 37.8085 105.298 37.6831 105.674 37.3824C106.601 36.6805 106.751 35.352 106.05 34.4497L102.267 29.5368ZM92.3955 19.6109H99.0848C100.864 19.6109 102.292 21.0647 102.292 22.8443C102.292 24.624 100.864 26.0778 99.0848 26.0778C99.0347 26.0778 98.5838 26.0778 98.5587 26.0778C98.5337 26.0778 98.5337 26.0778 98.5337 26.0778H92.3955V19.6109ZM98.5587 26.0778C98.5337 26.0778 98.5337 26.0778 98.5337 26.0778C98.5838 26.0778 98.6088 26.0778 98.5587 26.0778Z" fill="#04242D"/>
<path d="M131.292 34.7755L122.072 16.603C122.072 16.628 122.098 16.6531 122.098 16.6782C121.972 16.3523 121.747 16.0766 121.446 15.851C121.421 15.826 121.421 15.826 121.396 15.8009C121.346 15.7758 121.321 15.7508 121.296 15.7508C121.246 15.7257 121.196 15.7006 121.171 15.6756C121.145 15.6505 121.145 15.6505 121.145 15.6505C121.07 15.6254 121.02 15.6004 120.945 15.5753C120.82 15.5252 120.695 15.475 120.569 15.45C120.544 15.45 120.544 15.45 120.519 15.45C120.469 15.45 120.419 15.45 120.369 15.4249C120.344 15.4249 120.344 15.4249 120.344 15.4249C120.294 15.4249 120.244 15.4249 120.193 15.4249H120.168C120.143 15.4249 120.118 15.4249 120.118 15.4249C119.542 15.45 119.066 15.7006 118.715 16.0515C118.69 16.0515 118.69 16.0766 118.69 16.0766C118.64 16.1267 118.59 16.1518 118.565 16.2019C118.565 16.227 118.565 16.227 118.54 16.227C118.515 16.2771 118.49 16.3273 118.465 16.3523C118.44 16.3774 118.44 16.3774 118.415 16.4025C118.39 16.4526 118.365 16.5027 118.339 16.5529V16.5779L109.095 34.7755C108.368 36.1792 109.395 37.8085 110.949 37.8085C111.7 37.8085 112.452 37.4074 112.828 36.6805L114.281 33.798H126.106L127.584 36.6805C128.085 37.7082 129.363 38.1093 130.39 37.5829C131.418 37.0816 131.818 35.8032 131.292 34.7755ZM122.148 16.7534C122.148 16.7534 122.123 16.7534 122.123 16.7283C122.123 16.7283 122.123 16.7032 122.123 16.6782C122.123 16.7032 122.123 16.7283 122.148 16.7534ZM120.193 22.1425L123.977 29.612H116.41L120.193 22.1425Z" fill="#04242D"/>
<path d="M153.106 37.0064C153.106 36.9813 153.131 36.9562 153.156 36.9312C153.156 36.9061 153.181 36.9061 153.181 36.881C153.207 36.856 153.206 36.8309 153.232 36.8058C153.232 36.7808 153.257 36.7808 153.257 36.7557C153.307 36.7056 153.332 36.6304 153.357 36.5803C153.357 36.5803 153.357 36.5803 153.357 36.5552C153.382 36.5301 153.382 36.5051 153.407 36.48C153.407 36.4549 153.407 36.4299 153.432 36.4299C153.432 36.4048 153.432 36.3547 153.457 36.3296C153.457 36.3296 153.457 36.3045 153.457 36.2795C153.482 36.2544 153.482 36.2293 153.507 36.1792V36.1541C153.507 36.0789 153.532 36.0288 153.532 35.9536C153.532 35.9536 153.532 35.9285 153.557 35.9285C153.557 35.8784 153.557 35.8534 153.557 35.8283C153.557 35.8032 153.557 35.7782 153.557 35.7782C153.557 35.7531 153.557 35.728 153.557 35.703V35.6779C153.557 35.6528 153.557 35.6278 153.557 35.6278C153.557 35.5776 153.557 35.5526 153.557 35.5275V17.5053C153.557 16.3523 152.605 15.4249 151.453 15.4249C150.3 15.4249 149.373 16.3523 149.373 17.5053V30.0131L137.648 16.1769C137.247 15.7006 136.671 15.4249 136.02 15.4249C134.742 15.4249 133.89 16.5027 133.94 17.6307V35.703C133.94 36.881 134.867 37.8085 136.02 37.8085C137.172 37.8085 138.124 36.881 138.124 35.703V23.2203L149.849 37.0565C149.849 37.0565 149.849 37.0314 149.824 37.0314C149.849 37.0565 149.874 37.0816 149.899 37.1066C149.899 37.1317 149.924 37.1317 149.924 37.1317C149.95 37.1568 149.975 37.1818 149.975 37.2069C150 37.2069 150 37.2069 150 37.2069C150.075 37.2821 150.125 37.3322 150.2 37.3824L150.225 37.4074C150.25 37.4325 150.275 37.4325 150.3 37.4575C150.325 37.4826 150.35 37.4826 150.375 37.5077C150.4 37.5327 150.451 37.5578 150.476 37.5829C150.501 37.5829 150.501 37.5829 150.526 37.6079C150.551 37.6079 150.551 37.6079 150.576 37.6079C150.576 37.633 150.601 37.633 150.601 37.633H150.626C150.601 37.633 150.601 37.633 150.601 37.633C150.601 37.633 150.601 37.633 150.576 37.6079C150.651 37.633 150.701 37.6581 150.751 37.6831C150.776 37.6831 150.801 37.7082 150.801 37.7082C150.851 37.7082 150.902 37.7333 150.927 37.7333C150.952 37.7583 150.977 37.7583 150.977 37.7583C151.027 37.7583 151.077 37.7834 151.102 37.7834C151.127 37.7834 151.152 37.7834 151.152 37.7834C151.227 37.8085 151.277 37.8085 151.327 37.8085H151.353C151.403 37.8085 151.453 37.8085 151.503 37.8085C151.528 37.8085 151.528 37.8085 151.553 37.8085C151.578 37.8085 151.628 37.8085 151.653 37.8085C151.678 37.8085 151.703 37.8085 151.703 37.8085C151.753 37.8085 151.803 37.7834 151.829 37.7834C151.854 37.7834 151.854 37.7834 151.854 37.7834C151.854 37.7834 151.854 37.7834 151.879 37.7834C151.929 37.7834 151.979 37.7583 152.029 37.7333H152.054C152.104 37.7082 152.129 37.7082 152.154 37.6831C152.179 37.6831 152.204 37.6831 152.229 37.6831C152.254 37.6581 152.28 37.6581 152.305 37.633C152.33 37.633 152.355 37.6079 152.355 37.6079C152.405 37.5829 152.43 37.5578 152.48 37.5578C152.48 37.5327 152.48 37.5327 152.505 37.5327C152.505 37.5327 152.505 37.5327 152.53 37.5327C152.555 37.5077 152.58 37.4826 152.63 37.4575C152.63 37.4325 152.655 37.4325 152.68 37.4074C152.705 37.4074 152.73 37.3824 152.73 37.3573C152.756 37.3573 152.781 37.3322 152.806 37.3322C152.806 37.3072 152.831 37.2821 152.856 37.257C152.881 37.257 152.881 37.232 152.906 37.2069C152.931 37.1818 152.956 37.1568 153.006 37.1317C153.006 37.1066 153.031 37.0816 153.056 37.0565C153.056 37.0314 153.081 37.0314 153.106 37.0064Z" fill="#04242D"/>
<path d="M172.452 33.6476H162.781L174.081 18.8088L174.106 18.7837C174.131 18.7586 174.131 18.7586 174.156 18.7336C174.156 18.7085 174.181 18.6834 174.181 18.6834C174.206 18.6584 174.206 18.6333 174.206 18.6333C174.231 18.6082 174.231 18.6082 174.231 18.5832C174.256 18.5581 174.281 18.533 174.281 18.508C174.306 18.4829 174.306 18.4829 174.306 18.4578C174.331 18.4328 174.331 18.4328 174.331 18.4077C174.356 18.3826 174.356 18.3826 174.356 18.3576C174.356 18.3325 174.381 18.3074 174.381 18.3074C174.381 18.2824 174.406 18.2573 174.406 18.2573V18.2322C174.406 18.2072 174.431 18.1821 174.431 18.1821C174.431 18.1571 174.431 18.132 174.456 18.1069C174.456 18.0819 174.456 18.0568 174.456 18.0568C174.481 18.0317 174.481 18.0067 174.481 18.0067V17.9816C174.481 17.9565 174.481 17.9315 174.507 17.9064C174.507 17.9064 174.507 17.8813 174.507 17.8563C174.507 17.8312 174.507 17.8061 174.507 17.7811C174.507 17.756 174.532 17.7309 174.532 17.7309C174.532 17.7059 174.532 17.6808 174.532 17.6808C174.532 17.6557 174.532 17.6056 174.532 17.5805C174.532 17.5555 174.532 17.5304 174.532 17.5304C174.532 17.5053 174.532 17.4803 174.532 17.4552V17.4301C174.532 17.4051 174.532 17.38 174.532 17.38C174.532 17.3299 174.532 17.3048 174.507 17.2798C174.507 17.2547 174.507 17.2296 174.507 17.2296C174.507 17.2046 174.507 17.1795 174.507 17.1544C174.507 17.1294 174.481 17.1043 174.481 17.0792C174.481 17.0542 174.481 17.0291 174.481 17.004C174.456 17.004 174.456 16.979 174.456 16.9539C174.456 16.9288 174.431 16.9038 174.431 16.8787C174.431 16.8536 174.406 16.8286 174.406 16.8035C174.406 16.7784 174.381 16.7784 174.381 16.7534C174.381 16.7283 174.356 16.7032 174.356 16.6782C174.356 16.6531 174.331 16.628 174.331 16.603L174.306 16.5779C174.306 16.5529 174.306 16.5529 174.306 16.5529C174.281 16.5278 174.281 16.5278 174.281 16.5027C174.256 16.4777 174.231 16.4526 174.231 16.4275C174.206 16.4025 174.206 16.4025 174.181 16.3774C174.181 16.3523 174.181 16.3523 174.156 16.3273C174.156 16.3022 174.131 16.2771 174.106 16.2521C174.106 16.2521 174.081 16.227 174.081 16.2019C174.056 16.2019 174.056 16.1769 174.031 16.1769C174.031 16.1518 174.005 16.1267 173.98 16.1017C173.955 16.0766 173.955 16.0766 173.93 16.0515L173.905 16.0265C173.88 16.0014 173.855 15.9763 173.83 15.9513L173.805 15.9262C173.78 15.9262 173.78 15.9262 173.78 15.9011H173.755C173.755 15.8761 173.73 15.8761 173.705 15.851C173.68 15.851 173.68 15.826 173.655 15.8009C173.63 15.8009 173.605 15.7758 173.605 15.7758C173.58 15.7758 173.554 15.7508 173.554 15.7508C173.529 15.7257 173.529 15.7257 173.504 15.7257C173.479 15.7006 173.454 15.7006 173.454 15.6756C173.429 15.6756 173.429 15.6756 173.429 15.6756C173.404 15.6756 173.404 15.6505 173.379 15.6505C173.354 15.6505 173.354 15.6254 173.329 15.6254C173.304 15.6254 173.304 15.6004 173.279 15.6004C173.254 15.6004 173.229 15.5753 173.229 15.5753C173.204 15.5753 173.179 15.5502 173.154 15.5502C173.129 15.5502 173.129 15.5502 173.104 15.5252C173.078 15.5252 173.053 15.5252 173.028 15.5001C173.003 15.5001 173.003 15.5001 172.978 15.5001C172.953 15.5001 172.928 15.475 172.903 15.475C172.878 15.475 172.853 15.475 172.828 15.475C172.828 15.475 172.803 15.45 172.778 15.45C172.753 15.45 172.728 15.45 172.703 15.45C172.678 15.45 172.653 15.45 172.653 15.4249C172.627 15.4249 172.602 15.4249 172.602 15.4249C172.577 15.4249 172.527 15.4249 172.502 15.4249C172.477 15.4249 172.452 15.4249 172.452 15.4249H158.547C157.395 15.4249 156.468 16.3774 156.468 17.5304C156.468 18.6834 157.395 19.6109 158.547 19.6109H168.218L156.894 34.4497C156.869 34.4747 156.869 34.4998 156.844 34.4998C156.819 34.5249 156.819 34.5499 156.793 34.575C156.793 34.6001 156.768 34.6001 156.768 34.6251C156.768 34.6502 156.743 34.6502 156.743 34.6753C156.718 34.7003 156.718 34.7254 156.693 34.7505C156.693 34.7755 156.693 34.7755 156.668 34.8006C156.668 34.8257 156.643 34.8507 156.643 34.8758C156.643 34.8758 156.618 34.9009 156.618 34.9259C156.618 34.951 156.593 34.951 156.593 34.9761C156.593 35.0011 156.568 35.0262 156.568 35.0513C156.568 35.0513 156.568 35.0763 156.543 35.1014C156.543 35.1014 156.543 35.1014 156.543 35.1264C156.543 35.1264 156.543 35.1515 156.543 35.1766C156.518 35.1766 156.518 35.2016 156.518 35.2267C156.518 35.2518 156.518 35.2518 156.493 35.2768C156.493 35.3019 156.493 35.327 156.493 35.352V35.3771C156.493 35.4022 156.493 35.4022 156.468 35.4022C156.468 35.4272 156.468 35.4523 156.468 35.4774C156.468 35.5024 156.468 35.5275 156.468 35.5275C156.468 35.5526 156.468 35.5776 156.468 35.5776C156.468 35.6027 156.468 35.6278 156.468 35.6528C156.468 35.6779 156.468 35.703 156.468 35.728C156.468 35.7531 156.468 35.7782 156.468 35.8032C156.468 35.8533 156.468 35.9035 156.468 35.9285C156.468 35.9536 156.468 35.9536 156.468 35.9536C156.468 35.9787 156.468 35.9787 156.468 35.9787C156.468 36.0037 156.468 36.0037 156.468 36.0037C156.493 36.0539 156.493 36.104 156.493 36.1291C156.493 36.1541 156.493 36.1541 156.493 36.1792H156.518C156.518 36.2043 156.518 36.2043 156.518 36.2293C156.518 36.2544 156.543 36.2795 156.543 36.3296V36.3547C156.568 36.3797 156.568 36.3797 156.568 36.3797C156.568 36.4048 156.568 36.4048 156.568 36.4048C156.593 36.4549 156.593 36.48 156.618 36.5301V36.5552L156.643 36.5803C156.643 36.5803 156.643 36.5803 156.643 36.6053C156.643 36.6304 156.668 36.6554 156.693 36.6805C156.693 36.6805 156.693 36.6805 156.693 36.7056C156.693 36.7056 156.718 36.7306 156.718 36.7557C156.743 36.7557 156.743 36.7808 156.768 36.8058C156.768 36.8309 156.793 36.856 156.793 36.881C156.819 36.881 156.819 36.9061 156.819 36.9061C156.844 36.9312 156.869 36.9562 156.869 36.9813C156.894 37.0064 156.894 37.0314 156.919 37.0314C156.919 37.0565 156.944 37.0565 156.944 37.0816C156.969 37.1066 156.994 37.1317 157.019 37.1317C157.019 37.1568 157.044 37.1818 157.044 37.1818C157.069 37.2069 157.069 37.2069 157.094 37.232C157.119 37.257 157.119 37.257 157.144 37.2821C157.169 37.3072 157.169 37.3072 157.194 37.3322C157.194 37.3322 157.194 37.3322 157.219 37.3322V37.3573C157.244 37.3573 157.27 37.3824 157.27 37.3824C157.295 37.4074 157.32 37.4074 157.345 37.4325C157.345 37.4575 157.37 37.4575 157.395 37.4826C157.42 37.4826 157.42 37.4826 157.42 37.4826C157.445 37.5077 157.445 37.5077 157.47 37.5077C157.47 37.5327 157.495 37.5327 157.495 37.5327C157.52 37.5578 157.545 37.5578 157.57 37.5829C157.595 37.5829 157.62 37.6079 157.645 37.6079C157.67 37.633 157.695 37.633 157.72 37.6581C157.746 37.6581 157.746 37.6581 157.746 37.6581C157.771 37.6581 157.796 37.6831 157.796 37.6831C157.821 37.6831 157.846 37.7082 157.896 37.7082C157.896 37.7082 157.896 37.7082 157.921 37.7333C157.921 37.7333 157.946 37.7333 157.971 37.7333C157.996 37.7333 158.021 37.7583 158.046 37.7583C158.071 37.7583 158.071 37.7583 158.096 37.7583C158.121 37.7834 158.146 37.7834 158.146 37.7834C158.171 37.7834 158.197 37.7834 158.222 37.7834C158.247 37.8085 158.272 37.8085 158.297 37.8085C158.322 37.8085 158.322 37.8085 158.347 37.8085C158.422 37.8085 158.472 37.8085 158.547 37.8085H172.452C173.605 37.8085 174.532 36.881 174.532 35.728C174.532 34.575 173.605 33.6476 172.452 33.6476Z" fill="#04242D"/>
<path d="M198.82 34.7755L189.6 16.603C189.6 16.628 189.625 16.6531 189.625 16.6782C189.5 16.3523 189.275 16.0766 188.974 15.851C188.949 15.826 188.949 15.826 188.924 15.8009C188.874 15.7758 188.849 15.7508 188.824 15.7508C188.773 15.7257 188.723 15.7006 188.698 15.6756C188.673 15.6505 188.673 15.6505 188.673 15.6505C188.598 15.6254 188.548 15.6004 188.473 15.5753C188.348 15.5252 188.222 15.475 188.097 15.45C188.072 15.45 188.072 15.45 188.047 15.45C187.997 15.45 187.947 15.45 187.897 15.4249C187.872 15.4249 187.872 15.4249 187.872 15.4249C187.821 15.4249 187.771 15.4249 187.721 15.4249H187.696C187.671 15.4249 187.646 15.4249 187.646 15.4249C187.07 15.45 186.594 15.7006 186.243 16.0515C186.218 16.0515 186.218 16.0766 186.218 16.0766C186.168 16.1267 186.118 16.1518 186.093 16.2019C186.093 16.227 186.093 16.227 186.068 16.227C186.043 16.2771 186.018 16.3273 185.993 16.3523C185.967 16.3774 185.967 16.3774 185.942 16.4025C185.917 16.4526 185.892 16.5027 185.867 16.5529V16.5779L176.622 34.7755C175.896 36.1792 176.923 37.8085 178.476 37.8085C179.228 37.8085 179.98 37.4074 180.355 36.6805L181.809 33.798H193.634L195.112 36.6805C195.613 37.7082 196.891 38.1093 197.918 37.5829C198.945 37.0816 199.346 35.8032 198.82 34.7755ZM189.675 16.7534C189.675 16.7534 189.65 16.7534 189.65 16.7283C189.65 16.7283 189.65 16.7032 189.65 16.6782C189.65 16.7032 189.65 16.7283 189.675 16.7534ZM187.721 22.1425L191.504 29.612H183.938L187.721 22.1425Z" fill="#04242D"/>
<path d="M217.475 31.4669C216.973 31.4669 216.447 31.6674 216.046 32.0434C214.694 33.3217 212.89 34.0486 211.011 34.0486C206.952 34.0486 203.645 30.74 203.645 26.6793C203.645 22.6187 206.952 19.3101 211.011 19.3101C212.94 19.3101 214.744 20.037 216.122 21.3654C216.948 22.1675 218.276 22.1425 219.078 21.3153C219.88 20.4881 219.855 19.1597 219.028 18.3576C216.848 16.2771 214.017 15.1241 211.011 15.1241C204.647 15.1241 199.486 20.3127 199.486 26.6793C199.486 33.046 204.647 38.2095 211.011 38.2095C213.967 38.2095 216.773 37.1066 218.903 35.1014C220.306 33.798 219.379 31.4669 217.475 31.4669Z" fill="#04242D"/>
<path d="M238.896 15.4249H223.638C222.486 15.4249 221.559 16.3774 221.559 17.5304C221.559 18.6834 222.486 19.6109 223.638 19.6109H229.175V35.728C229.175 36.881 230.127 37.8085 231.28 37.8085C232.432 37.8085 233.359 36.881 233.359 35.728V19.6109H238.896C240.073 19.6109 241 18.6834 241 17.5304C241 16.3774 240.073 15.4249 238.896 15.4249Z" fill="#04242D"/>
<path d="M0.587891 75L2.7002 65.0059H5.03125C6.24349 65.0059 7.19141 65.334 7.875 65.9902C8.56315 66.6419 8.90723 67.6445 8.90723 68.998C8.90723 69.6816 8.8252 70.3265 8.66113 70.9326C8.49707 71.5387 8.25326 72.0902 7.92969 72.5869C7.60612 73.0837 7.20736 73.512 6.7334 73.8721C6.25944 74.2321 5.71029 74.5101 5.08594 74.7061C4.46159 74.902 3.7666 75 3.00098 75H0.587891ZM1.94824 74.002H3.06934C3.6709 74.002 4.21549 73.9199 4.70312 73.7559C5.19076 73.5872 5.61914 73.3503 5.98828 73.0449C6.36198 72.7396 6.67415 72.3796 6.9248 71.9648C7.18001 71.5456 7.37142 71.0853 7.49902 70.584C7.62663 70.0781 7.69043 69.5449 7.69043 68.9844C7.69043 67.9362 7.43522 67.1774 6.9248 66.708C6.41895 66.234 5.73763 65.9971 4.88086 65.9971H3.65039L1.94824 74.002ZM9.74805 75L11.3408 67.5078H12.4824L10.8896 75H9.74805ZM12.2979 66.1953C12.1156 66.1953 11.9629 66.1429 11.8398 66.0381C11.7214 65.9287 11.6621 65.776 11.6621 65.5801C11.6621 65.4297 11.6917 65.2884 11.751 65.1562C11.8148 65.0241 11.9036 64.9193 12.0176 64.8418C12.1361 64.7598 12.2796 64.7188 12.4482 64.7188C12.6488 64.7188 12.7992 64.7712 12.8994 64.876C12.9997 64.9808 13.0498 65.1266 13.0498 65.3135C13.0498 65.5824 12.9723 65.7965 12.8174 65.9561C12.6624 66.1156 12.4893 66.1953 12.2979 66.1953ZM15.0596 78.3633C14.18 78.3633 13.4919 78.1947 12.9951 77.8574C12.4984 77.5247 12.25 77.0553 12.25 76.4492C12.25 75.9616 12.4163 75.5378 12.749 75.1777C13.0771 74.8223 13.6058 74.5238 14.335 74.2822C14.1618 74.1911 14.0296 74.0771 13.9385 73.9404C13.8519 73.7992 13.8086 73.6374 13.8086 73.4551C13.8086 73.1452 13.9225 72.8786 14.1504 72.6553C14.3783 72.4274 14.6973 72.2178 15.1074 72.0264C14.8158 71.876 14.5811 71.6549 14.4033 71.3633C14.2256 71.0716 14.1367 70.7367 14.1367 70.3584C14.1413 69.9072 14.2188 69.4948 14.3691 69.1211C14.5195 68.7474 14.7314 68.4284 15.0049 68.1641C15.2601 67.918 15.5586 67.7266 15.9004 67.5898C16.2467 67.4531 16.6227 67.3848 17.0283 67.3848C17.2015 67.3848 17.3747 67.3962 17.5479 67.4189C17.721 67.4417 17.8919 67.4759 18.0605 67.5215H20.5898L20.4258 68.2119L18.9424 68.3623C19.0472 68.5036 19.1247 68.6699 19.1748 68.8613C19.2295 69.0527 19.2546 69.2646 19.25 69.4971C19.25 69.9437 19.1748 70.347 19.0244 70.707C18.874 71.0671 18.6598 71.3724 18.3818 71.623C18.1312 71.8464 17.8327 72.0195 17.4863 72.1426C17.1445 72.2611 16.7617 72.3226 16.3379 72.3271C16.2148 72.3271 16.1055 72.3226 16.0098 72.3135C15.9141 72.3044 15.832 72.2907 15.7637 72.2725C15.431 72.391 15.1849 72.5299 15.0254 72.6895C14.8659 72.849 14.7861 73.0176 14.7861 73.1953C14.7861 73.3229 14.8249 73.4255 14.9023 73.5029C14.9753 73.5713 15.0755 73.6237 15.2031 73.6602C15.3353 73.6921 15.4971 73.7194 15.6885 73.7422L16.4951 73.8311C17.042 73.8949 17.4886 74.0042 17.835 74.1592C18.1813 74.3096 18.4365 74.5146 18.6006 74.7744C18.7646 75.0342 18.8467 75.3555 18.8467 75.7383C18.8467 76.2214 18.735 76.6383 18.5117 76.9893C18.2884 77.3447 17.9671 77.6341 17.5479 77.8574C17.2288 78.0215 16.8597 78.1468 16.4404 78.2334C16.0257 78.32 15.5654 78.3633 15.0596 78.3633ZM15.1074 77.5361C15.5221 77.5361 15.8913 77.4997 16.2148 77.4268C16.543 77.3538 16.821 77.249 17.0488 77.1123C17.2949 76.9619 17.4818 76.7796 17.6094 76.5654C17.7415 76.3512 17.8076 76.1051 17.8076 75.8271C17.8076 75.7041 17.7871 75.5924 17.7461 75.4922C17.7096 75.3919 17.6504 75.3031 17.5684 75.2256C17.4408 75.1025 17.2585 75.0023 17.0215 74.9248C16.7845 74.8473 16.4837 74.7926 16.1191 74.7607L15.0254 74.6514C14.6426 74.7334 14.3213 74.8542 14.0615 75.0137C13.8063 75.1777 13.6126 75.3714 13.4805 75.5947C13.3483 75.818 13.2822 76.0687 13.2822 76.3467C13.2822 76.7204 13.4372 77.012 13.7471 77.2217C14.057 77.4313 14.5104 77.5361 15.1074 77.5361ZM16.3857 71.5752C16.7777 71.5752 17.1081 71.4772 17.377 71.2812C17.6504 71.0807 17.86 70.8164 18.0059 70.4883C18.1517 70.1556 18.2246 69.7933 18.2246 69.4014C18.2246 69.2054 18.1973 69.0322 18.1426 68.8818C18.0924 68.7269 18.015 68.5993 17.9102 68.499C17.8099 68.3942 17.6823 68.3145 17.5273 68.2598C17.377 68.2051 17.2038 68.1777 17.0078 68.1777C16.7207 68.1777 16.4632 68.2347 16.2354 68.3486C16.0075 68.458 15.8138 68.6107 15.6543 68.8066C15.4993 69.0026 15.3786 69.2305 15.292 69.4902C15.21 69.75 15.1689 70.028 15.1689 70.3242C15.1689 70.5156 15.194 70.6865 15.2441 70.8369C15.2943 70.9873 15.3672 71.1149 15.4629 71.2197C15.6725 71.4567 15.9801 71.5752 16.3857 71.5752ZM20.5625 75L22.1553 67.5078H23.2969L21.7041 75H20.5625ZM23.1123 66.1953C22.93 66.1953 22.7773 66.1429 22.6543 66.0381C22.5358 65.9287 22.4766 65.776 22.4766 65.5801C22.4766 65.4297 22.5062 65.2884 22.5654 65.1562C22.6292 65.0241 22.7181 64.9193 22.832 64.8418C22.9505 64.7598 23.0941 64.7188 23.2627 64.7188C23.4632 64.7188 23.6136 64.7712 23.7139 64.876C23.8141 64.9808 23.8643 65.1266 23.8643 65.3135C23.8643 65.5824 23.7868 65.7965 23.6318 65.9561C23.4769 66.1156 23.3037 66.1953 23.1123 66.1953ZM26.2363 75.1367C25.7396 75.1367 25.3249 75.0182 24.9922 74.7812C24.6641 74.5397 24.5 74.1273 24.5 73.5439C24.5 73.4027 24.5091 73.25 24.5273 73.0859C24.5456 72.9173 24.5752 72.7441 24.6162 72.5664L25.498 68.376H24.3428L24.4521 67.8496L25.6963 67.3711L26.5166 65.7852H27.1934L26.8174 67.5078H28.7451L28.5674 68.376H26.6465L25.7578 72.5801C25.7259 72.7077 25.6963 72.8444 25.6689 72.9902C25.6462 73.1361 25.6348 73.2751 25.6348 73.4072C25.6348 73.6351 25.694 73.8265 25.8125 73.9814C25.931 74.1318 26.1292 74.207 26.4072 74.207C26.5804 74.207 26.7445 74.1911 26.8994 74.1592C27.0589 74.1273 27.2275 74.0817 27.4053 74.0225V74.8975C27.2913 74.9521 27.1182 75.0046 26.8857 75.0547C26.6579 75.1094 26.4414 75.1367 26.2363 75.1367ZM28.7246 75L30.3174 67.5078H31.459L29.8662 75H28.7246ZM31.2744 66.1953C31.0921 66.1953 30.9395 66.1429 30.8164 66.0381C30.6979 65.9287 30.6387 65.776 30.6387 65.5801C30.6387 65.4297 30.6683 65.2884 30.7275 65.1562C30.7913 65.0241 30.8802 64.9193 30.9941 64.8418C31.1126 64.7598 31.2562 64.7188 31.4248 64.7188C31.6253 64.7188 31.7757 64.7712 31.876 64.876C31.9762 64.9808 32.0264 65.1266 32.0264 65.3135C32.0264 65.5824 31.9489 65.7965 31.7939 65.9561C31.639 66.1156 31.4658 66.1953 31.2744 66.1953ZM31.6572 75L31.8145 74.2275L36.5859 68.3691H33.2842L33.4619 67.5078H38.0078L37.8301 68.417L33.1338 74.1387H36.791L36.6201 75H31.6572ZM38.4863 75L40.0791 67.5078H41.2207L39.6279 75H38.4863ZM41.0361 66.1953C40.8538 66.1953 40.7012 66.1429 40.5781 66.0381C40.4596 65.9287 40.4004 65.776 40.4004 65.5801C40.4004 65.4297 40.43 65.2884 40.4893 65.1562C40.5531 65.0241 40.6419 64.9193 40.7559 64.8418C40.8743 64.7598 41.0179 64.7188 41.1865 64.7188C41.387 64.7188 41.5374 64.7712 41.6377 64.876C41.738 64.9808 41.7881 65.1266 41.7881 65.3135C41.7881 65.5824 41.7106 65.7965 41.5557 65.9561C41.4007 66.1156 41.2275 66.1953 41.0361 66.1953ZM41.9795 75L43.5859 67.4736H44.5908L44.4131 68.916H44.4268C44.5999 68.679 44.8073 68.4398 45.0488 68.1982C45.2949 67.9521 45.5798 67.7471 45.9033 67.583C46.2314 67.4144 46.6029 67.3301 47.0176 67.3301C47.4186 67.3301 47.7627 67.4053 48.0498 67.5557C48.3369 67.7015 48.5579 67.9157 48.7129 68.1982C48.8678 68.4762 48.9453 68.8135 48.9453 69.21C48.9453 69.4196 48.9294 69.6315 48.8975 69.8457C48.8656 70.0599 48.8314 70.2513 48.7949 70.4199L47.7969 75H46.5869L47.5986 70.2695C47.6396 70.0645 47.6715 69.889 47.6943 69.7432C47.7217 69.5973 47.7354 69.4606 47.7354 69.333C47.7354 69.014 47.6488 68.7725 47.4756 68.6084C47.3024 68.4443 47.0472 68.3623 46.71 68.3623C46.3773 68.3623 46.0264 68.4762 45.6572 68.7041C45.2881 68.932 44.9463 69.292 44.6318 69.7842C44.3174 70.2718 44.0736 70.9098 43.9004 71.6982L43.1963 75H41.9795ZM51.8643 78.3633C50.9847 78.3633 50.2965 78.1947 49.7998 77.8574C49.3031 77.5247 49.0547 77.0553 49.0547 76.4492C49.0547 75.9616 49.221 75.5378 49.5537 75.1777C49.8818 74.8223 50.4105 74.5238 51.1396 74.2822C50.9665 74.1911 50.8343 74.0771 50.7432 73.9404C50.6566 73.7992 50.6133 73.6374 50.6133 73.4551C50.6133 73.1452 50.7272 72.8786 50.9551 72.6553C51.1829 72.4274 51.502 72.2178 51.9121 72.0264C51.6204 71.876 51.3857 71.6549 51.208 71.3633C51.0303 71.0716 50.9414 70.7367 50.9414 70.3584C50.946 69.9072 51.0234 69.4948 51.1738 69.1211C51.3242 68.7474 51.5361 68.4284 51.8096 68.1641C52.0648 67.918 52.3633 67.7266 52.7051 67.5898C53.0514 67.4531 53.4274 67.3848 53.833 67.3848C54.0062 67.3848 54.1794 67.3962 54.3525 67.4189C54.5257 67.4417 54.6966 67.4759 54.8652 67.5215H57.3945L57.2305 68.2119L55.7471 68.3623C55.8519 68.5036 55.9294 68.6699 55.9795 68.8613C56.0342 69.0527 56.0592 69.2646 56.0547 69.4971C56.0547 69.9437 55.9795 70.347 55.8291 70.707C55.6787 71.0671 55.4645 71.3724 55.1865 71.623C54.9359 71.8464 54.6374 72.0195 54.291 72.1426C53.9492 72.2611 53.5664 72.3226 53.1426 72.3271C53.0195 72.3271 52.9102 72.3226 52.8145 72.3135C52.7188 72.3044 52.6367 72.2907 52.5684 72.2725C52.2357 72.391 51.9896 72.5299 51.8301 72.6895C51.6706 72.849 51.5908 73.0176 51.5908 73.1953C51.5908 73.3229 51.6296 73.4255 51.707 73.5029C51.7799 73.5713 51.8802 73.6237 52.0078 73.6602C52.14 73.6921 52.3018 73.7194 52.4932 73.7422L53.2998 73.8311C53.8467 73.8949 54.2933 74.0042 54.6396 74.1592C54.986 74.3096 55.2412 74.5146 55.4053 74.7744C55.5693 75.0342 55.6514 75.3555 55.6514 75.7383C55.6514 76.2214 55.5397 76.6383 55.3164 76.9893C55.0931 77.3447 54.7718 77.6341 54.3525 77.8574C54.0335 78.0215 53.6644 78.1468 53.2451 78.2334C52.8304 78.32 52.3701 78.3633 51.8643 78.3633ZM51.9121 77.5361C52.3268 77.5361 52.696 77.4997 53.0195 77.4268C53.3477 77.3538 53.6257 77.249 53.8535 77.1123C54.0996 76.9619 54.2865 76.7796 54.4141 76.5654C54.5462 76.3512 54.6123 76.1051 54.6123 75.8271C54.6123 75.7041 54.5918 75.5924 54.5508 75.4922C54.5143 75.3919 54.4551 75.3031 54.373 75.2256C54.2454 75.1025 54.0632 75.0023 53.8262 74.9248C53.5892 74.8473 53.2884 74.7926 52.9238 74.7607L51.8301 74.6514C51.4473 74.7334 51.126 74.8542 50.8662 75.0137C50.611 75.1777 50.4173 75.3714 50.2852 75.5947C50.153 75.818 50.0869 76.0687 50.0869 76.3467C50.0869 76.7204 50.2419 77.012 50.5518 77.2217C50.8617 77.4313 51.3151 77.5361 51.9121 77.5361ZM53.1904 71.5752C53.5824 71.5752 53.9128 71.4772 54.1816 71.2812C54.4551 71.0807 54.6647 70.8164 54.8105 70.4883C54.9564 70.1556 55.0293 69.7933 55.0293 69.4014C55.0293 69.2054 55.002 69.0322 54.9473 68.8818C54.8971 68.7269 54.8197 68.5993 54.7148 68.499C54.6146 68.3942 54.487 68.3145 54.332 68.2598C54.1816 68.2051 54.0085 68.1777 53.8125 68.1777C53.5254 68.1777 53.2679 68.2347 53.04 68.3486C52.8122 68.458 52.6185 68.6107 52.459 68.8066C52.304 69.0026 52.1833 69.2305 52.0967 69.4902C52.0146 69.75 51.9736 70.028 51.9736 70.3242C51.9736 70.5156 51.9987 70.6865 52.0488 70.8369C52.099 70.9873 52.1719 71.1149 52.2676 71.2197C52.4772 71.4567 52.7848 71.5752 53.1904 71.5752ZM61.1816 75L63.2939 65.0059H64.9277L65.9668 73.2979H66.0215L70.5879 65.0059H72.3584L70.2803 75H69.1182L70.4307 68.793C70.5127 68.4193 70.5924 68.0684 70.6699 67.7402C70.7474 67.4121 70.818 67.1136 70.8818 66.8447C70.9502 66.5713 71.0117 66.3389 71.0664 66.1475H71.0391L66.1172 75H65.208L64.0732 66.1543H64.0186C64.0003 66.3411 63.9684 66.5804 63.9229 66.8721C63.8818 67.1592 63.8317 67.4668 63.7725 67.7949C63.7178 68.1185 63.6585 68.4307 63.5947 68.7314L62.2754 75H61.1816ZM75.0312 75.1367C74.6257 75.1367 74.2702 75.0387 73.9648 74.8428C73.6595 74.6468 73.4225 74.3574 73.2539 73.9746C73.0853 73.5918 73.001 73.1247 73.001 72.5732C73.001 72.0218 73.0579 71.4909 73.1719 70.9805C73.2904 70.4701 73.4567 69.9961 73.6709 69.5586C73.8851 69.1211 74.1426 68.7383 74.4434 68.4102C74.7487 68.082 75.0905 67.8268 75.4688 67.6445C75.847 67.4622 76.2549 67.3711 76.6924 67.3711C77.0296 67.3711 77.3213 67.4349 77.5674 67.5625C77.818 67.6901 78.0254 67.8587 78.1895 68.0684C78.3581 68.2734 78.4902 68.4922 78.5859 68.7246H78.6543L79.0918 67.5078H79.96L78.374 75H77.4648L77.6699 73.5508H77.6152C77.4102 73.8242 77.1755 74.0817 76.9111 74.3232C76.6468 74.5648 76.3574 74.7607 76.043 74.9111C75.7285 75.0615 75.3913 75.1367 75.0312 75.1367ZM75.4004 74.1934C75.7513 74.1934 76.0977 74.0658 76.4395 73.8105C76.7858 73.5508 77.0957 73.2021 77.3691 72.7646C77.6471 72.3226 77.859 71.8258 78.0049 71.2744C78.0778 71.0055 78.1257 70.7594 78.1484 70.5361C78.1758 70.3083 78.1895 70.0964 78.1895 69.9004C78.1895 69.431 78.0641 69.0527 77.8135 68.7656C77.5674 68.474 77.2301 68.3281 76.8018 68.3281C76.4964 68.3281 76.2093 68.4056 75.9404 68.5605C75.6715 68.7109 75.4277 68.9229 75.209 69.1963C74.9948 69.4652 74.8102 69.7796 74.6553 70.1396C74.5003 70.4951 74.3796 70.8825 74.293 71.3018C74.2109 71.721 74.1699 72.1517 74.1699 72.5938C74.1699 73.1178 74.277 73.5166 74.4912 73.79C74.7054 74.0589 75.0085 74.1934 75.4004 74.1934ZM80.5889 75L82.1953 67.4736H83.2002L83.0225 68.916H83.0361C83.2093 68.679 83.4167 68.4398 83.6582 68.1982C83.9043 67.9521 84.1891 67.7471 84.5127 67.583C84.8408 67.4144 85.2122 67.3301 85.627 67.3301C86.028 67.3301 86.3721 67.4053 86.6592 67.5557C86.9463 67.7015 87.1673 67.9157 87.3223 68.1982C87.4772 68.4762 87.5547 68.8135 87.5547 69.21C87.5547 69.4196 87.5387 69.6315 87.5068 69.8457C87.4749 70.0599 87.4408 70.2513 87.4043 70.4199L86.4062 75H85.1963L86.208 70.2695C86.249 70.0645 86.2809 69.889 86.3037 69.7432C86.3311 69.5973 86.3447 69.4606 86.3447 69.333C86.3447 69.014 86.2581 68.7725 86.085 68.6084C85.9118 68.4443 85.6566 68.3623 85.3193 68.3623C84.9867 68.3623 84.6357 68.4762 84.2666 68.7041C83.8975 68.932 83.5557 69.292 83.2412 69.7842C82.9268 70.2718 82.6829 70.9098 82.5098 71.6982L81.8057 75H80.5889ZM90.9521 75.1367C90.5739 75.1367 90.2435 75.0661 89.9609 74.9248C89.6784 74.7835 89.4596 74.5762 89.3047 74.3027C89.1543 74.0247 89.0791 73.6852 89.0791 73.2842C89.0791 73.0837 89.0928 72.89 89.1201 72.7031C89.152 72.5117 89.1862 72.3135 89.2227 72.1084L90.2139 67.5078H91.3623L90.3438 72.2383C90.3073 72.4342 90.2777 72.6097 90.2549 72.7646C90.2367 72.915 90.2275 73.0495 90.2275 73.168C90.2275 73.4915 90.3096 73.7445 90.4736 73.9268C90.6423 74.1045 90.9089 74.1934 91.2734 74.1934C91.6152 74.1934 91.973 74.0771 92.3467 73.8447C92.7249 73.6123 93.0736 73.2477 93.3926 72.751C93.7161 72.2497 93.9622 71.6003 94.1309 70.8027L94.8281 67.5078H95.9492L94.3633 75H93.4268L93.6113 73.5508H93.5498C93.3766 73.7878 93.167 74.0293 92.9209 74.2754C92.6748 74.5169 92.39 74.722 92.0664 74.8906C91.7428 75.0547 91.3714 75.1367 90.9521 75.1367ZM95.6689 78.3633C95.4912 78.3633 95.3271 78.3496 95.1768 78.3223C95.0264 78.2949 94.8942 78.2607 94.7803 78.2197V77.2559C94.9033 77.3014 95.0286 77.3379 95.1562 77.3652C95.2839 77.3971 95.4206 77.4131 95.5664 77.4131C95.9036 77.4131 96.1657 77.2786 96.3525 77.0098C96.5394 76.7409 96.6898 76.3512 96.8037 75.8408L98.376 68.376H97.0703L97.166 67.8906L98.5537 67.4736L98.7178 66.749C98.8226 66.2842 98.9479 65.8945 99.0938 65.5801C99.2441 65.2611 99.4196 65.0081 99.6201 64.8213C99.8206 64.6299 100.053 64.4932 100.317 64.4111C100.586 64.3291 100.894 64.2881 101.24 64.2881C101.468 64.2881 101.701 64.3154 101.938 64.3701C102.179 64.4202 102.375 64.4795 102.525 64.5479L102.231 65.416C102.095 65.3659 101.949 65.3226 101.794 65.2861C101.639 65.2451 101.47 65.2246 101.288 65.2246C100.901 65.2246 100.595 65.334 100.372 65.5527C100.153 65.7669 99.9801 66.168 99.8525 66.7559L99.6816 67.5078H101.295L101.131 68.376H99.5107L97.9111 75.9707C97.8018 76.472 97.6536 76.9004 97.4668 77.2559C97.2799 77.6159 97.0407 77.8893 96.749 78.0762C96.4574 78.2676 96.0973 78.3633 95.6689 78.3633ZM103.455 75.1367C103.049 75.1367 102.694 75.0387 102.389 74.8428C102.083 74.6468 101.846 74.3574 101.678 73.9746C101.509 73.5918 101.425 73.1247 101.425 72.5732C101.425 72.0218 101.482 71.4909 101.596 70.9805C101.714 70.4701 101.881 69.9961 102.095 69.5586C102.309 69.1211 102.566 68.7383 102.867 68.4102C103.173 68.082 103.514 67.8268 103.893 67.6445C104.271 67.4622 104.679 67.3711 105.116 67.3711C105.453 67.3711 105.745 67.4349 105.991 67.5625C106.242 67.6901 106.449 67.8587 106.613 68.0684C106.782 68.2734 106.914 68.4922 107.01 68.7246H107.078L107.516 67.5078H108.384L106.798 75H105.889L106.094 73.5508H106.039C105.834 73.8242 105.599 74.0817 105.335 74.3232C105.071 74.5648 104.781 74.7607 104.467 74.9111C104.152 75.0615 103.815 75.1367 103.455 75.1367ZM103.824 74.1934C104.175 74.1934 104.521 74.0658 104.863 73.8105C105.21 73.5508 105.52 73.2021 105.793 72.7646C106.071 72.3226 106.283 71.8258 106.429 71.2744C106.502 71.0055 106.549 70.7594 106.572 70.5361C106.6 70.3083 106.613 70.0964 106.613 69.9004C106.613 69.431 106.488 69.0527 106.237 68.7656C105.991 68.474 105.654 68.3281 105.226 68.3281C104.92 68.3281 104.633 68.4056 104.364 68.5605C104.095 68.7109 103.852 68.9229 103.633 69.1963C103.419 69.4652 103.234 69.7796 103.079 70.1396C102.924 70.4951 102.803 70.8825 102.717 71.3018C102.635 71.721 102.594 72.1517 102.594 72.5938C102.594 73.1178 102.701 73.5166 102.915 73.79C103.129 74.0589 103.432 74.1934 103.824 74.1934ZM112.123 75.1367C111.567 75.1367 111.079 75.0319 110.66 74.8223C110.245 74.6081 109.922 74.2936 109.689 73.8789C109.462 73.4642 109.348 72.9492 109.348 72.334C109.348 71.8008 109.405 71.2881 109.519 70.7959C109.637 70.3037 109.808 69.8503 110.031 69.4355C110.255 69.0208 110.526 68.6585 110.845 68.3486C111.164 68.0387 111.526 67.7995 111.932 67.6309C112.342 67.4577 112.788 67.3711 113.271 67.3711C113.595 67.3711 113.916 67.403 114.235 67.4668C114.559 67.526 114.851 67.6126 115.11 67.7266L114.789 68.6836C114.598 68.5924 114.372 68.5104 114.112 68.4375C113.853 68.3646 113.575 68.3281 113.278 68.3281C112.864 68.3281 112.485 68.4329 112.144 68.6426C111.806 68.8522 111.515 69.1439 111.269 69.5176C111.027 69.8867 110.84 70.3105 110.708 70.7891C110.576 71.2676 110.51 71.778 110.51 72.3203C110.51 72.7077 110.578 73.0426 110.715 73.3252C110.852 73.6032 111.048 73.8174 111.303 73.9678C111.562 74.1182 111.872 74.1934 112.232 74.1934C112.565 74.1934 112.877 74.1478 113.169 74.0566C113.465 73.9655 113.755 73.8561 114.037 73.7285V74.6992C113.786 74.8268 113.499 74.9316 113.176 75.0137C112.857 75.0957 112.506 75.1367 112.123 75.1367ZM117.537 75.1367C117.04 75.1367 116.626 75.0182 116.293 74.7812C115.965 74.5397 115.801 74.1273 115.801 73.5439C115.801 73.4027 115.81 73.25 115.828 73.0859C115.846 72.9173 115.876 72.7441 115.917 72.5664L116.799 68.376H115.644L115.753 67.8496L116.997 67.3711L117.817 65.7852H118.494L118.118 67.5078H120.046L119.868 68.376H117.947L117.059 72.5801C117.027 72.7077 116.997 72.8444 116.97 72.9902C116.947 73.1361 116.936 73.2751 116.936 73.4072C116.936 73.6351 116.995 73.8265 117.113 73.9814C117.232 74.1318 117.43 74.207 117.708 74.207C117.881 74.207 118.045 74.1911 118.2 74.1592C118.36 74.1273 118.528 74.0817 118.706 74.0225V74.8975C118.592 74.9521 118.419 75.0046 118.187 75.0547C117.959 75.1094 117.742 75.1367 117.537 75.1367ZM122.274 75.1367C121.896 75.1367 121.566 75.0661 121.283 74.9248C121.001 74.7835 120.782 74.5762 120.627 74.3027C120.477 74.0247 120.401 73.6852 120.401 73.2842C120.401 73.0837 120.415 72.89 120.442 72.7031C120.474 72.5117 120.508 72.3135 120.545 72.1084L121.536 67.5078H122.685L121.666 72.2383C121.63 72.4342 121.6 72.6097 121.577 72.7646C121.559 72.915 121.55 73.0495 121.55 73.168C121.55 73.4915 121.632 73.7445 121.796 73.9268C121.965 74.1045 122.231 74.1934 122.596 74.1934C122.938 74.1934 123.295 74.0771 123.669 73.8447C124.047 73.6123 124.396 73.2477 124.715 72.751C125.038 72.2497 125.285 71.6003 125.453 70.8027L126.15 67.5078H127.271L125.686 75H124.749L124.934 73.5508H124.872C124.699 73.7878 124.489 74.0293 124.243 74.2754C123.997 74.5169 123.712 74.722 123.389 74.8906C123.065 75.0547 122.694 75.1367 122.274 75.1367ZM128.092 75L129.685 67.5078H130.614L130.437 68.957H130.505C130.696 68.6973 130.901 68.4466 131.12 68.2051C131.339 67.959 131.587 67.7585 131.865 67.6035C132.148 67.4486 132.471 67.3711 132.836 67.3711C132.973 67.3711 133.112 67.3802 133.253 67.3984C133.394 67.4121 133.526 67.4372 133.649 67.4736L133.403 68.4922C133.28 68.4648 133.16 68.4443 133.041 68.4307C132.927 68.417 132.809 68.4102 132.686 68.4102C132.339 68.4102 132.018 68.5013 131.722 68.6836C131.425 68.8613 131.159 69.1006 130.922 69.4014C130.689 69.7021 130.491 70.0371 130.327 70.4062C130.168 70.7754 130.047 71.1514 129.965 71.5342L129.233 75H128.092ZM133.629 75L135.222 67.5078H136.363L134.771 75H133.629ZM136.179 66.1953C135.996 66.1953 135.844 66.1429 135.721 66.0381C135.602 65.9287 135.543 65.776 135.543 65.5801C135.543 65.4297 135.573 65.2884 135.632 65.1562C135.696 65.0241 135.785 64.9193 135.898 64.8418C136.017 64.7598 136.16 64.7188 136.329 64.7188C136.53 64.7188 136.68 64.7712 136.78 64.876C136.881 64.9808 136.931 65.1266 136.931 65.3135C136.931 65.5824 136.853 65.7965 136.698 65.9561C136.543 66.1156 136.37 66.1953 136.179 66.1953ZM137.122 75L138.729 67.4736H139.733L139.556 68.916H139.569C139.743 68.679 139.95 68.4398 140.191 68.1982C140.438 67.9521 140.722 67.7471 141.046 67.583C141.374 67.4144 141.745 67.3301 142.16 67.3301C142.561 67.3301 142.905 67.4053 143.192 67.5557C143.479 67.7015 143.701 67.9157 143.855 68.1982C144.01 68.4762 144.088 68.8135 144.088 69.21C144.088 69.4196 144.072 69.6315 144.04 69.8457C144.008 70.0599 143.974 70.2513 143.938 70.4199L142.939 75H141.729L142.741 70.2695C142.782 70.0645 142.814 69.889 142.837 69.7432C142.864 69.5973 142.878 69.4606 142.878 69.333C142.878 69.014 142.791 68.7725 142.618 68.6084C142.445 68.4443 142.19 68.3623 141.853 68.3623C141.52 68.3623 141.169 68.4762 140.8 68.7041C140.431 68.932 140.089 69.292 139.774 69.7842C139.46 70.2718 139.216 70.9098 139.043 71.6982L138.339 75H137.122ZM147.007 78.3633C146.127 78.3633 145.439 78.1947 144.942 77.8574C144.446 77.5247 144.197 77.0553 144.197 76.4492C144.197 75.9616 144.364 75.5378 144.696 75.1777C145.024 74.8223 145.553 74.5238 146.282 74.2822C146.109 74.1911 145.977 74.0771 145.886 73.9404C145.799 73.7992 145.756 73.6374 145.756 73.4551C145.756 73.1452 145.87 72.8786 146.098 72.6553C146.326 72.4274 146.645 72.2178 147.055 72.0264C146.763 71.876 146.528 71.6549 146.351 71.3633C146.173 71.0716 146.084 70.7367 146.084 70.3584C146.089 69.9072 146.166 69.4948 146.316 69.1211C146.467 68.7474 146.679 68.4284 146.952 68.1641C147.207 67.918 147.506 67.7266 147.848 67.5898C148.194 67.4531 148.57 67.3848 148.976 67.3848C149.149 67.3848 149.322 67.3962 149.495 67.4189C149.668 67.4417 149.839 67.4759 150.008 67.5215H152.537L152.373 68.2119L150.89 68.3623C150.994 68.5036 151.072 68.6699 151.122 68.8613C151.177 69.0527 151.202 69.2646 151.197 69.4971C151.197 69.9437 151.122 70.347 150.972 70.707C150.821 71.0671 150.607 71.3724 150.329 71.623C150.078 71.8464 149.78 72.0195 149.434 72.1426C149.092 72.2611 148.709 72.3226 148.285 72.3271C148.162 72.3271 148.053 72.3226 147.957 72.3135C147.861 72.3044 147.779 72.2907 147.711 72.2725C147.378 72.391 147.132 72.5299 146.973 72.6895C146.813 72.849 146.733 73.0176 146.733 73.1953C146.733 73.3229 146.772 73.4255 146.85 73.5029C146.923 73.5713 147.023 73.6237 147.15 73.6602C147.283 73.6921 147.444 73.7194 147.636 73.7422L148.442 73.8311C148.989 73.8949 149.436 74.0042 149.782 74.1592C150.129 74.3096 150.384 74.5146 150.548 74.7744C150.712 75.0342 150.794 75.3555 150.794 75.7383C150.794 76.2214 150.682 76.6383 150.459 76.9893C150.236 77.3447 149.914 77.6341 149.495 77.8574C149.176 78.0215 148.807 78.1468 148.388 78.2334C147.973 78.32 147.513 78.3633 147.007 78.3633ZM147.055 77.5361C147.469 77.5361 147.839 77.4997 148.162 77.4268C148.49 77.3538 148.768 77.249 148.996 77.1123C149.242 76.9619 149.429 76.7796 149.557 76.5654C149.689 76.3512 149.755 76.1051 149.755 75.8271C149.755 75.7041 149.734 75.5924 149.693 75.4922C149.657 75.3919 149.598 75.3031 149.516 75.2256C149.388 75.1025 149.206 75.0023 148.969 74.9248C148.732 74.8473 148.431 74.7926 148.066 74.7607L146.973 74.6514C146.59 74.7334 146.269 74.8542 146.009 75.0137C145.754 75.1777 145.56 75.3714 145.428 75.5947C145.296 75.818 145.229 76.0687 145.229 76.3467C145.229 76.7204 145.384 77.012 145.694 77.2217C146.004 77.4313 146.458 77.5361 147.055 77.5361ZM148.333 71.5752C148.725 71.5752 149.055 71.4772 149.324 71.2812C149.598 71.0807 149.807 70.8164 149.953 70.4883C150.099 70.1556 150.172 69.7933 150.172 69.4014C150.172 69.2054 150.145 69.0322 150.09 68.8818C150.04 68.7269 149.962 68.5993 149.857 68.499C149.757 68.3942 149.63 68.3145 149.475 68.2598C149.324 68.2051 149.151 68.1777 148.955 68.1777C148.668 68.1777 148.41 68.2347 148.183 68.3486C147.955 68.458 147.761 68.6107 147.602 68.8066C147.447 69.0026 147.326 69.2305 147.239 69.4902C147.157 69.75 147.116 70.028 147.116 70.3242C147.116 70.5156 147.141 70.6865 147.191 70.8369C147.242 70.9873 147.314 71.1149 147.41 71.2197C147.62 71.4567 147.927 71.5752 148.333 71.5752ZM158.785 75.1367C158.033 75.1367 157.418 74.9271 156.939 74.5078C156.461 74.0885 156.222 73.4801 156.222 72.6826C156.222 72.1722 156.329 71.7279 156.543 71.3496C156.757 70.9668 157.065 70.6227 157.466 70.3174C157.871 70.012 158.361 69.7249 158.936 69.4561C158.74 69.1507 158.571 68.8226 158.43 68.4717C158.288 68.1208 158.218 67.7516 158.218 67.3643C158.218 66.8903 158.323 66.4642 158.532 66.0859C158.742 65.7077 159.045 65.4069 159.441 65.1836C159.842 64.9603 160.326 64.8486 160.891 64.8486C161.333 64.8486 161.718 64.9307 162.046 65.0947C162.374 65.2542 162.627 65.4821 162.805 65.7783C162.987 66.0745 163.078 66.4255 163.078 66.8311C163.078 67.3096 162.953 67.7174 162.702 68.0547C162.451 68.3874 162.119 68.6813 161.704 68.9365C161.289 69.1917 160.834 69.4447 160.337 69.6953L162.251 72.3682C162.561 72.0947 162.83 71.7757 163.058 71.4111C163.285 71.042 163.477 70.666 163.632 70.2832H164.773C164.614 70.666 164.434 71.026 164.233 71.3633C164.033 71.7005 163.814 72.0195 163.577 72.3203C163.345 72.6165 163.094 72.8968 162.825 73.1611L164.192 75H162.846L162.046 73.8652C161.599 74.2344 161.123 74.5397 160.617 74.7812C160.116 75.0182 159.505 75.1367 158.785 75.1367ZM158.997 74.1934C159.348 74.1934 159.667 74.1455 159.954 74.0498C160.241 73.9541 160.51 73.8242 160.761 73.6602C161.011 73.4961 161.257 73.3138 161.499 73.1133L159.414 70.1602C159.049 70.3424 158.71 70.5407 158.396 70.7549C158.081 70.9691 157.828 71.2243 157.637 71.5205C157.445 71.8167 157.35 72.179 157.35 72.6074C157.35 72.931 157.42 73.2135 157.562 73.4551C157.703 73.6921 157.896 73.8743 158.143 74.002C158.393 74.1296 158.678 74.1934 158.997 74.1934ZM159.879 68.9844C160.107 68.8704 160.341 68.7497 160.583 68.6221C160.829 68.4899 161.057 68.3418 161.267 68.1777C161.481 68.0137 161.652 67.8291 161.779 67.624C161.911 67.4144 161.978 67.1774 161.978 66.9131C161.978 66.5758 161.877 66.3024 161.677 66.0928C161.476 65.8831 161.194 65.7783 160.829 65.7783C160.515 65.7783 160.243 65.8421 160.016 65.9697C159.788 66.0973 159.612 66.2796 159.489 66.5166C159.366 66.749 159.305 67.0316 159.305 67.3643C159.305 67.6514 159.35 67.9271 159.441 68.1914C159.537 68.4512 159.683 68.7155 159.879 68.9844ZM170.974 75L172.874 66.0312H170.085L170.304 65.0059H177.044L176.839 66.0312H174.05L172.143 75H170.974ZM176.203 75L177.796 67.5078H178.726L178.548 68.957H178.616C178.808 68.6973 179.013 68.4466 179.231 68.2051C179.45 67.959 179.699 67.7585 179.977 67.6035C180.259 67.4486 180.583 67.3711 180.947 67.3711C181.084 67.3711 181.223 67.3802 181.364 67.3984C181.506 67.4121 181.638 67.4372 181.761 67.4736L181.515 68.4922C181.392 68.4648 181.271 68.4443 181.152 68.4307C181.038 68.417 180.92 68.4102 180.797 68.4102C180.451 68.4102 180.129 68.5013 179.833 68.6836C179.537 68.8613 179.27 69.1006 179.033 69.4014C178.801 69.7021 178.603 70.0371 178.438 70.4062C178.279 70.7754 178.158 71.1514 178.076 71.5342L177.345 75H176.203ZM184.051 75.1367C183.645 75.1367 183.29 75.0387 182.984 74.8428C182.679 74.6468 182.442 74.3574 182.273 73.9746C182.105 73.5918 182.021 73.1247 182.021 72.5732C182.021 72.0218 182.077 71.4909 182.191 70.9805C182.31 70.4701 182.476 69.9961 182.69 69.5586C182.905 69.1211 183.162 68.7383 183.463 68.4102C183.768 68.082 184.11 67.8268 184.488 67.6445C184.867 67.4622 185.274 67.3711 185.712 67.3711C186.049 67.3711 186.341 67.4349 186.587 67.5625C186.838 67.6901 187.045 67.8587 187.209 68.0684C187.378 68.2734 187.51 68.4922 187.605 68.7246H187.674L188.111 67.5078H188.979L187.394 75H186.484L186.689 73.5508H186.635C186.43 73.8242 186.195 74.0817 185.931 74.3232C185.666 74.5648 185.377 74.7607 185.062 74.9111C184.748 75.0615 184.411 75.1367 184.051 75.1367ZM184.42 74.1934C184.771 74.1934 185.117 74.0658 185.459 73.8105C185.805 73.5508 186.115 73.2021 186.389 72.7646C186.667 72.3226 186.879 71.8258 187.024 71.2744C187.097 71.0055 187.145 70.7594 187.168 70.5361C187.195 70.3083 187.209 70.0964 187.209 69.9004C187.209 69.431 187.084 69.0527 186.833 68.7656C186.587 68.474 186.25 68.3281 185.821 68.3281C185.516 68.3281 185.229 68.4056 184.96 68.5605C184.691 68.7109 184.447 68.9229 184.229 69.1963C184.014 69.4652 183.83 69.7796 183.675 70.1396C183.52 70.4951 183.399 70.8825 183.312 71.3018C183.23 71.721 183.189 72.1517 183.189 72.5938C183.189 73.1178 183.297 73.5166 183.511 73.79C183.725 74.0589 184.028 74.1934 184.42 74.1934ZM191.974 75.1367C191.563 75.1367 191.206 75.041 190.9 74.8496C190.595 74.6582 190.358 74.3734 190.189 73.9951C190.021 73.6123 189.937 73.1383 189.937 72.5732C189.937 72.0355 189.991 71.5137 190.101 71.0078C190.21 70.4974 190.367 70.0234 190.572 69.5859C190.782 69.1484 191.037 68.7656 191.338 68.4375C191.639 68.1048 191.98 67.8473 192.363 67.665C192.751 67.4782 193.174 67.3848 193.635 67.3848C193.986 67.3848 194.286 67.4486 194.537 67.5762C194.788 67.7038 194.995 67.8701 195.159 68.0752C195.328 68.2757 195.46 68.4922 195.556 68.7246H195.624C195.651 68.515 195.679 68.3122 195.706 68.1162C195.733 67.9157 195.765 67.7129 195.802 67.5078C195.843 67.3027 195.888 67.0908 195.938 66.8721L196.465 64.3633H197.593L195.337 75H194.4L194.585 73.5508H194.537C194.318 73.8333 194.079 74.0954 193.819 74.3369C193.564 74.5785 193.284 74.7721 192.979 74.918C192.673 75.0638 192.338 75.1367 191.974 75.1367ZM192.356 74.1934C192.571 74.1934 192.787 74.141 193.006 74.0361C193.229 73.9313 193.446 73.7832 193.655 73.5918C193.865 73.3958 194.061 73.1657 194.243 72.9014C194.425 72.637 194.585 72.3454 194.722 72.0264C194.863 71.7074 194.972 71.3701 195.05 71.0146C195.127 70.6592 195.166 70.2923 195.166 69.9141C195.166 69.431 195.05 69.0459 194.817 68.7588C194.585 68.4717 194.214 68.3281 193.703 68.3281C193.389 68.3281 193.097 68.4079 192.828 68.5674C192.564 68.7269 192.325 68.9456 192.11 69.2236C191.896 69.5016 191.714 69.8229 191.563 70.1875C191.418 70.5475 191.304 70.9349 191.222 71.3496C191.144 71.7598 191.105 72.1745 191.105 72.5938C191.105 73.1178 191.21 73.5166 191.42 73.79C191.63 74.0589 191.942 74.1934 192.356 74.1934ZM197.75 75L199.343 67.5078H200.484L198.892 75H197.75ZM200.3 66.1953C200.118 66.1953 199.965 66.1429 199.842 66.0381C199.723 65.9287 199.664 65.776 199.664 65.5801C199.664 65.4297 199.694 65.2884 199.753 65.1562C199.817 65.0241 199.906 64.9193 200.02 64.8418C200.138 64.7598 200.282 64.7188 200.45 64.7188C200.651 64.7188 200.801 64.7712 200.901 64.876C201.002 64.9808 201.052 65.1266 201.052 65.3135C201.052 65.5824 200.974 65.7965 200.819 65.9561C200.664 66.1156 200.491 66.1953 200.3 66.1953ZM201.243 75L202.85 67.4736H203.854L203.677 68.916H203.69C203.864 68.679 204.071 68.4398 204.312 68.1982C204.559 67.9521 204.843 67.7471 205.167 67.583C205.495 67.4144 205.867 67.3301 206.281 67.3301C206.682 67.3301 207.026 67.4053 207.313 67.5557C207.601 67.7015 207.822 67.9157 207.977 68.1982C208.132 68.4762 208.209 68.8135 208.209 69.21C208.209 69.4196 208.193 69.6315 208.161 69.8457C208.129 70.0599 208.095 70.2513 208.059 70.4199L207.061 75H205.851L206.862 70.2695C206.903 70.0645 206.935 69.889 206.958 69.7432C206.985 69.5973 206.999 69.4606 206.999 69.333C206.999 69.014 206.912 68.7725 206.739 68.6084C206.566 68.4443 206.311 68.3623 205.974 68.3623C205.641 68.3623 205.29 68.4762 204.921 68.7041C204.552 68.932 204.21 69.292 203.896 69.7842C203.581 70.2718 203.337 70.9098 203.164 71.6982L202.46 75H201.243ZM211.128 78.3633C210.248 78.3633 209.56 78.1947 209.063 77.8574C208.567 77.5247 208.318 77.0553 208.318 76.4492C208.318 75.9616 208.485 75.5378 208.817 75.1777C209.146 74.8223 209.674 74.5238 210.403 74.2822C210.23 74.1911 210.098 74.0771 210.007 73.9404C209.92 73.7992 209.877 73.6374 209.877 73.4551C209.877 73.1452 209.991 72.8786 210.219 72.6553C210.447 72.4274 210.766 72.2178 211.176 72.0264C210.884 71.876 210.649 71.6549 210.472 71.3633C210.294 71.0716 210.205 70.7367 210.205 70.3584C210.21 69.9072 210.287 69.4948 210.438 69.1211C210.588 68.7474 210.8 68.4284 211.073 68.1641C211.328 67.918 211.627 67.7266 211.969 67.5898C212.315 67.4531 212.691 67.3848 213.097 67.3848C213.27 67.3848 213.443 67.3962 213.616 67.4189C213.789 67.4417 213.96 67.4759 214.129 67.5215H216.658L216.494 68.2119L215.011 68.3623C215.116 68.5036 215.193 68.6699 215.243 68.8613C215.298 69.0527 215.323 69.2646 215.318 69.4971C215.318 69.9437 215.243 70.347 215.093 70.707C214.942 71.0671 214.728 71.3724 214.45 71.623C214.2 71.8464 213.901 72.0195 213.555 72.1426C213.213 72.2611 212.83 72.3226 212.406 72.3271C212.283 72.3271 212.174 72.3226 212.078 72.3135C211.982 72.3044 211.9 72.2907 211.832 72.2725C211.499 72.391 211.253 72.5299 211.094 72.6895C210.934 72.849 210.854 73.0176 210.854 73.1953C210.854 73.3229 210.893 73.4255 210.971 73.5029C211.044 73.5713 211.144 73.6237 211.271 73.6602C211.404 73.6921 211.565 73.7194 211.757 73.7422L212.563 73.8311C213.11 73.8949 213.557 74.0042 213.903 74.1592C214.25 74.3096 214.505 74.5146 214.669 74.7744C214.833 75.0342 214.915 75.3555 214.915 75.7383C214.915 76.2214 214.803 76.6383 214.58 76.9893C214.357 77.3447 214.035 77.6341 213.616 77.8574C213.297 78.0215 212.928 78.1468 212.509 78.2334C212.094 78.32 211.634 78.3633 211.128 78.3633ZM211.176 77.5361C211.59 77.5361 211.96 77.4997 212.283 77.4268C212.611 77.3538 212.889 77.249 213.117 77.1123C213.363 76.9619 213.55 76.7796 213.678 76.5654C213.81 76.3512 213.876 76.1051 213.876 75.8271C213.876 75.7041 213.855 75.5924 213.814 75.4922C213.778 75.3919 213.719 75.3031 213.637 75.2256C213.509 75.1025 213.327 75.0023 213.09 74.9248C212.853 74.8473 212.552 74.7926 212.188 74.7607L211.094 74.6514C210.711 74.7334 210.39 74.8542 210.13 75.0137C209.875 75.1777 209.681 75.3714 209.549 75.5947C209.417 75.818 209.351 76.0687 209.351 76.3467C209.351 76.7204 209.506 77.012 209.815 77.2217C210.125 77.4313 210.579 77.5361 211.176 77.5361ZM212.454 71.5752C212.846 71.5752 213.176 71.4772 213.445 71.2812C213.719 71.0807 213.928 70.8164 214.074 70.4883C214.22 70.1556 214.293 69.7933 214.293 69.4014C214.293 69.2054 214.266 69.0322 214.211 68.8818C214.161 68.7269 214.083 68.5993 213.979 68.499C213.878 68.3942 213.751 68.3145 213.596 68.2598C213.445 68.2051 213.272 68.1777 213.076 68.1777C212.789 68.1777 212.532 68.2347 212.304 68.3486C212.076 68.458 211.882 68.6107 211.723 68.8066C211.568 69.0026 211.447 69.2305 211.36 69.4902C211.278 69.75 211.237 70.028 211.237 70.3242C211.237 70.5156 211.262 70.6865 211.312 70.8369C211.363 70.9873 211.436 71.1149 211.531 71.2197C211.741 71.4567 212.049 71.5752 212.454 71.5752ZM222.482 75.1367C221.986 75.1367 221.55 75.1003 221.177 75.0273C220.803 74.9544 220.457 74.8428 220.138 74.6924V73.5508C220.425 73.6966 220.762 73.8311 221.149 73.9541C221.537 74.0726 221.986 74.1318 222.496 74.1318C222.811 74.1318 223.111 74.0954 223.398 74.0225C223.686 73.9495 223.941 73.8356 224.164 73.6807C224.392 73.5257 224.57 73.3275 224.697 73.0859C224.829 72.8444 224.896 72.5573 224.896 72.2246C224.896 71.9557 224.836 71.7188 224.718 71.5137C224.604 71.304 224.422 71.1035 224.171 70.9121C223.92 70.7161 223.592 70.5065 223.187 70.2832C222.84 70.0781 222.528 69.8639 222.25 69.6406C221.977 69.4128 221.76 69.1484 221.601 68.8477C221.441 68.5423 221.361 68.1732 221.361 67.7402C221.361 67.2754 221.448 66.8652 221.621 66.5098C221.794 66.1497 222.031 65.849 222.332 65.6074C222.637 65.3613 222.986 65.1768 223.378 65.0537C223.774 64.9261 224.194 64.8623 224.636 64.8623C225.16 64.8623 225.616 64.9147 226.003 65.0195C226.39 65.1243 226.764 65.2656 227.124 65.4434L226.68 66.4277C226.424 66.291 226.117 66.168 225.757 66.0586C225.401 65.9447 225.028 65.8877 224.636 65.8877C224.349 65.8877 224.08 65.9264 223.829 66.0039C223.583 66.0768 223.367 66.1885 223.18 66.3389C222.993 66.4893 222.847 66.6761 222.742 66.8994C222.637 67.1182 222.585 67.3734 222.585 67.665C222.585 67.9613 222.64 68.2074 222.749 68.4033C222.863 68.5993 223.027 68.777 223.241 68.9365C223.46 69.096 223.729 69.2692 224.048 69.4561C224.453 69.693 224.811 69.93 225.121 70.167C225.431 70.3994 225.673 70.6706 225.846 70.9805C226.019 71.2858 226.105 71.6709 226.105 72.1357C226.105 72.637 226.017 73.0768 225.839 73.4551C225.666 73.8288 225.417 74.141 225.094 74.3916C224.77 74.6377 224.387 74.8245 223.945 74.9521C223.503 75.0752 223.016 75.1367 222.482 75.1367ZM227.5 75L229.612 65.0059H231.246L232.285 73.2979H232.34L236.906 65.0059H238.677L236.599 75H235.437L236.749 68.793C236.831 68.4193 236.911 68.0684 236.988 67.7402C237.066 67.4121 237.136 67.1136 237.2 66.8447C237.269 66.5713 237.33 66.3389 237.385 66.1475H237.357L232.436 75H231.526L230.392 66.1543H230.337C230.319 66.3411 230.287 66.5804 230.241 66.8721C230.2 67.1592 230.15 67.4668 230.091 67.7949C230.036 68.1185 229.977 68.4307 229.913 68.7314L228.594 75H227.5ZM239.23 75L241.343 65.0059H246.408L246.189 66.0312H242.279L241.589 69.2646H245.253L245.055 70.2764H241.384L240.591 73.9746H244.508L244.289 75H239.23ZM248.056 75.1367C247.6 75.1367 247.199 75.0911 246.853 75C246.511 74.9089 246.212 74.7949 245.957 74.6582V73.6055C246.199 73.7513 246.504 73.888 246.873 74.0156C247.247 74.1432 247.63 74.207 248.021 74.207C248.409 74.207 248.73 74.1546 248.985 74.0498C249.245 73.945 249.439 73.8014 249.566 73.6191C249.699 73.4323 249.765 73.2158 249.765 72.9697C249.765 72.7738 249.721 72.6051 249.635 72.4639C249.553 72.318 249.416 72.1768 249.225 72.04C249.038 71.9033 248.787 71.7461 248.473 71.5684C248.122 71.3724 247.826 71.1742 247.584 70.9736C247.342 70.7731 247.158 70.5544 247.03 70.3174C246.907 70.0758 246.846 69.7956 246.846 69.4766C246.846 69.0482 246.951 68.6768 247.16 68.3623C247.37 68.0479 247.664 67.804 248.042 67.6309C248.425 67.4577 248.871 67.3711 249.382 67.3711C249.833 67.3711 250.25 67.4235 250.633 67.5283C251.016 67.6286 251.346 67.7448 251.624 67.877L251.255 68.7861C251.018 68.6722 250.747 68.5674 250.441 68.4717C250.136 68.376 249.783 68.3281 249.382 68.3281C248.953 68.3281 248.612 68.4261 248.356 68.6221C248.106 68.818 247.98 69.0824 247.98 69.415C247.98 69.5882 248.017 69.7432 248.09 69.8799C248.167 70.0166 248.299 70.1533 248.486 70.29C248.673 70.4222 248.928 70.5771 249.252 70.7549C249.566 70.9372 249.849 71.124 250.1 71.3154C250.355 71.5023 250.555 71.7188 250.701 71.9648C250.852 72.2064 250.927 72.5049 250.927 72.8604C250.927 73.348 250.811 73.7627 250.578 74.1045C250.346 74.4417 250.013 74.6992 249.58 74.877C249.152 75.0501 248.644 75.1367 248.056 75.1367Z" fill="#52525C"/>
<defs>
<linearGradient id="paint0_linear_1_42778" x1="46.7527" y1="7.13797" x2="28.6707" y2="25.2199" gradientUnits="userSpaceOnUse">
<stop stop-color="#78DBF8"/>
<stop offset="0.690625" stop-color="#50BEF2"/>
<stop offset="1" stop-color="#42B4F0"/>
</linearGradient>
<linearGradient id="paint1_linear_1_42778" x1="61.5741" y1="36.7694" x2="43.4878" y2="18.6831" gradientUnits="userSpaceOnUse">
<stop stop-color="#FAE267"/>
<stop offset="0.651042" stop-color="#F7D14E"/>
<stop offset="1" stop-color="#F6C841"/>
</linearGradient>
<linearGradient id="paint2_linear_1_42778" x1="17.3893" y1="22.2401" x2="35.4745" y2="40.3253" gradientUnits="userSpaceOnUse">
<stop stop-color="#3FB3B7"/>
<stop offset="0.690625" stop-color="#309599"/>
<stop offset="1" stop-color="#278589"/>
</linearGradient>
<linearGradient id="paint3_linear_1_42778" x1="32.2259" y1="51.8694" x2="50.3088" y2="33.7864" gradientUnits="userSpaceOnUse">
<stop stop-color="#E95F45"/>
<stop offset="0.739583" stop-color="#D83F2E"/>
<stop offset="1" stop-color="#D23426"/>
</linearGradient>
</defs>
</svg>
